SplineFontDB: 3.2
FontName: gallant12x22-lineart
FullName: gallant12x22 lineart
FamilyName: gallant12x22 lineart
Weight: Medium
Copyright: Created by Joshua M. Clulow with FontForge 2.0 (http://fontforge.sf.net)\nPixels extrapolated to line art by Art Yerkes
Version: 1.0
ItalicAngle: 0
UnderlinePosition: -150
UnderlineWidth: 50
Ascent: 800
Descent: 200
InvalidEm: 0
sfntRevision: 0x00010000
LayerCount: 2
Layer: 0 1 "Back" 1
Layer: 1 1 "Fore" 0
XUID: [1021 1003 -1009230286 6833197]
StyleMap: 0x0040
FSType: 0
OS2Version: 4
OS2_WeightWidthSlopeOnly: 0
OS2_UseTypoMetrics: 1
CreationTime: 1459561043
ModificationTime: 1657159640
PfmFamily: 17
TTFWeight: 500
TTFWidth: 5
LineGap: 90
VLineGap: 0
Panose: 2 0 6 9 0 0 0 0 0 0
OS2TypoAscent: 800
OS2TypoAOffset: 0
OS2TypoDescent: -200
OS2TypoDOffset: 0
OS2TypoLinegap: 90
OS2WinAscent: 800
OS2WinAOffset: 0
OS2WinDescent: 200
OS2WinDOffset: 0
HheadAscent: 800
HheadAOffset: 0
HheadDescent: -200
HheadDOffset: 0
OS2SubXSize: 650
OS2SubYSize: 700
OS2SubXOff: 0
OS2SubYOff: 140
OS2SupXSize: 650
OS2SupYSize: 700
OS2SupXOff: 0
OS2SupYOff: 480
OS2StrikeYSize: 49
OS2StrikeYPos: 258
OS2CapHeight: 664
OS2XHeight: 482
OS2Vendor: 'PfEd'
OS2CodePages: 00000001.00000000
OS2UnicodeRanges: 00000003.00000000.00000000.00000000
MarkAttachClasses: 1
DEI: 91125
ShortTable: cvt  2
  33
  633
EndShort
ShortTable: maxp 16
  1
  0
  224
  528
  6
  0
  0
  2
  0
  1
  1
  0
  64
  46
  0
  0
EndShort
LangName: 1033 "" "" "Medium" "" "" "1.0"
GaspTable: 1 65535 2 0
Encoding: UnicodeBmp
UnicodeInterp: none
NameList: AGL For New Fonts
DisplaySize: -48
AntiAlias: 1
FitToEm: 0
WinInfo: 50 25 8
BeginPrivate: 0
EndPrivate
TeXData: 1 0 0 571473 285736 190491 505414 1048576 190491 783286 444596 497025 792723 393216 433062 380633 303038 157286 324010 404750 52429 2506097 1059062 262144
BeginChars: 65537 224

StartChar: .notdef
Encoding: 65536 -1 0
Width: 545
GlyphClass: 1
Flags: W
LayerCount: 2
Fore
SplineSet
33 0 m 1,0,-1
 33 666 l 1,1,-1
 298 666 l 1,2,-1
 298 0 l 1,3,-1
 33 0 l 1,0,-1
66 33 m 1,4,-1
 265 33 l 1,5,-1
 265 633 l 1,6,-1
 66 633 l 1,7,-1
 66 33 l 1,4,-1
EndSplineSet
Validated: 1
EndChar

StartChar: uni0000
Encoding: 0 0 1
Width: 545
GlyphClass: 1
Flags: W
LayerCount: 2
Fore
SplineSet
45 710 m 1,0,-1
 500 710 l 1,1,-1
 500 28 l 1,2,-1
 45 28 l 1,3,-1
 45 710 l 1,0,-1
EndSplineSet
Validated: 1
EndChar

StartChar: uni000D
Encoding: 13 13 2
Width: 545
GlyphClass: 1
Flags: W
LayerCount: 2
Fore
SplineSet
227 346 m 1,0,-1
 545 346 l 1,1,-1
 545 255 l 1,2,-1
 318 255 l 1,3,-1
 318 -200 l 1,4,-1
 227 -200 l 1,5,-1
 227 346 l 1,0,-1
EndSplineSet
Validated: 1
EndChar

StartChar: uni0001
Encoding: 1 1 3
Width: 545
GlyphClass: 1
Flags: W
LayerCount: 2
Fore
SplineSet
227 437 m 1,0,-1
 272 482 l 1,1,-1
 318 437 l 1,2,-1
 318 437 l 1,3,-1
 363 391 l 1,4,-1
 363 391 l 1,5,-1
 409 346 l 1,6,-1
 409 346 l 1,7,-1
 454 300 l 1,8,-1
 454 300 l 1,9,-1
 500 254 l 1,10,-1
 454 210 l 1,11,-1
 454 210 l 1,12,-1
 409 164 l 1,13,-1
 409 164 l 1,14,-1
 363 119 l 1,15,-1
 363 119 l 1,16,-1
 318 73 l 1,17,-1
 318 73 l 1,18,-1
 274 28 l 1,19,-1
 227 73 l 1,20,-1
 227 73 l 1,21,-1
 181 119 l 1,22,-1
 181 119 l 1,23,-1
 136 164 l 1,24,-1
 136 164 l 1,25,-1
 90 210 l 1,26,-1
 90 210 l 1,27,-1
 42 256 l 1,28,-1
 90 300 l 1,29,-1
 90 300 l 1,30,-1
 136 346 l 1,31,-1
 136 346 l 1,32,-1
 181 391 l 1,33,-1
 181 391 l 1,34,-1
 227 437 l 1,35,-1
 227 437 l 1,0,-1
EndSplineSet
Validated: 5
EndChar

StartChar: uni0002
Encoding: 2 2 4
Width: 545
GlyphClass: 1
Flags: W
LayerCount: 2
Fore
SplineSet
45 528 m 1,0,-1
 90 528 l 1,1,-1
 90 482 l 1,2,-1
 136 482 l 1,3,-1
 136 528 l 1,4,-1
 181 528 l 1,5,-1
 181 482 l 1,6,-1
 227 482 l 1,7,-1
 227 528 l 1,8,-1
 272 528 l 1,9,-1
 272 482 l 1,10,-1
 318 482 l 1,11,-1
 318 528 l 1,12,-1
 363 528 l 1,13,-1
 363 482 l 1,14,-1
 409 482 l 1,15,-1
 409 528 l 1,16,-1
 454 528 l 1,17,-1
 454 482 l 1,18,-1
 500 482 l 1,19,-1
 500 437 l 1,20,-1
 454 437 l 1,21,-1
 454 391 l 1,22,-1
 500 391 l 1,23,-1
 500 346 l 1,24,-1
 454 346 l 1,25,-1
 454 300 l 1,26,-1
 500 300 l 1,27,-1
 500 255 l 1,28,-1
 454 255 l 1,29,-1
 454 210 l 1,30,-1
 500 210 l 1,31,-1
 500 164 l 1,32,-1
 454 164 l 1,33,-1
 454 119 l 1,34,-1
 500 119 l 1,35,-1
 500 73 l 1,36,-1
 454 73 l 1,37,-1
 454 28 l 1,38,-1
 409 28 l 1,39,-1
 409 73 l 1,40,-1
 363 73 l 1,41,-1
 363 28 l 1,42,-1
 318 28 l 1,43,-1
 318 73 l 1,44,-1
 272 73 l 1,45,-1
 272 28 l 1,46,-1
 227 28 l 1,47,-1
 227 73 l 1,48,-1
 181 73 l 1,49,-1
 181 28 l 1,50,-1
 136 28 l 1,51,-1
 136 73 l 1,52,-1
 90 73 l 1,53,-1
 90 28 l 1,54,-1
 45 28 l 1,55,-1
 45 73 l 1,56,-1
 90 73 l 1,57,-1
 90 119 l 1,58,-1
 45 119 l 1,59,-1
 45 164 l 1,60,-1
 90 164 l 1,61,-1
 90 210 l 1,62,-1
 45 210 l 1,63,-1
 45 255 l 1,64,-1
 90 255 l 1,65,-1
 90 300 l 1,66,-1
 45 300 l 1,67,-1
 45 346 l 1,68,-1
 90 346 l 1,69,-1
 90 391 l 1,70,-1
 45 391 l 1,71,-1
 45 437 l 1,72,-1
 90 437 l 1,73,-1
 90 482 l 1,74,-1
 45 482 l 1,75,-1
 45 528 l 1,0,-1
136 482 m 1,76,-1
 136 437 l 1,77,-1
 90 437 l 1,78,-1
 90 391 l 1,79,-1
 136 391 l 1,80,-1
 136 346 l 1,81,-1
 90 346 l 1,82,-1
 90 300 l 1,83,-1
 136 300 l 1,84,-1
 136 255 l 1,85,-1
 90 255 l 1,86,-1
 90 210 l 1,87,-1
 136 210 l 1,88,-1
 136 164 l 1,89,-1
 90 164 l 1,90,-1
 90 119 l 1,91,-1
 136 119 l 1,92,-1
 136 73 l 1,93,-1
 181 73 l 1,94,-1
 181 119 l 1,95,-1
 227 119 l 1,96,-1
 227 73 l 1,97,-1
 272 73 l 1,98,-1
 272 119 l 1,99,-1
 318 119 l 1,100,-1
 318 73 l 1,101,-1
 363 73 l 1,102,-1
 363 119 l 1,103,-1
 409 119 l 1,104,-1
 409 73 l 1,105,-1
 454 73 l 1,106,-1
 454 119 l 1,107,-1
 409 119 l 1,108,-1
 409 164 l 1,109,-1
 454 164 l 1,110,-1
 454 210 l 1,111,-1
 409 210 l 1,112,-1
 409 255 l 1,113,-1
 454 255 l 1,114,-1
 454 300 l 1,115,-1
 409 300 l 1,116,-1
 409 346 l 1,117,-1
 454 346 l 1,118,-1
 454 391 l 1,119,-1
 409 391 l 1,120,-1
 409 437 l 1,121,-1
 454 437 l 1,122,-1
 454 482 l 1,123,-1
 409 482 l 1,124,-1
 409 437 l 1,125,-1
 363 437 l 1,126,-1
 363 482 l 1,127,-1
 318 482 l 1,128,-1
 318 437 l 1,129,-1
 272 437 l 1,130,-1
 272 482 l 1,131,-1
 227 482 l 1,132,-1
 227 437 l 1,133,-1
 181 437 l 1,134,-1
 181 482 l 1,135,-1
 136 482 l 1,76,-1
136 437 m 1,136,-1
 181 437 l 1,137,-1
 181 391 l 1,138,-1
 227 391 l 1,139,-1
 227 437 l 1,140,-1
 272 437 l 1,141,-1
 272 391 l 1,142,-1
 318 391 l 1,143,-1
 318 437 l 1,144,-1
 363 437 l 1,145,-1
 363 391 l 1,146,-1
 409 391 l 1,147,-1
 409 346 l 1,148,-1
 363 346 l 1,149,-1
 363 300 l 1,150,-1
 409 300 l 1,151,-1
 409 255 l 1,152,-1
 363 255 l 1,153,-1
 363 210 l 1,154,-1
 409 210 l 1,155,-1
 409 164 l 1,156,-1
 363 164 l 1,157,-1
 363 119 l 1,158,-1
 318 119 l 1,159,-1
 318 164 l 1,160,-1
 272 164 l 1,161,-1
 272 119 l 1,162,-1
 227 119 l 1,163,-1
 227 164 l 1,164,-1
 181 164 l 1,165,-1
 181 119 l 1,166,-1
 136 119 l 1,167,-1
 136 164 l 1,168,-1
 181 164 l 1,169,-1
 181 210 l 1,170,-1
 136 210 l 1,171,-1
 136 255 l 1,172,-1
 181 255 l 1,173,-1
 181 300 l 1,174,-1
 136 300 l 1,175,-1
 136 346 l 1,176,-1
 181 346 l 1,177,-1
 181 391 l 1,178,-1
 136 391 l 1,179,-1
 136 437 l 1,136,-1
227 391 m 1,180,-1
 227 346 l 1,181,-1
 181 346 l 1,182,-1
 181 300 l 1,183,-1
 227 300 l 1,184,-1
 227 255 l 1,185,-1
 181 255 l 1,186,-1
 181 210 l 1,187,-1
 227 210 l 1,188,-1
 227 164 l 1,189,-1
 272 164 l 1,190,-1
 272 210 l 1,191,-1
 318 210 l 1,192,-1
 318 164 l 1,193,-1
 363 164 l 1,194,-1
 363 210 l 1,195,-1
 318 210 l 1,196,-1
 318 255 l 1,197,-1
 363 255 l 1,198,-1
 363 300 l 1,199,-1
 318 300 l 1,200,-1
 318 346 l 1,201,-1
 363 346 l 1,202,-1
 363 391 l 1,203,-1
 318 391 l 1,204,-1
 318 346 l 1,205,-1
 272 346 l 1,206,-1
 272 391 l 1,207,-1
 227 391 l 1,180,-1
227 346 m 1,208,-1
 272 346 l 1,209,-1
 272 300 l 1,210,-1
 318 300 l 1,211,-1
 318 255 l 1,212,-1
 272 255 l 1,213,-1
 272 210 l 1,214,-1
 227 210 l 1,215,-1
 227 255 l 1,216,-1
 272 255 l 1,217,-1
 272 300 l 1,218,-1
 227 300 l 1,219,-1
 227 346 l 1,208,-1
EndSplineSet
Validated: 5
EndChar

StartChar: uni0003
Encoding: 3 3 5
Width: 545
GlyphClass: 1
Flags: W
LayerCount: 2
Fore
SplineSet
45 573 m 1,0,-1
 90 573 l 1,1,-1
 90 437 l 1,2,-1
 227 437 l 1,3,-1
 227 573 l 1,4,-1
 272 573 l 1,5,-1
 272 255 l 1,6,-1
 500 255 l 1,7,-1
 500 210 l 1,8,-1
 409 210 l 1,9,-1
 409 -63 l 1,10,-1
 363 -63 l 1,11,-1
 363 210 l 1,12,-1
 272 210 l 1,13,-1
 272 255 l 1,14,-1
 227 255 l 1,15,-1
 227 391 l 1,16,-1
 90 391 l 1,17,-1
 90 255 l 1,18,-1
 45 255 l 1,19,-1
 45 573 l 1,0,-1
EndSplineSet
Validated: 5
EndChar

StartChar: uni0004
Encoding: 4 4 6
Width: 545
GlyphClass: 1
Flags: W
LayerCount: 2
Fore
SplineSet
45 573 m 1,0,-1
 272 573 l 1,1,-1
 272 528 l 1,2,-1
 90 528 l 1,3,-1
 90 437 l 1,4,-1
 227 437 l 1,5,-1
 227 391 l 1,6,-1
 90 391 l 1,7,-1
 90 255 l 1,8,-1
 45 255 l 1,9,-1
 45 573 l 1,0,-1
272 255 m 1,10,-1
 500 255 l 1,11,-1
 500 210 l 1,12,-1
 318 210 l 1,13,-1
 318 119 l 1,14,-1
 454 119 l 1,15,-1
 454 73 l 1,16,-1
 318 73 l 1,17,-1
 318 -63 l 1,18,-1
 272 -63 l 1,19,-1
 272 255 l 1,10,-1
EndSplineSet
Validated: 1
EndChar

StartChar: uni0005
Encoding: 5 5 7
Width: 545
GlyphClass: 1
Flags: W
LayerCount: 2
Fore
SplineSet
103 574 m 1,0,-1
 210 573 l 1,1,-1
 246 551 l 1,2,-1
 272 515 l 1,3,-1
 272 482 l 1,4,-1
 227 482 l 1,5,-1
 208 526 l 1,6,-1
 108 526 l 1,7,-1
 91 482 l 1,8,9
 91 482 91 482 91.04 339 c 1,10,11
 91.04 339 91.04 339 106 300 c 1,12,-1
 206 300 l 1,13,-1
 227 346 l 1,14,-1
 272 346 l 1,15,-1
 272 300 l 1,16,-1
 248 261 l 1,17,-1
 227 255 l 1,18,-1
 90 255 l 1,19,-1
 62 271 l 1,20,-1
 44 316 l 1,21,-1
 43 511 l 1,22,-1
 68 556 l 1,23,-1
 103 574 l 1,0,-1
381 75 m 1,24,-1
 448 75 l 1,25,-1
 480 99 l 1,26,-1
 499 136 l 1,27,-1
 500 198 l 1,28,-1
 481 237 l 1,29,-1
 454 255 l 1,30,-1
 272 255 l 1,31,-1
 272 -63 l 1,32,-1
 318 -63 l 1,33,-1
 318 73 l 1,34,-1
 454 -63 l 1,35,-1
 500 -63 l 1,36,-1
 501 -38 l 1,37,-1
 381 75 l 1,24,-1
318 210 m 1,38,-1
 399 210 l 1,39,40
 399 210 399 210 438 202 c 1,41,-1
 453 185 l 1,42,43
 454 148 454 148 454 148 c 129,-1,44
 454 148 454 148 439 124 c 1,45,-1
 401 120 l 1,46,47
 401 120 401 120 318 119 c 1,48,-1
 318 210 l 1,38,-1
EndSplineSet
Validated: 9
EndChar

StartChar: uni0006
Encoding: 6 6 8
Width: 545
GlyphClass: 1
Flags: W
LayerCount: 2
Fore
SplineSet
45 573 m 1,0,-1
 90 573 l 1,1,-1
 90 300 l 1,2,-1
 272 300 l 1,3,-1
 272 255 l 1,4,-1
 500 255 l 1,5,-1
 500 210 l 1,6,-1
 318 210 l 1,7,-1
 318 119 l 1,8,-1
 454 119 l 1,9,-1
 454 73 l 1,10,-1
 318 73 l 1,11,-1
 318 -63 l 1,12,-1
 272 -63 l 1,13,-1
 272 255 l 1,14,-1
 45 255 l 1,15,-1
 45 573 l 1,0,-1
EndSplineSet
Validated: 5
EndChar

StartChar: uni0007
Encoding: 7 7 9
Width: 545
GlyphClass: 1
Flags: W
LayerCount: 2
Fore
SplineSet
181 710 m 5,0,-1
 245 710 l 5,1,2
 245 710 245 710 307 704 c 5,3,-1
 342 681 l 5,4,-1
 369 655 l 5,5,-1
 387 626 l 5,6,-1
 402 590 l 5,7,-1
 409 557 l 5,8,9
 409 557 409 557 401 487 c 5,10,-1
 385 445 l 5,11,-1
 362 410 l 5,12,-1
 342 387 l 5,13,-1
 317 368 l 5,14,-1
 294 356 l 5,15,-1
 272 346 l 5,16,-1
 206 346 l 5,17,18
 206 346 206 346 149 353 c 5,19,-1
 113 373 l 5,20,-1
 90 391 l 5,21,-1
 62 419 l 5,22,-1
 46 455 l 5,23,-1
 45 506 l 5,24,25
 45 506 45 506 52 569 c 5,26,-1
 63 600 l 5,27,-1
 86 632 l 5,28,-1
 109 658 l 5,29,-1
 130 678 l 5,30,-1
 159 702 l 5,31,-1
 181 710 l 5,0,-1
181 664 m 5,32,-1
 149 641 l 5,33,-1
 136 619 l 5,34,-1
 118 545 l 5,35,36
 118 545 118 545 124 489 c 5,37,-1
 143 450 l 5,38,-1
 175 420 l 5,39,-1
 203 403 l 5,40,-1
 227 391 l 5,41,-1
 272 391 l 5,42,-1
 299 412 l 5,43,-1
 318 437 l 5,44,-1
 332 507 l 5,45,46
 332 507 332 507 318 573 c 5,47,-1
 300 609 l 5,48,-1
 277 636 l 5,49,-1
 253 654 l 5,50,-1
 227 664 l 5,51,-1
 181 664 l 5,32,-1
EndSplineSet
Validated: 1
EndChar

StartChar: uni0008
Encoding: 8 8 10
Width: 545
GlyphClass: 1
Flags: W
LayerCount: 2
Fore
SplineSet
227 573 m 1,0,-1
 318 573 l 1,1,-1
 318 391 l 1,2,-1
 500 391 l 1,3,-1
 500 300 l 1,4,-1
 318 300 l 1,5,-1
 318 119 l 1,6,-1
 227 119 l 1,7,-1
 227 300 l 1,8,-1
 45 300 l 1,9,-1
 45 391 l 1,10,-1
 227 391 l 1,11,-1
 227 573 l 1,0,-1
45 73 m 1,12,-1
 500 73 l 1,13,-1
 500 -18 l 1,14,-1
 45 -18 l 1,15,-1
 45 73 l 1,12,-1
EndSplineSet
Validated: 1
EndChar

StartChar: uni0009
Encoding: 9 9 11
Width: 545
GlyphClass: 1
Flags: W
LayerCount: 2
Fore
SplineSet
227 255 m 1,0,-1
 227 255 l 1,1,-1
 272 255 l 1,2,-1
 272 -63 l 1,3,-1
 500 -63 l 1,4,-1
 500 -18 l 1,5,-1
 318 -18 l 1,6,-1
 318 255 l 1,7,-1
 272 255 l 1,8,-1
 272 573 l 1,9,-1
 227 573 l 1,10,-1
 230 362 l 5,11,-1
 90 573 l 1,12,-1
 45 573 l 1,13,-1
 45 255 l 1,14,-1
 90 255 l 1,15,-1
 88 468 l 1,16,-1
 227 255 l 1,0,-1
EndSplineSet
Validated: 5
EndChar

StartChar: uni000A
Encoding: 10 10 12
Width: 545
GlyphClass: 1
Flags: W
LayerCount: 2
Fore
SplineSet
272 573 m 5,0,-1
 227 573 l 1,1,-1
 158 346 l 1,2,-1
 90 573 l 1,3,-1
 45 573 l 1,4,-1
 136 255 l 1,5,-1
 181 255 l 1,6,-1
 272 573 l 5,0,-1
272 255 m 1,7,-1
 500 255 l 1,8,-1
 500 210 l 1,9,-1
 409 210 l 1,10,-1
 409 -63 l 1,11,-1
 363 -63 l 1,12,-1
 363 210 l 1,13,-1
 272 210 l 1,14,-1
 272 255 l 1,7,-1
EndSplineSet
Validated: 9
EndChar

StartChar: uni000B
Encoding: 11 11 13
Width: 545
GlyphClass: 1
Flags: W
LayerCount: 2
Fore
SplineSet
227 800 m 1,0,-1
 318 800 l 1,1,-1
 318 255 l 1,2,-1
 0 255 l 1,3,-1
 0 346 l 1,4,-1
 227 346 l 1,5,-1
 227 800 l 1,0,-1
EndSplineSet
Validated: 1
EndChar

StartChar: uni000C
Encoding: 12 12 14
Width: 545
GlyphClass: 1
Flags: W
LayerCount: 2
Fore
SplineSet
0 346 m 1,0,-1
 318 346 l 1,1,-1
 318 -200 l 1,2,-1
 227 -200 l 1,3,-1
 227 255 l 1,4,-1
 0 255 l 1,5,-1
 0 346 l 1,0,-1
EndSplineSet
Validated: 1
EndChar

StartChar: uni000E
Encoding: 14 14 15
Width: 545
GlyphClass: 1
Flags: W
LayerCount: 2
Fore
SplineSet
227 800 m 1,0,-1
 318 800 l 1,1,-1
 318 346 l 1,2,-1
 545 346 l 1,3,-1
 545 255 l 1,4,-1
 227 255 l 1,5,-1
 227 800 l 1,0,-1
EndSplineSet
Validated: 1
EndChar

StartChar: uni000F
Encoding: 15 15 16
Width: 545
GlyphClass: 1
Flags: W
LayerCount: 2
Fore
SplineSet
227 800 m 1,0,-1
 318 800 l 1,1,-1
 318 346 l 1,2,-1
 545 346 l 1,3,-1
 545 255 l 1,4,-1
 318 255 l 1,5,-1
 318 -200 l 1,6,-1
 227 -200 l 1,7,-1
 227 255 l 1,8,-1
 0 255 l 1,9,-1
 0 346 l 1,10,-1
 227 346 l 1,11,-1
 227 800 l 1,0,-1
EndSplineSet
Validated: 1
EndChar

StartChar: uni0010
Encoding: 16 16 17
Width: 545
GlyphClass: 1
Flags: W
LayerCount: 2
Fore
SplineSet
0 755 m 1,0,-1
 545 755 l 1,1,-1
 545 664 l 1,2,-1
 0 664 l 1,3,-1
 0 755 l 1,0,-1
EndSplineSet
Validated: 1
EndChar

StartChar: uni0011
Encoding: 17 17 18
Width: 545
GlyphClass: 1
Flags: W
LayerCount: 2
Fore
SplineSet
0 528 m 1,0,-1
 545 528 l 1,1,-1
 545 437 l 1,2,-1
 0 437 l 1,3,-1
 0 528 l 1,0,-1
EndSplineSet
Validated: 1
EndChar

StartChar: uni0012
Encoding: 18 18 19
Width: 545
GlyphClass: 1
Flags: W
LayerCount: 2
Fore
SplineSet
0 346 m 1,0,-1
 545 346 l 1,1,-1
 545 255 l 1,2,-1
 0 255 l 1,3,-1
 0 346 l 1,0,-1
EndSplineSet
Validated: 1
EndChar

StartChar: uni0013
Encoding: 19 19 20
Width: 545
GlyphClass: 1
Flags: W
LayerCount: 2
Fore
SplineSet
0 164 m 1,0,-1
 545 164 l 1,1,-1
 545 73 l 1,2,-1
 0 73 l 1,3,-1
 0 164 l 1,0,-1
EndSplineSet
Validated: 1
EndChar

StartChar: uni0014
Encoding: 20 20 21
Width: 545
GlyphClass: 1
Flags: W
LayerCount: 2
Fore
SplineSet
0 -63 m 1,0,-1
 545 -63 l 1,1,-1
 545 -154 l 1,2,-1
 0 -154 l 1,3,-1
 0 -63 l 1,0,-1
EndSplineSet
Validated: 1
EndChar

StartChar: uni0015
Encoding: 21 21 22
Width: 545
GlyphClass: 1
Flags: W
LayerCount: 2
Fore
SplineSet
227 800 m 1,0,-1
 318 800 l 1,1,-1
 318 346 l 1,2,-1
 545 346 l 1,3,-1
 545 255 l 1,4,-1
 318 255 l 1,5,-1
 318 -200 l 1,6,-1
 227 -200 l 1,7,-1
 227 800 l 1,0,-1
EndSplineSet
Validated: 1
EndChar

StartChar: uni0016
Encoding: 22 22 23
Width: 545
GlyphClass: 1
Flags: W
LayerCount: 2
Fore
SplineSet
227 800 m 1,0,-1
 318 800 l 1,1,-1
 318 -200 l 1,2,-1
 227 -200 l 1,3,-1
 227 255 l 1,4,-1
 0 255 l 1,5,-1
 0 346 l 1,6,-1
 227 346 l 1,7,-1
 227 800 l 1,0,-1
EndSplineSet
Validated: 1
EndChar

StartChar: uni0017
Encoding: 23 23 24
Width: 545
GlyphClass: 1
Flags: W
LayerCount: 2
Fore
SplineSet
227 800 m 1,0,-1
 318 800 l 1,1,-1
 318 346 l 1,2,-1
 545 346 l 1,3,-1
 545 255 l 1,4,-1
 0 255 l 1,5,-1
 0 346 l 1,6,-1
 227 346 l 1,7,-1
 227 800 l 1,0,-1
EndSplineSet
Validated: 1
EndChar

StartChar: uni0018
Encoding: 24 24 25
Width: 545
GlyphClass: 1
Flags: W
LayerCount: 2
Fore
SplineSet
0 346 m 1,0,-1
 545 346 l 1,1,-1
 545 255 l 1,2,-1
 318 255 l 1,3,-1
 318 -200 l 1,4,-1
 227 -200 l 1,5,-1
 227 255 l 1,6,-1
 0 255 l 1,7,-1
 0 346 l 1,0,-1
EndSplineSet
Validated: 1
EndChar

StartChar: uni0019
Encoding: 25 25 26
Width: 545
GlyphClass: 1
Flags: W
LayerCount: 2
Fore
SplineSet
227 800 m 1,0,-1
 318 800 l 1,1,-1
 318 -200 l 1,2,-1
 227 -200 l 1,3,-1
 227 800 l 1,0,-1
EndSplineSet
Validated: 1
EndChar

StartChar: uni001A
Encoding: 26 26 27
Width: 545
GlyphClass: 1
Flags: W
LayerCount: 2
Fore
SplineSet
45 343 m 1,0,-1
 500 164 l 1,1,-1
 226 345 l 1,2,-1
 226 345 l 5,3,-1
 500 528 l 1,4,-1
 45 343 l 1,0,-1
45 119 m 1,5,-1
 500 119 l 1,6,-1
 500 28 l 1,7,-1
 45 28 l 1,8,-1
 45 119 l 1,5,-1
EndSplineSet
Validated: 5
EndChar

StartChar: uni001B
Encoding: 27 27 28
Width: 545
GlyphClass: 1
Flags: W
LayerCount: 2
Fore
SplineSet
45 528 m 1,0,-1
 318 345 l 1,1,-1
 45 164 l 1,2,-1
 500 341 l 1,3,-1
 45 528 l 1,0,-1
45 119 m 1,4,-1
 500 119 l 1,5,-1
 500 28 l 1,6,-1
 45 28 l 1,7,-1
 45 119 l 1,4,-1
EndSplineSet
Validated: 9
EndChar

StartChar: uni001C
Encoding: 28 28 29
Width: 545
GlyphClass: 1
Flags: W
LayerCount: 2
Fore
SplineSet
90 482 m 1,0,-1
 500 482 l 1,1,-1
 500 437 l 1,2,-1
 454 437 l 1,3,-1
 454 391 l 1,4,-1
 409 391 l 1,5,-1
 409 119 l 1,6,-1
 454 119 l 1,7,-1
 454 28 l 1,8,-1
 363 28 l 1,9,-1
 363 73 l 1,10,-1
 318 73 l 1,11,-1
 318 391 l 1,12,-1
 227 391 l 1,13,-1
 227 210 l 1,14,-1
 181 210 l 1,15,-1
 181 73 l 1,16,-1
 136 73 l 1,17,-1
 136 28 l 1,18,-1
 45 28 l 1,19,-1
 45 73 l 1,20,-1
 90 73 l 1,21,-1
 90 210 l 1,22,-1
 136 210 l 1,23,-1
 136 391 l 1,24,-1
 45 391 l 1,25,-1
 45 437 l 1,26,-1
 90 437 l 1,27,-1
 90 482 l 1,0,-1
EndSplineSet
Validated: 1
EndChar

StartChar: uni001D
Encoding: 29 29 30
Width: 545
GlyphClass: 1
Flags: W
LayerCount: 2
Fore
SplineSet
409 528 m 1,0,-1
 454 528 l 1,1,-1
 454 437 l 1,2,-1
 409 437 l 1,3,-1
 409 391 l 1,4,-1
 454 391 l 1,5,-1
 454 300 l 1,6,-1
 318 300 l 1,7,-1
 318 255 l 1,8,-1
 272 255 l 1,9,-1
 272 210 l 1,10,-1
 454 210 l 1,11,-1
 454 119 l 1,12,-1
 181 119 l 1,13,-1
 181 73 l 1,14,-1
 136 73 l 1,15,-1
 136 28 l 1,16,-1
 90 28 l 1,17,-1
 90 -18 l 1,18,-1
 45 -18 l 1,19,-1
 45 73 l 1,20,-1
 90 73 l 1,21,-1
 90 119 l 1,22,-1
 45 119 l 1,23,-1
 45 210 l 1,24,-1
 181 210 l 1,25,-1
 181 255 l 1,26,-1
 227 255 l 1,27,-1
 227 300 l 1,28,-1
 45 300 l 1,29,-1
 45 391 l 1,30,-1
 318 391 l 1,31,-1
 318 437 l 1,32,-1
 363 437 l 1,33,-1
 363 482 l 1,34,-1
 409 482 l 1,35,-1
 409 528 l 1,0,-1
EndSplineSet
Validated: 1
EndChar

StartChar: uni001E
Encoding: 30 30 31
Width: 545
GlyphClass: 1
Flags: W
LayerCount: 2
Fore
SplineSet
185 369 m 5,0,-1
 192 173 l 5,1,-1
 250 169 l 5,2,3
 250 169 250 169 304 157 c 5,4,5
 304 157 304 157 328 143 c 5,6,-1
 361 97 l 5,7,-1
 408 89 l 5,8,9
 408 89 408 89 445 127 c 5,10,-1
 454 164 l 5,11,-1
 478 164 l 5,12,13
 478 164 478 164 500 164 c 5,14,-1
 500 145 l 5,15,16
 500 145 500 145 490 106 c 5,17,-1
 465 74 l 5,18,-1
 441 44 l 5,19,-1
 405 28 l 5,20,21
 405 28 405 28 367 28 c 5,22,23
 367 28 367 28 317 55 c 5,24,-1
 285 95 l 5,25,-1
 241 114 l 5,26,27
 241 114 241 114 200 113 c 5,28,29
 200 113 200 113 205 74 c 5,30,-1
 165 42 l 5,31,-1
 132 34 l 5,32,33
 132 34 132 34 97 48 c 5,34,-1
 90 75 l 5,35,36
 90 75 90 75 85 108 c 5,37,38
 85 108 85 108 105 148 c 5,39,-1
 123 164 l 5,40,-1
 119 357 l 5,41,-1
 45 346 l 5,42,-1
 45 391 l 5,43,-1
 90 399 l 5,44,-1
 117 404 l 5,45,-1
 112 568 l 5,46,-1
 112 645 l 5,47,-1
 130 695 l 5,48,-1
 156 729 l 5,49,-1
 185 748 l 5,50,-1
 227 755 l 5,51,-1
 259 755 l 5,52,53
 259 755 259 755 281 754 c 5,54,55
 281 754 281 754 303 747 c 5,56,-1
 314 725 l 5,57,58
 314 725 314 725 314 692 c 5,59,-1
 292 702 l 5,60,61
 292 702 292 702 272 710 c 5,62,-1
 234 700 l 5,63,-1
 194 681 l 5,64,65
 194 681 194 681 176 644 c 5,66,-1
 176 598 l 5,67,68
 176 598 176 598 181 414 c 5,69,-1
 318 437 l 5,70,-1
 318 391 l 5,71,-1
 185 369 l 5,0,-1
EndSplineSet
EndChar

StartChar: uni001F
Encoding: 31 31 32
Width: 545
GlyphClass: 1
Flags: W
LayerCount: 2
Fore
SplineSet
227 300 m 1,0,-1
 318 300 l 1,1,-1
 318 210 l 1,2,-1
 227 210 l 1,3,-1
 227 300 l 1,0,-1
EndSplineSet
Validated: 1
EndChar

StartChar: exclam
Encoding: 33 33 34
Width: 545
GlyphClass: 1
Flags: W
LayerCount: 2
Fore
SplineSet
227 710 m 1,0,-1
 318 710 l 1,1,-1
 318 210 l 1,2,-1
 227 210 l 1,3,-1
 227 710 l 1,0,-1
227 119 m 1,4,-1
 318 119 l 1,5,-1
 318 28 l 1,6,-1
 227 28 l 1,7,-1
 227 119 l 1,4,-1
EndSplineSet
Validated: 1
EndChar

StartChar: quotedbl
Encoding: 34 34 35
Width: 545
GlyphClass: 1
Flags: W
LayerCount: 2
Fore
SplineSet
136 710 m 1,0,-1
 227 710 l 1,1,-1
 227 437 l 1,2,-1
 136 437 l 1,3,-1
 136 710 l 1,0,-1
318 710 m 1,4,-1
 409 710 l 1,5,-1
 409 437 l 1,6,-1
 318 437 l 1,7,-1
 318 710 l 1,4,-1
EndSplineSet
Validated: 1
EndChar

StartChar: numbersign
Encoding: 35 35 36
Width: 545
GlyphClass: 1
Flags: W
LayerCount: 2
Fore
SplineSet
115 28 m 1,0,-1
 184 28 l 1,1,-1
 225 165 l 1,2,-1
 338 165 l 1,3,-1
 294 28 l 1,4,-1
 370 28 l 1,5,-1
 407 164 l 1,6,-1
 449 163 l 1,7,-1
 472 254 l 1,8,-1
 428 253 l 1,9,-1
 476 437 l 1,10,-1
 526 437 l 1,11,-1
 545 528 l 1,12,-1
 500 528 l 1,13,-1
 545 710 l 1,14,-1
 476 710 l 1,15,-1
 426 527 l 1,16,-1
 318 528 l 1,17,-1
 363 710 l 1,18,-1
 298 710 l 1,19,-1
 250 528 l 1,20,-1
 169 529 l 1,21,-1
 144 437 l 1,22,-1
 222 437 l 1,23,-1
 176 253 l 1,24,-1
 113 254 l 1,25,-1
 85 166 l 5,26,-1
 154 167 l 1,27,-1
 115 28 l 1,0,-1
294 437 m 1,28,-1
 404 436 l 1,29,-1
 355 255 l 1,30,-1
 247 256 l 1,31,-1
 294 437 l 1,28,-1
EndSplineSet
Validated: 9
EndChar

StartChar: dollar
Encoding: 36 36 37
Width: 545
GlyphClass: 1
Flags: W
LayerCount: 2
Fore
SplineSet
227 710 m 1,0,-1
 318 710 l 1,1,-1
 318 664 l 1,2,-1
 382 656 l 1,3,-1
 422 644 l 1,4,-1
 454 619 l 1,5,-1
 470 600 l 1,6,-1
 488 578 l 1,7,-1
 500 530 l 1,8,9
 500 530 500 530 492 496 c 1,10,-1
 462 482 l 1,11,12
 462 482 462 482 424 490 c 1,13,-1
 410 514 l 1,14,-1
 388 542 l 1,15,-1
 368 560 l 1,16,-1
 318 573 l 1,17,-1
 318 407 l 1,18,-1
 402 386 l 1,19,-1
 434 364 l 1,20,-1
 454 346 l 1,21,-1
 483 317 l 1,22,-1
 499 255 l 1,23,-1
 494 181 l 1,24,-1
 473 143 l 1,25,-1
 454 119 l 1,26,-1
 433 96 l 1,27,-1
 379 75 l 1,28,-1
 318 73 l 1,29,-1
 318 28 l 1,30,-1
 227 28 l 1,31,-1
 227 73 l 1,32,-1
 163 73 l 1,33,34
 163 73 163 73 109 85 c 1,35,-1
 75 103 l 1,36,-1
 47 129 l 1,37,-1
 23 163 l 1,38,39
 23 163 23 163 21 202 c 1,40,41
 21 202 21 202 41 229 c 1,42,43
 41 229 41 229 67 229 c 1,44,-1
 85 217 l 1,45,46
 85 212.647058824 85 212.647058824 109 183 c 1,47,-1
 132 170 l 1,48,49
 132 170 132 170 164 158 c 1,50,-1
 191 158 l 1,51,52
 191 158 191 158 226 157 c 1,53,-1
 226 334 l 1,54,-1
 174 356 l 1,55,-1
 134 372 l 1,56,-1
 104 392 l 1,57,-1
 76 414 l 1,58,-1
 50 450 l 1,59,-1
 45 506 l 1,60,61
 45 506 45 506 56 564 c 1,62,-1
 74 598 l 1,63,-1
 90 619 l 1,64,-1
 124 650 l 1,65,-1
 162 662 l 1,66,-1
 227 664 l 1,67,-1
 227 710 l 1,0,-1
164 564 m 1,68,-1
 146.074074074 544 l 1,69,70
 146.074074074 544 146.074074074 544 136 510 c 1,71,72
 136 510 136 510 139.61328125 482 c 1,73,74
 139.61328125 482 139.61328125 482 150 460 c 1,75,-1
 176 440 l 1,76,77
 176 440 176 440 226 424 c 1,78,-1
 227 573 l 1,79,-1
 196 572 l 1,80,81
 196 572 196 572 164 564 c 1,68,-1
317 314 m 1,82,-1
 320 159 l 1,83,-1
 351 163 l 1,84,85
 351 163 351 163 384 170 c 1,86,-1
 412 197 l 1,87,88
 412 197 412 197 424 229 c 1,89,90
 424 229 424 229 413 269 c 1,91,92
 413 269 413 269 383 297 c 1,93,-1
 351 307 l 1,94,95
 351 307 351 307 317 314 c 1,82,-1
EndSplineSet
EndChar

StartChar: percent
Encoding: 37 37 38
Width: 545
GlyphClass: 1
Flags: W
LayerCount: 2
Fore
SplineSet
348 258 m 5,0,-1
 394 262 l 5,1,2
 394 262 394 262 436 258 c 5,3,-1
 484 242 l 5,4,-1
 506 204 l 5,5,-1
 510 154 l 5,6,7
 510 154 510 154 506 94 c 5,8,-1
 486 62 l 5,9,-1
 446 36 l 5,10,-1
 394 34 l 5,11,12
 394 34 394 34 340 40 c 5,13,-1
 318 54 l 5,14,-1
 298 76 l 5,15,-1
 286 112 l 5,16,17
 286 112 286 112 292 174 c 5,18,-1
 308 222 l 5,19,-1
 348 258 l 5,0,-1
346 216 m 5,20,-1
 328 146 l 5,21,22
 328 146 328 146 340 94 c 5,23,-1
 384 68 l 5,24,25
 384 68 384 68 448 80 c 5,26,-1
 462 136 l 5,27,28
 462 136 462 136 454 192 c 5,29,-1
 414 222 l 5,30,31
 414 222 414 222 346 216 c 5,20,-1
110 706 m 1,32,-1
 156 710 l 1,33,34
 156 710 156 710 198 706 c 1,35,-1
 246 690 l 1,36,-1
 268 652 l 1,37,-1
 272 602 l 1,38,39
 272 602 272 602 268 542 c 1,40,-1
 248 510 l 1,41,-1
 208 484 l 1,42,-1
 156 482 l 1,43,44
 156 482 156 482 102 488 c 1,45,-1
 80 502 l 1,46,-1
 60 524 l 1,47,-1
 48 560 l 1,48,49
 48 560 48 560 54 622 c 1,50,-1
 70 670 l 1,51,-1
 110 706 l 1,32,-1
45 73 m 1,52,-1
 45 28 l 1,53,-1
 136 28 l 1,54,-1
 500 664 l 1,55,-1
 500 710 l 1,56,-1
 409 710 l 1,57,-1
 45 73 l 1,52,-1
108 664 m 1,58,-1
 90 594 l 1,59,60
 90 594 90 594 102 542 c 1,61,-1
 146 516 l 1,62,63
 146 516 146 516 210 528 c 1,64,-1
 224 584 l 1,65,66
 224 584 224 584 216 640 c 1,67,-1
 176 670 l 1,68,69
 176 670 176 670 108 664 c 1,58,-1
EndSplineSet
Validated: 9
EndChar

StartChar: ampersand
Encoding: 38 38 39
Width: 545
GlyphClass: 1
Flags: W
LayerCount: 2
Fore
SplineSet
278 716 m 1,0,-1
 340 706 l 1,1,-1
 378 680 l 1,2,-1
 406 650 l 1,3,-1
 428 626 l 1,4,-1
 442 572 l 1,5,-1
 436 520 l 1,6,-1
 409 482 l 1,7,-1
 374 456 l 1,8,-1
 318 437 l 1,9,-1
 340 374 l 1,10,-1
 358 308 l 1,11,-1
 376 226 l 1,12,-1
 409 255 l 1,13,-1
 448 292 l 1,14,-1
 488 332 l 1,15,-1
 516 290 l 1,16,-1
 484 248 l 1,17,-1
 440 200 l 1,18,-1
 388 138 l 1,19,-1
 409 119 l 1,20,-1
 448 106 l 1,21,-1
 492 82 l 1,22,23
 492 82 492 82 458 26 c 1,24,-1
 426 52 l 1,25,-1
 384 72 l 1,26,-1
 348 72.5454545455 l 1,27,28
 348 72.5454545455 348 72.5454545455 330 56 c 1,29,-1
 290 40 l 1,30,-1
 240 28 l 1,31,32
 240 28 240 28 162 34 c 1,33,-1
 120 50 l 1,34,-1
 90 73 l 1,35,-1
 66 100 l 1,36,-1
 40 174 l 1,37,-1
 36 244 l 1,38,-1
 56 304 l 1,39,40
 56 304 56 304 86 358 c 1,41,-1
 108 384 l 1,42,-1
 138 414 l 1,43,-1
 158 432 l 1,44,-1
 190 454 l 1,45,-1
 156 476 l 1,46,-1
 136 546 l 1,47,-1
 136 619 l 1,48,-1
 162 660 l 1,49,-1
 186 694 l 1,50,-1
 220 710 l 1,51,-1
 278 716 l 1,0,-1
227 619 m 1,52,-1
 208 564 l 1,53,54
 208 564 208 564 220 520 c 1,55,-1
 258 482 l 1,56,57
 258 482 258 482 288 482 c 1,58,59
 288 482 288 482 350 502 c 1,60,-1
 363 568 l 1,61,62
 363 568 363 568 352 610 c 1,63,-1
 322 636 l 1,64,65
 322 636 322 636 276 640 c 1,66,67
 276 640 276 640 227 619 c 1,52,-1
198 364 m 1,68,-1
 150 328 l 1,69,-1
 124 276 l 1,70,-1
 120 216 l 1,71,72
 120 216 120 216 124 162 c 1,73,74
 124 162 124 162 160 106 c 1,75,-1
 230 94 l 1,76,77
 230 94 230 94 282 118 c 1,78,79
 282 118 282 118 306 140 c 1,80,-1
 314 172 l 1,81,82
 314 172 314 172 310 228 c 1,83,-1
 298 284 l 1,84,-1
 284 334 l 1,85,-1
 270 358 l 1,86,-1
 248 402 l 1,87,-1
 198 364 l 1,68,-1
EndSplineSet
Validated: 1
EndChar

StartChar: quotesingle
Encoding: 39 39 40
Width: 545
GlyphClass: 1
Flags: W
LayerCount: 2
Fore
SplineSet
181 710 m 5,0,-1
 226 710 l 5,1,2
 226 710 226 710 272 710 c 5,3,-1
 302 678 l 5,4,-1
 314 628 l 5,5,-1
 318 562 l 5,6,7
 318 562 318 562 300 528 c 5,8,-1
 272 482 l 5,9,-1
 242 446 l 5,10,-1
 218 420 l 5,11,-1
 202 402 l 5,12,-1
 170 374 l 5,13,-1
 136 346 l 5,14,-1
 136 346 l 5,15,-1
 152 424 l 5,16,-1
 188 460 l 5,17,-1
 210 496 l 5,18,-1
 222 526 l 5,19,-1
 226 556 l 5,20,-1
 208 573 l 5,21,22
 208 573 208 573 156 580 c 5,23,-1
 136 614 l 5,24,25
 136 614 136 614 132 664 c 5,26,-1
 148 690 l 5,27,-1
 181 710 l 5,0,-1
EndSplineSet
Validated: 5
EndChar

StartChar: parenleft
Encoding: 40 40 41
Width: 545
GlyphClass: 1
Flags: W
LayerCount: 2
Fore
SplineSet
378 694 m 5,0,-1
 454 710 l 5,1,-1
 409 664 l 5,2,-1
 409 664 l 5,3,-1
 363 573 l 5,4,-1
 363 573 l 5,5,-1
 340 526 l 5,6,-1
 324 454 l 5,7,-1
 318 372 l 5,8,9
 318 372 318 372 326 230 c 5,10,-1
 338 180 l 5,11,-1
 358 140 l 5,12,-1
 380 108 l 5,13,-1
 409 73 l 5,14,-1
 454 28 l 5,15,-1
 454 28 l 5,16,-1
 396 32 l 5,17,-1
 368 38 l 5,18,-1
 346 50 l 5,19,-1
 316 70 l 5,20,-1
 290 98 l 5,21,-1
 246 182 l 5,22,-1
 230 244 l 5,23,-1
 227 366 l 5,24,25
 227 366 227 366 236 488 c 5,26,-1
 258 564 l 5,27,-1
 284 620 l 5,28,-1
 298 642 l 5,29,-1
 318 664 l 5,30,-1
 344 678 l 5,31,-1
 378 694 l 5,0,-1
EndSplineSet
Validated: 5
EndChar

StartChar: parenright
Encoding: 41 41 42
Width: 545
GlyphClass: 1
Flags: W
LayerCount: 2
Fore
SplineSet
139 702 m 5,0,-1
 63 718 l 5,1,-1
 108 672 l 5,2,-1
 108 672 l 5,3,-1
 154 581 l 5,4,-1
 154 581 l 5,5,-1
 177 534 l 5,6,-1
 193 462 l 5,7,-1
 199 380 l 5,8,9
 199 380 199 380 191 238 c 5,10,-1
 179 188 l 5,11,-1
 159 148 l 5,12,-1
 137 116 l 5,13,-1
 108 81 l 5,14,-1
 63 36 l 5,15,-1
 63 36 l 5,16,-1
 121 40 l 5,17,-1
 149 46 l 5,18,-1
 171 58 l 5,19,-1
 201 78 l 5,20,-1
 227 106 l 5,21,-1
 271 190 l 5,22,-1
 287 252 l 5,23,-1
 290 374 l 5,24,25
 290 374 290 374 281 496 c 5,26,-1
 259 572 l 5,27,-1
 233 628 l 5,28,-1
 219 650 l 5,29,-1
 199 672 l 5,30,-1
 173 686 l 5,31,-1
 139 702 l 5,0,-1
EndSplineSet
Validated: 5
EndChar

StartChar: asterisk
Encoding: 42 42 43
Width: 545
GlyphClass: 1
Flags: W
LayerCount: 2
Fore
SplineSet
164 212 m 21,0,-1
 142 186 l 5,1,-1
 118 160 l 5,2,-1
 82 148 l 5,3,4
 82 148 82 148 45 159 c 5,5,-1
 32 202 l 5,6,7
 32 202 32 202 48 234 c 5,8,-1
 74 256 l 5,9,10
 74 256 74 256 112 268 c 5,11,-1
 208 258 l 5,12,-1
 164 212 l 21,0,-1
318 114 m 5,13,-1
 363 114 l 5,14,-1
 363 68 l 5,15,-1
 181 68 l 5,16,-1
 181 114 l 5,17,-1
 227 114 l 5,18,-1
 227 250 l 5,19,-1
 318 250 l 29,20,-1
 318 114 l 5,13,-1
382 212 m 21,21,-1
 404 186 l 5,22,-1
 428 160 l 5,23,-1
 464 148 l 5,24,25
 464 148 464 148 501 159 c 5,26,-1
 514 202 l 5,27,28
 514 202 514 202 498 234 c 5,29,-1
 472 256 l 5,30,31
 472 256 472 256 434 268 c 5,32,-1
 338 258 l 5,33,-1
 382 212 l 21,21,-1
164 384 m 17,34,-1
 142 410 l 1,35,-1
 118 436 l 1,36,-1
 82 448 l 1,37,38
 82 448 82 448 45 437 c 1,39,-1
 32 394 l 1,40,41
 32 394 32 394 48 362 c 1,42,-1
 74 340 l 1,43,44
 74 340 74 340 112 328 c 1,45,-1
 208 338 l 1,46,-1
 164 384 l 17,34,-1
318 482 m 1,47,-1
 363 482 l 1,48,-1
 363 528 l 1,49,-1
 181 528 l 1,50,-1
 181 482 l 1,51,-1
 227 482 l 1,52,-1
 227 346 l 1,53,-1
 318 346 l 25,54,-1
 318 482 l 1,47,-1
382 384 m 17,55,-1
 404 410 l 1,56,-1
 428 436 l 1,57,-1
 464 448 l 1,58,59
 464 448 464 448 501 437 c 1,60,-1
 514 394 l 1,61,62
 514 394 514 394 498 362 c 1,63,-1
 472 340 l 1,64,65
 472 340 472 340 434 328 c 1,66,-1
 338 338 l 1,67,-1
 382 384 l 17,55,-1
EndSplineSet
Validated: 9
EndChar

StartChar: plus
Encoding: 43 43 44
Width: 545
GlyphClass: 1
Flags: W
LayerCount: 2
Fore
SplineSet
227 482 m 1,0,-1
 318 482 l 1,1,-1
 318 300 l 1,2,-1
 500 300 l 1,3,-1
 500 210 l 1,4,-1
 318 210 l 1,5,-1
 318 28 l 1,6,-1
 227 28 l 1,7,-1
 227 210 l 1,8,-1
 45 210 l 1,9,-1
 45 300 l 1,10,-1
 227 300 l 1,11,-1
 227 482 l 1,0,-1
EndSplineSet
Validated: 1
EndChar

StartChar: comma
Encoding: 44 44 45
Width: 545
GlyphClass: 1
Flags: W
LayerCount: 2
Fore
SplineSet
213 210 m 5,0,-1
 258 210 l 5,1,2
 258 210 258 210 304 210 c 5,3,-1
 334 178 l 5,4,-1
 346 128 l 5,5,-1
 350 62 l 5,6,7
 350 62 350 62 332 28 c 5,8,-1
 304 -18 l 5,9,-1
 274 -54 l 5,10,-1
 250 -80 l 5,11,-1
 234 -98 l 5,12,-1
 202 -126 l 5,13,-1
 168 -154 l 5,14,-1
 168 -154 l 5,15,-1
 184 -76 l 5,16,-1
 220 -40 l 5,17,-1
 242 -4 l 5,18,-1
 254 26 l 5,19,-1
 258 56 l 5,20,-1
 240 73 l 5,21,22
 240 73 240 73 188 80 c 5,23,-1
 168 114 l 5,24,25
 168 114 168 114 164 164 c 5,26,-1
 180 190 l 5,27,-1
 213 210 l 5,0,-1
EndSplineSet
Validated: 5
EndChar

StartChar: hyphen
Encoding: 45 45 46
Width: 545
GlyphClass: 1
Flags: W
LayerCount: 2
Fore
SplineSet
45 300 m 1,0,-1
 500 300 l 1,1,-1
 500 210 l 1,2,-1
 45 210 l 1,3,-1
 45 300 l 1,0,-1
EndSplineSet
Validated: 1
EndChar

StartChar: period
Encoding: 46 46 47
Width: 545
GlyphClass: 1
Flags: W
LayerCount: 2
Fore
SplineSet
222 210 m 1,0,-1
 272 164 l 5,1,-1
 272 164 l 1,2,-1
 272 164 l 1,3,-1
 318 116 l 1,4,-1
 272 73 l 1,5,-1
 272 73 l 1,6,-1
 228 28 l 1,7,-1
 181 73 l 1,8,-1
 181 73 l 1,9,-1
 134 116 l 1,10,-1
 181 164 l 1,11,-1
 222 210 l 1,0,-1
EndSplineSet
Validated: 5
EndChar

StartChar: slash
Encoding: 47 47 48
Width: 545
GlyphClass: 1
Flags: W
LayerCount: 2
Fore
SplineSet
500 664 m 5,0,-1
 500 710 l 1,1,-1
 409 710 l 1,2,-1
 45 73 l 1,3,-1
 45 28 l 1,4,-1
 136 28 l 1,5,-1
 500 664 l 5,0,-1
EndSplineSet
Validated: 9
EndChar

StartChar: zero
Encoding: 48 48 49
Width: 545
GlyphClass: 1
Flags: W
LayerCount: 2
Fore
SplineSet
234 702 m 1,0,-1
 295 710 l 1,1,2
 295 710 295 710 355 701 c 1,3,-1
 392 680 l 1,4,-1
 427 650 l 1,5,-1
 448 611 l 1,6,7
 448 611 448 611 454 573 c 1,8,-1
 454 573 l 1,9,-1
 454 298 l 1,10,-1
 434 164 l 1,11,-1
 409 119 l 1,12,-1
 386 90 l 1,13,-1
 364 70 l 1,14,-1
 334 52 l 1,15,-1
 300 34 l 1,16,-1
 255 28 l 1,17,18
 255 28 255 28 205 35 c 1,19,-1
 154 63 l 1,20,-1
 120 104 l 1,21,-1
 97 142 l 1,22,-1
 90 164 l 1,23,-1
 90 472 l 1,24,-1
 101 544 l 1,25,-1
 120 604 l 1,26,-1
 146 640 l 1,27,-1
 166 662 l 1,28,-1
 202 688 l 1,29,-1
 234 702 l 1,0,-1
377 226 m 5,30,31
 377 374 377 374 377 522 c 5,32,33
 354 575 354 575 336 589 c 5,34,35
 336 589 336 589 293 611 c 5,36,-1
 230 619 l 5,37,38
 230 619 230 619 198 597 c 5,39,-1
 181 530 l 5,40,41
 181 530 181 530 180 245 c 5,42,-1
 196 186 l 5,43,-1
 252 135 l 5,44,-1
 315 119 l 5,45,46
 358 137 358 137 358 137 c 133,-1,47
 358 137 358 137 377 226 c 5,30,31
EndSplineSet
Validated: 5
EndChar

StartChar: one
Encoding: 49 49 50
Width: 545
GlyphClass: 1
Flags: W
LayerCount: 2
Fore
SplineSet
102 518 m 1,0,-1
 70 481 l 1,1,-1
 131 481 l 5,2,-1
 176 527 l 1,3,4
 176 527 176 527 227 528 c 1,5,-1
 227 528 l 1,6,-1
 227 73 l 1,7,-1
 90 73 l 1,8,-1
 90 28 l 1,9,-1
 454 28 l 1,10,-1
 454 73 l 1,11,-1
 318 73 l 1,12,-1
 318 710 l 1,13,-1
 272 710 l 1,14,-1
 102 518 l 1,0,-1
EndSplineSet
Validated: 5
EndChar

StartChar: two
Encoding: 50 50 51
Width: 545
GlyphClass: 1
Flags: W
LayerCount: 2
Fore
SplineSet
168 703 m 1,0,-1
 240 710 l 1,1,2
 240 710 240 710 320 699 c 1,3,-1
 362 677 l 1,4,-1
 386 655 l 1,5,-1
 412 631 l 1,6,-1
 442 579 l 1,7,-1
 454 501 l 1,8,9
 454 501 454 501 438 413 c 1,10,-1
 416 379 l 1,11,-1
 398 353 l 1,12,-1
 398 353 l 1,13,-1
 398 353 l 1,14,-1
 398 353 l 1,15,-1
 398 353 l 1,16,-1
 398 353 l 1,17,-1
 398 353 l 1,18,-1
 398 353 l 1,19,-1
 398 353 l 5,20,-1
 210 175 l 1,21,-1
 158 119 l 1,22,-1
 454 119 l 1,23,-1
 454 164 l 1,24,-1
 500 164 l 1,25,-1
 500 28 l 1,26,-1
 45 28 l 1,27,-1
 46 105 l 1,28,-1
 46 105 l 1,29,-1
 46 105 l 1,30,-1
 46 105 l 1,31,-1
 46 105 l 1,32,-1
 46 105 l 1,33,-1
 46 105 l 1,34,-1
 46 105 l 1,35,-1
 46 105 l 1,36,-1
 46 105 l 1,37,-1
 46 105 l 1,38,-1
 46 105 l 1,39,-1
 46 105 l 1,40,-1
 338 399 l 1,41,-1
 362 461 l 1,42,43
 362 461 362 461 366 531 c 1,44,-1
 334 581 l 1,45,-1
 298 607 l 1,46,-1
 218 619 l 1,47,48
 218 619 218 619 154 609 c 1,49,-1
 116 589 l 1,50,-1
 94 561 l 1,51,-1
 90 528 l 1,52,-1
 45 528 l 1,53,-1
 52 591 l 1,54,-1
 68 631 l 1,55,-1
 90 664 l 1,56,-1
 120 689 l 1,57,-1
 168 703 l 1,0,-1
EndSplineSet
Validated: 5
EndChar

StartChar: three
Encoding: 51 51 52
Width: 545
GlyphClass: 1
Flags: W
LayerCount: 2
Fore
SplineSet
494 277 m 1,0,-1
 472 329 l 1,1,-1
 426 361 l 1,2,-1
 388 379 l 1,3,4
 436 405.222222222 436 405.222222222 436 405.222222222 c 1,5,6
 466 433 466 433 466 433 c 1,7,8
 496.392578125 497 496.392578125 497 496.392578125 497 c 1,9,10
 495.076923077 567 495.076923077 567 495.076923077 567 c 129,-1,11
 495.076923077 567 495.076923077 567 492 587 c 1,12,-1
 476 623 l 1,13,-1
 454 653 l 1,14,-1
 418 677 l 1,15,-1
 364 703 l 1,16,-1
 294 710 l 1,17,18
 294 710 294 710 228 705 c 1,19,-1
 174 681 l 1,20,-1
 136 655 l 1,21,-1
 116 633 l 1,22,-1
 72 579 l 1,23,-1
 45 528 l 1,24,-1
 45 528 l 1,25,-1
 45 528 l 1,26,-1
 90 528 l 1,27,-1
 128 577 l 1,28,-1
 128 577 l 1,29,-1
 178 603 l 5,30,-1
 256 619 l 1,31,32
 256 619 256 619 330 617 c 1,33,-1
 384 603 l 1,34,-1
 409 573 l 1,35,-1
 422 525 l 1,36,37
 422 525 422 525 409 482 c 1,38,-1
 392 457 l 1,39,-1
 363 437 l 1,40,-1
 363 437 l 1,41,-1
 308 405 l 1,42,-1
 178 379 l 1,43,-1
 181 346 l 1,44,-1
 288 341 l 1,45,-1
 354 329 l 1,46,-1
 394 307 l 1,47,-1
 409 259 l 1,48,49
 409 215 409 215 409 215 c 1,50,51
 396 161 396 161 396 161 c 129,-1,52
 396 161 396 161 346 125 c 1,53,-1
 276 119 l 1,54,55
 276 119 276 119 158 137 c 1,56,-1
 124 149 l 1,57,-1
 96 175 l 1,58,-1
 72 211 l 1,59,-1
 45 210 l 1,60,-1
 56 155 l 1,61,-1
 72 115 l 1,62,-1
 98 85 l 1,63,-1
 130 61 l 1,64,-1
 172 41 l 1,65,-1
 248 28 l 1,66,67
 248 28 248 28 350 27 c 1,68,-1
 396 49 l 1,69,-1
 426 69 l 1,70,-1
 450 95 l 1,71,-1
 470 119 l 1,72,-1
 492 147 l 1,73,-1
 494 277 l 1,0,-1
484 473 m 1049,74,-1
EndSplineSet
Validated: 5
EndChar

StartChar: four
Encoding: 52 52 53
Width: 545
GlyphClass: 1
Flags: W
LayerCount: 2
Fore
SplineSet
318 710 m 1,0,-1
 409 710 l 1,1,-1
 409 255 l 1,2,-1
 500 255 l 1,3,-1
 500 164 l 1,4,-1
 409 164 l 1,5,-1
 409 28 l 1,6,-1
 318 28 l 1,7,-1
 318 164 l 1,8,-1
 36 164 l 1,9,-1
 36 164 l 1,10,-1
 70 234 l 1,11,-1
 70 234 l 1,12,-1
 116 324 l 1,13,-1
 116 324 l 1,14,-1
 163 414 l 1,15,-1
 163 414 l 1,16,-1
 206 508 l 1,17,-1
 206 508 l 1,18,-1
 254 600 l 1,19,-1
 254 600 l 1,20,-1
 318 710 l 1,21,-1
 318 710 l 1,0,-1
318 573 m 1,22,-1
 272 482 l 1,23,-1
 227 391 l 1,24,-1
 227 391 l 1,25,-1
 181 300 l 1,26,-1
 181 300 l 1,27,-1
 158 255 l 1,28,-1
 158 255 l 5,29,-1
 318 255 l 1,30,-1
 318 573 l 1,31,-1
 318 573 l 1,22,-1
EndSplineSet
Validated: 5
EndChar

StartChar: five
Encoding: 53 53 54
Width: 545
GlyphClass: 1
Flags: W
LayerCount: 2
Fore
SplineSet
192 712 m 1,0,-1
 454 710 l 1,1,-1
 454 619 l 1,2,-1
 200 618 l 1,3,-1
 178 546 l 1,4,-1
 160 482 l 1,5,-1
 160 482 l 1,6,-1
 224 496 l 1,7,8
 224 496 224 496 290 500 c 1,9,10
 290 500 290 500 358 496 c 1,11,12
 358 496 358 496 409 482 c 1,13,-1
 436 462 l 1,14,-1
 464 436 l 1,15,-1
 480 414 l 5,16,-1
 494 372 l 1,17,-1
 504 324 l 1,18,19
 504 324 504 324 508 270 c 1,20,21
 508 270 508 270 506 216 c 1,22,23
 506 216 506 216 494 144 c 1,24,-1
 482 112 l 1,25,-1
 462 84 l 1,26,-1
 426 62 l 1,27,-1
 374 38 l 1,28,-1
 270 28 l 1,29,30
 270 28 270 28 184 38 c 1,31,-1
 118 54 l 1,32,-1
 118 54 l 1,33,-1
 86 88 l 1,34,-1
 66 124 l 1,35,-1
 45 210 l 1,36,-1
 76 206 l 1,37,-1
 76 206 l 1,38,-1
 84 192 l 1,39,-1
 98 152 l 1,40,-1
 128 108 l 1,41,-1
 180 84 l 1,42,-1
 272 73 l 1,43,44
 272 73 272 73 320 76 c 1,45,-1
 358 86 l 1,46,-1
 394 120 l 1,47,-1
 416 168 l 1,48,49
 416 168 416 168 422 272 c 1,50,51
 422 272 422 272 409 346 c 1,52,-1
 409 346 l 1,53,-1
 378 400 l 1,54,-1
 378 400 l 1,55,-1
 332 432 l 1,56,-1
 270 446 l 1,57,58
 270 446 270 446 181 437 c 1,59,-1
 144 420 l 1,60,-1
 90 391 l 1,61,-1
 90 438 l 1,62,-1
 122 520 l 1,63,-1
 162 628 l 1,64,-1
 192 712 l 1,65,-1
 192 712 l 1,0,-1
EndSplineSet
Validated: 5
EndChar

StartChar: six
Encoding: 54 54 55
Width: 545
GlyphClass: 1
Flags: W
LayerCount: 2
Fore
SplineSet
266 700 m 1,0,-1
 363 710 l 1,1,-1
 300 670 l 1,2,-1
 270 660 l 1,3,-1
 244 646 l 1,4,-1
 226 628 l 1,5,-1
 200 598 l 1,6,-1
 181 573 l 1,7,-1
 162 526 l 1,8,-1
 150 466 l 1,9,-1
 136 346 l 1,10,-1
 166 384 l 1,11,-1
 194 416 l 1,12,-1
 242 430 l 1,13,-1
 328 434 l 1,14,-1
 380 430 l 1,15,-1
 418 414 l 1,16,-1
 454 391 l 1,17,-1
 482 368 l 1,18,-1
 508 306 l 1,19,-1
 508 240 l 1,20,-1
 496 166 l 1,21,-1
 476 132 l 1,22,-1
 460 102 l 1,23,-1
 442 84 l 1,24,-1
 402 48 l 1,25,-1
 363 28 l 1,26,-1
 252 22 l 1,27,-1
 158 26 l 1,28,-1
 106 54 l 1,29,-1
 64 86 l 1,30,-1
 36 170 l 1,31,-1
 36 330 l 1,32,-1
 46 418 l 1,33,-1
 60 500 l 1,34,-1
 86 556 l 1,35,-1
 122 604 l 1,36,-1
 152 636 l 1,37,-1
 181 664 l 1,38,-1
 210 678 l 1,39,-1
 266 700 l 1,0,-1
272 358 m 1,40,-1
 194 348 l 1,41,42
 194 348 194 348 162 320 c 1,43,-1
 138 286 l 1,44,-1
 136 220 l 1,45,-1
 150 158 l 1,46,-1
 181 119 l 1,47,-1
 232 108 l 1,48,49
 232 108 232 108 338 106 c 1,50,51
 338 106 338 106 392 126 c 5,52,-1
 426 168 l 1,53,54
 426 168 426 168 434 204 c 1,55,56
 434 204 434 204 430 266 c 1,57,-1
 392 310 l 1,58,-1
 344 352 l 1,59,-1
 272 358 l 1,40,-1
EndSplineSet
Validated: 1
EndChar

StartChar: seven
Encoding: 55 55 56
Width: 545
GlyphClass: 1
Flags: W
LayerCount: 2
Fore
SplineSet
45 619 m 5,0,-1
 45 573 l 1,1,-1
 136 573 l 1,2,-1
 148 620 l 1,3,-1
 409 619 l 1,4,-1
 409 528 l 1,5,-1
 227 119 l 1,6,-1
 227 28 l 1,7,-1
 272 28 l 1,8,-1
 484 552 l 1,9,-1
 500 619 l 1,10,-1
 500 710 l 1,11,-1
 136 710 l 1,12,-1
 45 619 l 5,0,-1
EndSplineSet
Validated: 9
EndChar

StartChar: eight
Encoding: 56 56 57
Width: 545
GlyphClass: 1
Flags: W
LayerCount: 2
Fore
SplineSet
210 706 m 1,0,-1
 264 710 l 1,1,2
 264 710 264 710 322 702 c 1,3,-1
 370 680 l 1,4,-1
 388 670 l 1,5,-1
 418 652 l 1,6,-1
 438 616 l 1,7,-1
 454 554 l 1,8,9
 454 554 454 554 454 482 c 1,10,-1
 436 446 l 1,11,-1
 416 424 l 1,12,-1
 386 400 l 1,13,-1
 363 391 l 1,14,-1
 342 376 l 1,15,-1
 326 370 l 1,16,-1
 363 346 l 1,17,-1
 398 316 l 1,18,-1
 422 292 l 1,19,-1
 444 274 l 1,20,-1
 458 230 l 1,21,-1
 466 182 l 1,22,23
 466 182 466 182 454 119 c 1,24,-1
 428 88 l 1,25,-1
 409 73 l 1,26,-1
 378 48 l 1,27,-1
 338 36 l 1,28,-1
 266 28 l 1,29,30
 266 28 266 28 186 46 c 1,31,-1
 158 62 l 1,32,-1
 136 73 l 1,33,-1
 110 96 l 1,34,-1
 90 119 l 1,35,-1
 78 194 l 1,36,37
 78 194 78 194 90 255 c 1,38,-1
 110 292 l 1,39,-1
 128 314 l 1,40,-1
 144 330 l 1,41,-1
 174 348 l 1,42,-1
 200 368 l 1,43,-1
 227 391 l 1,44,-1
 190 402 l 1,45,-1
 162 418 l 1,46,-1
 136 437 l 1,47,-1
 112 460 l 1,48,-1
 94 502 l 1,49,-1
 90 552 l 1,50,51
 90 552 90 552 96 600 c 1,52,-1
 118 638 l 1,53,-1
 136 664 l 1,54,-1
 164 686 l 1,55,-1
 210 706 l 1,0,-1
206 650 m 5,56,-1
 184 622 l 1,57,58
 184 622 184 622 180 550 c 1,59,60
 180 550 180 550 194 496 c 1,61,-1
 202 464 l 1,62,-1
 227 437 l 1,63,-1
 252 420 l 1,64,-1
 282 402 l 1,65,-1
 314 406 l 1,66,-1
 334 426 l 1,67,-1
 356 486 l 1,68,-1
 363 542 l 1,69,70
 363 542 363 542 348 616 c 1,71,-1
 320 646 l 1,72,-1
 284 660 l 1,73,-1
 246 664 l 1,74,75
 246 664 246 664 206 650 c 5,56,-1
244 340 m 1,76,-1
 202 322 l 1,77,-1
 181 300 l 1,78,-1
 172 216 l 1,79,80
 172 216 172 216 186 134 c 1,81,-1
 200 100 l 1,82,-1
 227 73 l 1,83,-1
 298 73 l 1,84,85
 298 73 298 73 364 114 c 1,86,-1
 380 182 l 1,87,88
 380 182 380 182 363 255 c 1,89,-1
 348 282 l 1,90,-1
 334 310 l 1,91,-1
 306 332 l 1,92,-1
 272 346 l 1,93,-1
 244 340 l 1,76,-1
EndSplineSet
Validated: 1
EndChar

StartChar: nine
Encoding: 57 57 58
Width: 545
GlyphClass: 1
Flags: W
LayerCount: 2
Fore
SplineSet
234 712 m 1,0,-1
 290 716 l 1,1,2
 290 716 290 716 350 708 c 1,3,-1
 414 682 l 1,4,-1
 442 650 l 1,5,-1
 464 614 l 1,6,-1
 482 560 l 1,7,-1
 489.908196721 426 l 1,8,9
 489.908196721 426 489.908196721 426 472 288 c 1,10,-1
 452 218 l 1,11,-1
 432 178 l 1,12,-1
 416 150 l 1,13,-1
 398 122 l 1,14,-1
 372 96 l 1,15,-1
 336 70 l 1,16,-1
 300 54 l 1,17,-1
 156 32 l 1,18,-1
 90 28 l 1,19,-1
 227 73 l 1,20,-1
 227 73 l 1,21,-1
 276 94 l 1,22,-1
 308 118 l 1,23,-1
 340 154 l 1,24,-1
 356 182 l 1,25,-1
 380 246 l 1,26,-1
 400 298 l 1,27,-1
 409 391 l 1,28,-1
 384 358 l 1,29,-1
 358 332 l 1,30,-1
 332 314 l 1,31,-1
 280 300 l 1,32,-1
 184 304 l 1,33,-1
 130 324 l 1,34,-1
 96 354 l 1,35,-1
 66 408 l 1,36,-1
 56 482 l 1,37,-1
 56 530 l 1,38,-1
 72 592 l 1,39,-1
 90 619 l 1,40,-1
 116 646 l 1,41,-1
 136 664 l 1,42,-1
 176 698 l 1,43,-1
 234 712 l 1,0,-1
194 644 m 1,44,-1
 146 616 l 1,45,-1
 130 576 l 5,46,-1
 130 518 l 1,47,48
 130 518 130 518 146 448 c 1,49,-1
 182 414 l 1,50,-1
 238 390 l 1,51,-1
 332 396 l 1,52,-1
 380 424 l 1,53,-1
 402 476 l 1,54,-1
 406 526 l 1,55,-1
 384 592 l 1,56,-1
 352 626 l 1,57,-1
 314 648 l 1,58,-1
 260 652 l 1,59,-1
 194 644 l 1,44,-1
EndSplineSet
Validated: 5
EndChar

StartChar: colon
Encoding: 58 58 59
Width: 545
GlyphClass: 1
Flags: W
LayerCount: 2
Fore
SplineSet
222 484 m 1,0,-1
 222 484 l 1,1,-1
 272 437 l 1,2,-1
 272 437 l 1,3,-1
 322 388 l 1,4,-1
 270 340 l 1,5,-1
 226 300 l 1,6,-1
 226 300 l 1,7,-1
 182 344 l 1,8,-1
 182 344 l 1,9,-1
 132 386 l 1,10,-1
 181 437 l 1,11,-1
 222 484 l 1,0,-1
224 212 m 1,12,-1
 224 212 l 1,13,-1
 272 168 l 1,14,-1
 318 126 l 1,15,-1
 318 126 l 1,16,-1
 272 73 l 1,17,-1
 228 28 l 5,18,-1
 228 28 l 1,19,-1
 181 73 l 1,20,-1
 138 118 l 1,21,-1
 138 118 l 1,22,-1
 181 164 l 1,23,-1
 224 212 l 1,12,-1
EndSplineSet
Validated: 5
EndChar

StartChar: semicolon
Encoding: 59 59 60
Width: 545
GlyphClass: 1
Flags: W
LayerCount: 2
Fore
SplineSet
213 210 m 5,0,-1
 258 210 l 5,1,2
 258 210 258 210 304 210 c 5,3,-1
 334 178 l 5,4,-1
 346 128 l 5,5,-1
 350 62 l 5,6,7
 350 62 350 62 332 28 c 5,8,-1
 304 -18 l 5,9,-1
 274 -54 l 5,10,-1
 250 -80 l 5,11,-1
 234 -98 l 5,12,-1
 202 -126 l 5,13,-1
 168 -154 l 5,14,-1
 168 -154 l 5,15,-1
 184 -76 l 5,16,-1
 220 -40 l 5,17,-1
 242 -4 l 5,18,-1
 254 26 l 5,19,-1
 258 56 l 5,20,-1
 240 73 l 5,21,22
 240 73 240 73 188 80 c 5,23,-1
 168 114 l 5,24,25
 168 114 168 114 164 164 c 5,26,-1
 180 190 l 5,27,-1
 213 210 l 5,0,-1
260 285 m 1,28,-1
 352 378 l 1,29,-1
 260 467 l 1,30,-1
 170 376 l 1,31,-1
 260 285 l 1,28,-1
EndSplineSet
Validated: 5
EndChar

StartChar: less
Encoding: 60 60 61
Width: 545
GlyphClass: 1
Flags: W
LayerCount: 2
Fore
SplineSet
500 482 m 5,0,-1
 392 386 l 1,1,-1
 226 246 l 1,2,-1
 500 28 l 1,3,-1
 44 250 l 1,4,-1
 500 482 l 5,0,-1
EndSplineSet
Validated: 1
EndChar

StartChar: equal
Encoding: 61 61 62
Width: 545
GlyphClass: 1
Flags: W
LayerCount: 2
Fore
SplineSet
45 391 m 1,0,-1
 454 391 l 1,1,-1
 454 300 l 1,2,-1
 45 300 l 1,3,-1
 45 391 l 1,0,-1
45 210 m 1,4,-1
 454 210 l 1,5,-1
 454 119 l 1,6,-1
 45 119 l 1,7,-1
 45 210 l 1,4,-1
EndSplineSet
Validated: 1
EndChar

StartChar: greater
Encoding: 62 62 63
Width: 545
GlyphClass: 1
Flags: W
LayerCount: 2
Fore
SplineSet
318 256 m 5,0,-1
 45 482 l 1,1,-1
 500 256 l 1,2,-1
 45 28 l 1,3,-1
 318 256 l 5,0,-1
EndSplineSet
Validated: 1
EndChar

StartChar: question
Encoding: 63 63 64
Width: 545
GlyphClass: 1
Flags: W
LayerCount: 2
Fore
SplineSet
206 706 m 5,0,-1
 268 710 l 5,1,2
 268 710 268 710 340 700 c 5,3,-1
 368 688 l 5,4,-1
 394 672 l 5,5,-1
 418 656 l 5,6,-1
 436 622 l 5,7,-1
 454 538 l 5,8,9
 454 538 454 538 444 474 c 5,10,-1
 420 446 l 5,11,-1
 396 420 l 5,12,-1
 372 388 l 5,13,-1
 348 362 l 5,14,-1
 316 334 l 5,15,-1
 282 300 l 5,16,-1
 272 272 l 5,17,-1
 272 238 l 5,18,19
 272 238 272 238 254 220 c 5,20,-1
 226 210 l 5,21,22
 226 210 226 210 196 214 c 5,23,-1
 181 232 l 5,24,25
 181 232 181 232 180 284 c 5,26,-1
 206 306 l 5,27,-1
 228 320 l 5,28,-1
 252 336 l 5,29,-1
 288 362 l 5,30,-1
 318 391 l 5,31,-1
 318 391 l 5,32,-1
 348 428 l 5,33,-1
 374 482 l 5,34,35
 374 482 374 482 374 542 c 5,36,-1
 352 594 l 5,37,-1
 318 619 l 5,38,-1
 268 632 l 5,39,40
 268 632 268 632 216 630 c 5,41,-1
 178 616 l 5,42,-1
 142 594 l 5,43,-1
 120 554 l 5,44,-1
 90 528 l 5,45,-1
 98 602 l 5,46,-1
 118 634 l 5,47,-1
 130 652 l 5,48,-1
 162 684 l 5,49,-1
 206 706 l 5,0,-1
181 119 m 5,50,-1
 272 119 l 5,51,-1
 272 28 l 5,52,-1
 181 28 l 5,53,-1
 181 119 l 5,50,-1
EndSplineSet
Validated: 5
EndChar

StartChar: at
Encoding: 64 64 65
Width: 545
GlyphClass: 1
Flags: W
LayerCount: 2
Fore
SplineSet
258 574 m 1,0,-1
 370 568 l 1,1,-1
 418 554 l 1,2,-1
 454 528 l 1,3,-1
 478 506 l 1,4,-1
 498 422 l 1,5,-1
 500 164 l 1,6,-1
 227 164 l 1,7,-1
 196 194 l 1,8,-1
 184 246 l 1,9,-1
 182 322 l 1,10,-1
 202 372 l 1,11,-1
 248 394 l 1,12,-1
 312 396 l 1,13,-1
 374 372 l 1,14,-1
 404 330 l 1,15,-1
 409 276 l 1,16,17
 409 276 409 276 409 210 c 1,18,-1
 454 210 l 1,19,-1
 454 391 l 1,20,-1
 438 446 l 1,21,-1
 409 482 l 1,22,-1
 294 496 l 1,23,24
 294 496 294 496 181 482 c 1,25,-1
 160 458 l 1,26,-1
 136 410 l 1,27,-1
 136 119 l 1,28,-1
 158 88 l 1,29,-1
 286 68 l 1,30,-1
 500 73 l 1,31,-1
 500 -18 l 1,32,-1
 181 -18 l 1,33,-1
 132 0 l 1,34,-1
 90 28 l 1,35,-1
 58 94 l 1,36,-1
 44 168 l 1,37,-1
 40 336 l 1,38,-1
 60 464 l 1,39,-1
 86 508 l 1,40,-1
 140 548 l 1,41,-1
 258 574 l 1,0,-1
252 324 m 1,42,-1
 240 284 l 1,43,44
 240 284 240 284 242 236 c 1,45,46
 242 236 242 236 272 210 c 1,47,-1
 363 210 l 1,48,-1
 363 260 l 1,49,50
 363 260 363 260 363 300 c 1,51,-1
 330 326 l 5,52,53
 330 326 330 326 284 332 c 1,54,55
 268 328 268 328 252 324 c 1,42,-1
EndSplineSet
Validated: 1
EndChar

StartChar: A
Encoding: 65 65 66
Width: 545
GlyphClass: 1
Flags: W
LayerCount: 2
Fore
SplineSet
227 664 m 5,0,-1
 318 664 l 5,1,-1
 332 612 l 5,2,-1
 350 556 l 5,3,-1
 380 472 l 5,4,-1
 406 388 l 5,5,-1
 428 324 l 5,6,-1
 446 262 l 5,7,-1
 478 178 l 5,8,-1
 505 108 l 5,9,-1
 533 82 l 5,10,-1
 562 75 l 5,11,-1
 562 30 l 5,12,-1
 380 30 l 5,13,-1
 380 75 l 5,14,-1
 412 78 l 5,15,-1
 428 110 l 5,16,-1
 402 188 l 5,17,-1
 380 256 l 5,18,-1
 152 256 l 5,19,-1
 122 154 l 5,20,-1
 106 94 l 5,21,-1
 128 72 l 5,22,-1
 148 73 l 5,23,-1
 148 28 l 5,24,-1
 -14 28 l 5,25,-1
 -12 80 l 5,26,-1
 30 80 l 5,27,-1
 48 98 l 5,28,-1
 62 140 l 5,29,-1
 84 210 l 5,30,-1
 106 286 l 5,31,-1
 132 368 l 5,32,-1
 154 432 l 5,33,-1
 178 510 l 5,34,-1
 206 598 l 5,35,-1
 227 664 l 5,0,-1
230 484 m 5,36,-1
 212 426 l 5,37,-1
 194 374 l 5,38,-1
 170 300 l 5,39,-1
 363 300 l 5,40,-1
 344 354 l 5,41,-1
 332 394 l 5,42,-1
 310 458 l 5,43,-1
 290 514 l 5,44,-1
 264 590 l 5,45,-1
 230 484 l 5,36,-1
EndSplineSet
Validated: 1
EndChar

StartChar: B
Encoding: 66 66 67
Width: 545
GlyphClass: 1
Flags: W
LayerCount: 2
Fore
SplineSet
0 664 m 1,0,-1
 363 664 l 1,1,-1
 406 648 l 1,2,-1
 432 618 l 1,3,-1
 452 580 l 1,4,-1
 462 524 l 1,5,-1
 458 476 l 1,6,-1
 430 434 l 1,7,-1
 390 386 l 1,8,-1
 432 366 l 1,9,-1
 470 340 l 1,10,-1
 504 258 l 1,11,-1
 506 164 l 1,12,-1
 480 114 l 1,13,-1
 454 73 l 1,14,-1
 434 52 l 1,15,-1
 386 28 l 1,16,-1
 0 28 l 1,17,-1
 0 73 l 1,18,-1
 45 73 l 1,19,-1
 45 619 l 1,20,-1
 0 619 l 1,21,-1
 0 664 l 1,0,-1
136 619 m 1,22,-1
 136 391 l 1,23,-1
 290 392 l 1,24,-1
 348 432 l 1,25,-1
 378 494 l 1,26,-1
 378 564 l 1,27,28
 378 564 378 564 348 598 c 1,29,-1
 312 616 l 5,30,31
 312 616 312 616 246 619 c 1,32,33
 246 619 246 619 136 619 c 1,22,-1
136 346 m 1,34,-1
 136 73 l 1,35,-1
 334 74 l 1,36,-1
 368 94 l 1,37,-1
 410 146 l 1,38,-1
 412 260 l 1,39,-1
 386 306 l 1,40,-1
 316 346 l 1,41,-1
 136 346 l 1,34,-1
EndSplineSet
Validated: 1
EndChar

StartChar: C
Encoding: 67 67 68
Width: 545
GlyphClass: 1
Flags: W
LayerCount: 2
Fore
SplineSet
264 666 m 1,0,-1
 392 662 l 1,1,-1
 446 644 l 1,2,-1
 478 612 l 1,3,-1
 500 528 l 1,4,-1
 434 528 l 1,5,-1
 420 576 l 1,6,-1
 374 604 l 1,7,-1
 310 608 l 1,8,-1
 230 610 l 1,9,-1
 170 584 l 1,10,-1
 148 552 l 1,11,-1
 138 490 l 1,12,13
 138 490 138 490 132 372 c 1,14,15
 132 372 132 372 136 242 c 1,16,17
 136 242 136 242 144 182 c 1,18,-1
 158 140 l 1,19,-1
 194 102 l 1,20,-1
 228 80 l 1,21,-1
 272 68 l 1,22,-1
 350 68 l 1,23,-1
 408 82 l 1,24,-1
 428 112 l 1,25,-1
 434 164 l 1,26,-1
 500 164 l 1,27,-1
 500 119 l 1,28,-1
 476 82 l 1,29,-1
 446 52 l 1,30,-1
 408 36 l 1,31,-1
 372 28 l 1,32,-1
 292 26 l 1,33,-1
 190 32 l 1,34,-1
 136 56 l 1,35,-1
 94 88 l 1,36,-1
 68 134 l 1,37,-1
 54 178 l 1,38,-1
 46 236 l 5,39,-1
 44 308 l 1,40,41
 44 308 44 308 44 414 c 1,42,-1
 56 496 l 1,43,-1
 74 542 l 1,44,-1
 98 584 l 1,45,-1
 150 634 l 1,46,-1
 202 654 l 1,47,-1
 264 666 l 1,0,-1
EndSplineSet
Validated: 1
EndChar

StartChar: D
Encoding: 68 68 69
Width: 545
GlyphClass: 1
Flags: W
LayerCount: 2
Fore
SplineSet
0 664 m 1,0,-1
 312 664 l 1,1,-1
 372 646 l 1,2,-1
 452 606 l 1,3,-1
 480 560 l 1,4,-1
 500 450 l 1,5,-1
 500 228 l 1,6,-1
 482 156 l 1,7,-1
 454 119 l 1,8,-1
 428 88 l 1,9,-1
 409 73 l 1,10,-1
 362 46 l 1,11,-1
 318 28 l 1,12,-1
 0 28 l 1,13,-1
 0 73 l 1,14,-1
 45 73 l 1,15,-1
 45 619 l 1,16,-1
 0 619 l 1,17,-1
 0 664 l 1,0,-1
136 619 m 1,18,-1
 136 73 l 1,19,-1
 318 73 l 1,20,-1
 366 100 l 1,21,-1
 412 142 l 1,22,-1
 430 264 l 1,23,24
 430 264 430 264 426 468 c 1,25,-1
 402 538 l 5,26,-1
 363 573 l 1,27,-1
 318 600 l 1,28,-1
 232 620 l 1,29,-1
 136 619 l 1,18,-1
EndSplineSet
Validated: 1
EndChar

StartChar: E
Encoding: 69 69 70
Width: 545
GlyphClass: 1
Flags: W
LayerCount: 2
Fore
SplineSet
45 664 m 1,0,-1
 454 664 l 1,1,-1
 454 528 l 1,2,-1
 409 528 l 1,3,-1
 409 619 l 1,4,-1
 181 619 l 1,5,-1
 181 391 l 1,6,-1
 363 391 l 1,7,-1
 363 437 l 1,8,-1
 409 437 l 1,9,-1
 409 300 l 1,10,-1
 363 300 l 1,11,-1
 363 346 l 1,12,-1
 181 346 l 1,13,-1
 181 73 l 1,14,-1
 454 73 l 1,15,-1
 454 164 l 1,16,-1
 500 164 l 1,17,-1
 500 28 l 1,18,-1
 45 28 l 1,19,-1
 45 73 l 1,20,-1
 90 73 l 1,21,-1
 90 619 l 1,22,-1
 45 619 l 1,23,-1
 45 664 l 1,0,-1
EndSplineSet
Validated: 1
EndChar

StartChar: F
Encoding: 70 70 71
Width: 545
GlyphClass: 1
Flags: W
LayerCount: 2
Fore
SplineSet
45 664 m 1,0,-1
 454 664 l 1,1,-1
 454 528 l 1,2,-1
 409 528 l 1,3,-1
 409 619 l 1,4,-1
 181 619 l 1,5,-1
 181 391 l 1,6,-1
 363 391 l 1,7,-1
 363 437 l 1,8,-1
 409 437 l 1,9,-1
 409 300 l 1,10,-1
 363 300 l 1,11,-1
 363 346 l 1,12,-1
 181 346 l 1,13,-1
 181 73 l 1,14,-1
 227 73 l 1,15,-1
 227 28 l 1,16,-1
 45 28 l 1,17,-1
 45 73 l 1,18,-1
 90 73 l 1,19,-1
 90 619 l 1,20,-1
 45 619 l 1,21,-1
 45 664 l 1,0,-1
EndSplineSet
Validated: 1
EndChar

StartChar: G
Encoding: 71 71 72
Width: 545
GlyphClass: 1
Flags: W
LayerCount: 2
Fore
SplineSet
226 666 m 1,0,-1
 258 664 l 1,1,2
 258 664 258 664 372 664 c 1,3,4
 372 664 372 664 418 656 c 1,5,-1
 460 646 l 1,6,-1
 500 619 l 1,7,-1
 500 528 l 1,8,-1
 454 528 l 1,9,-1
 436 556 l 1,10,-1
 398 596 l 1,11,-1
 314 610 l 1,12,-1
 208 608 l 1,13,-1
 162 584 l 1,14,-1
 136 536 l 1,15,-1
 122 438 l 1,16,17
 122 438 122 438 124 260 c 1,18,19
 124 260 124 260 130 188 c 1,20,-1
 152 142 l 1,21,-1
 172 114 l 5,22,-1
 196 100 l 1,23,-1
 226 84 l 1,24,-1
 296 72 l 1,25,26
 296 72 296 72 370 80 c 1,27,-1
 410 94 l 1,28,29
 410 94 410 94 409 255 c 1,30,-1
 318 255 l 1,31,-1
 318 300 l 1,32,-1
 545 300 l 1,33,-1
 545 255 l 1,34,-1
 500 255 l 1,35,-1
 500 73 l 1,36,-1
 458 46 l 1,37,-1
 409 28 l 1,38,-1
 346 28 l 1,39,40
 346 28 346 28 240 28 c 1,41,42
 240 28 240 28 192 36 c 1,43,-1
 156 54 l 1,44,-1
 136 73 l 1,45,-1
 106 96 l 1,46,-1
 90 119 l 1,47,-1
 62 164 l 1,48,-1
 45 210 l 1,49,-1
 45 304 l 1,50,51
 45 304 45 304 45 400 c 1,52,53
 45 400 45 400 54 468 c 1,54,-1
 76 542 l 1,55,-1
 90 573 l 1,56,-1
 106 596 l 1,57,-1
 134 624 l 1,58,-1
 156 646 l 1,59,-1
 226 666 l 1,0,-1
EndSplineSet
Validated: 1
EndChar

StartChar: H
Encoding: 72 72 73
Width: 545
GlyphClass: 1
Flags: W
LayerCount: 2
Fore
SplineSet
0 664 m 1,0,-1
 181 664 l 1,1,-1
 181 619 l 1,2,-1
 136 619 l 1,3,-1
 136 391 l 1,4,-1
 409 391 l 1,5,-1
 409 619 l 1,6,-1
 363 619 l 1,7,-1
 363 664 l 1,8,-1
 545 664 l 1,9,-1
 545 619 l 1,10,-1
 500 619 l 1,11,-1
 500 73 l 1,12,-1
 545 73 l 1,13,-1
 545 28 l 1,14,-1
 363 28 l 1,15,-1
 363 73 l 1,16,-1
 409 73 l 1,17,-1
 409 346 l 1,18,-1
 136 346 l 1,19,-1
 136 73 l 1,20,-1
 181 73 l 1,21,-1
 181 28 l 1,22,-1
 0 28 l 1,23,-1
 0 73 l 1,24,-1
 45 73 l 1,25,-1
 45 619 l 1,26,-1
 0 619 l 1,27,-1
 0 664 l 1,0,-1
EndSplineSet
Validated: 1
EndChar

StartChar: I
Encoding: 73 73 74
Width: 545
GlyphClass: 1
Flags: W
LayerCount: 2
Fore
SplineSet
136 664 m 1,0,-1
 409 664 l 1,1,-1
 409 619 l 1,2,-1
 318 619 l 1,3,-1
 318 73 l 1,4,-1
 409 73 l 1,5,-1
 409 28 l 1,6,-1
 136 28 l 1,7,-1
 136 73 l 1,8,-1
 227 73 l 1,9,-1
 227 619 l 1,10,-1
 136 619 l 1,11,-1
 136 664 l 1,0,-1
EndSplineSet
Validated: 1
EndChar

StartChar: J
Encoding: 74 74 75
Width: 545
GlyphClass: 1
Flags: W
LayerCount: 2
Fore
SplineSet
136 664 m 1,0,-1
 409 664 l 1,1,-1
 409 619 l 1,2,-1
 318 619 l 1,3,-1
 318 -63 l 1,4,-1
 286 -122 l 1,5,-1
 256 -150 l 1,6,-1
 224 -174 l 1,7,-1
 190 -190 l 1,8,-1
 162 -198 l 1,9,-1
 122 -198 l 1,10,-1
 90 -200 l 1,11,-1
 90 -109 l 1,12,-1
 142 -120 l 5,13,14
 142 -120 142 -120 190 -121.483870968 c 1,15,16
 190 -121.483870968 190 -121.483870968 208 -110 c 1,17,-1
 225.5 -90 l 1,18,19
 225.5 -90 225.5 -90 227 -64 c 1,20,21
 227 -64 227 -64 227 619 c 1,22,-1
 136 619 l 1,23,-1
 136 664 l 1,0,-1
EndSplineSet
Validated: 1
EndChar

StartChar: K
Encoding: 75 75 76
Width: 545
GlyphClass: 1
Flags: W
LayerCount: 2
Fore
SplineSet
0 664 m 1,0,-1
 181 664 l 1,1,-1
 181 619 l 1,2,-1
 136 619 l 1,3,-1
 136 437 l 1,4,-1
 181 437 l 1,5,-1
 181 482 l 1,6,-1
 227 482 l 1,7,-1
 227 528 l 1,8,-1
 272 528 l 1,9,-1
 272 573 l 1,10,-1
 318 573 l 1,11,-1
 318 619 l 1,12,-1
 363 619 l 1,13,-1
 363 664 l 1,14,-1
 500 664 l 1,15,-1
 500 619 l 1,16,-1
 409 619 l 1,17,-1
 409 573 l 1,18,-1
 363 573 l 1,19,-1
 363 528 l 1,20,-1
 318 528 l 1,21,-1
 318 482 l 1,22,-1
 272 482 l 1,23,-1
 272 437 l 1,24,-1
 227 437 l 1,25,-1
 227 346 l 1,26,-1
 272 346 l 1,27,-1
 272 300 l 1,28,-1
 318 300 l 1,29,-1
 318 255 l 1,30,-1
 363 255 l 1,31,-1
 363 210 l 1,32,-1
 409 210 l 1,33,-1
 409 164 l 1,34,-1
 454 164 l 1,35,-1
 454 119 l 1,36,-1
 500 119 l 1,37,-1
 500 73 l 1,38,-1
 545 73 l 1,39,-1
 545 28 l 1,40,-1
 409 28 l 1,41,-1
 409 73 l 1,42,-1
 363 73 l 1,43,-1
 363 119 l 1,44,-1
 318 119 l 1,45,-1
 318 164 l 1,46,-1
 272 164 l 1,47,-1
 272 210 l 1,48,-1
 227 210 l 1,49,-1
 227 255 l 1,50,-1
 181 255 l 1,51,-1
 181 300 l 1,52,-1
 136 300 l 1,53,-1
 136 73 l 1,54,-1
 181 73 l 1,55,-1
 181 28 l 1,56,-1
 0 28 l 1,57,-1
 0 73 l 1,58,-1
 45 73 l 1,59,-1
 45 619 l 1,60,-1
 0 619 l 1,61,-1
 0 664 l 1,0,-1
EndSplineSet
Validated: 1
EndChar

StartChar: L
Encoding: 76 76 77
Width: 545
GlyphClass: 1
Flags: W
LayerCount: 2
Fore
SplineSet
45 664 m 1,0,-1
 227 664 l 1,1,-1
 227 619 l 1,2,-1
 181 619 l 1,3,-1
 181 73 l 1,4,-1
 454 73 l 1,5,-1
 454 164 l 1,6,-1
 500 164 l 1,7,-1
 500 28 l 1,8,-1
 45 28 l 1,9,-1
 45 73 l 1,10,-1
 90 73 l 1,11,-1
 90 619 l 1,12,-1
 45 619 l 1,13,-1
 45 664 l 1,0,-1
EndSplineSet
Validated: 1
EndChar

StartChar: M
Encoding: 77 77 78
Width: 545
GlyphClass: 1
Flags: W
LayerCount: 2
Fore
SplineSet
272 255 m 5,0,-1
 409 664 l 1,1,-1
 545 664 l 1,2,-1
 545 619 l 1,3,-1
 500 619 l 1,4,-1
 500 73 l 1,5,-1
 545 73 l 1,6,-1
 545 28 l 1,7,-1
 363 28 l 1,8,-1
 363 73 l 1,9,-1
 409 73 l 1,10,-1
 409 437 l 1,11,-1
 272 28 l 1,12,-1
 227 28 l 1,13,-1
 90 437 l 1,14,-1
 90 73 l 1,15,-1
 136 73 l 1,16,-1
 136 28 l 1,17,-1
 0 28 l 1,18,-1
 0 73 l 1,19,-1
 45 73 l 1,20,-1
 45 619 l 1,21,-1
 0 619 l 1,22,-1
 0 664 l 1,23,-1
 136 664 l 1,24,-1
 272 255 l 5,0,-1
EndSplineSet
Validated: 1
EndChar

StartChar: N
Encoding: 78 78 79
Width: 545
GlyphClass: 1
Flags: W
LayerCount: 2
Fore
SplineSet
454 210 m 5,0,-1
 454 619 l 5,1,-1
 409 619 l 5,2,-1
 409 664 l 5,3,-1
 545 664 l 5,4,-1
 545 619 l 5,5,-1
 500 619 l 5,6,-1
 500 73 l 5,7,-1
 545 73 l 5,8,-1
 545 28 l 5,9,-1
 454 28 l 5,10,-1
 90 482 l 5,11,-1
 90 73 l 5,12,-1
 136 73 l 5,13,-1
 136 28 l 5,14,-1
 0 28 l 5,15,-1
 0 73 l 5,16,-1
 45 73 l 5,17,-1
 45 619 l 5,18,-1
 0 619 l 5,19,-1
 0 664 l 5,20,-1
 90 664 l 5,21,-1
 454 210 l 5,0,-1
EndSplineSet
Validated: 1
EndChar

StartChar: O
Encoding: 79 79 80
Width: 545
GlyphClass: 1
Flags: W
LayerCount: 2
Fore
SplineSet
217 662 m 5,0,-1
 271 664 l 5,1,2
 271 664 271 664 349 662 c 5,3,-1
 393 645 l 5,4,-1
 452 613 l 5,5,-1
 481 573 l 5,6,-1
 500 528 l 5,7,-1
 505 454 l 5,8,9
 505 454 505 454 508 355 c 5,10,11
 508 355 508 355 505 255 c 5,12,13
 505 255 505 255 500 210 c 5,14,-1
 481 154 l 5,15,-1
 454 119 l 5,16,-1
 430 96 l 5,17,-1
 409 73 l 5,18,-1
 380 54 l 5,19,-1
 344 34 l 5,20,-1
 276 28 l 5,21,22
 276 28 276 28 219 30 c 5,23,-1
 169 38 l 5,24,-1
 140 59 l 5,25,-1
 111 84 l 5,26,-1
 82 113 l 5,27,-1
 56 156 l 5,28,-1
 45 210 l 5,29,-1
 40 256 l 5,30,31
 40 256 40 256 38 343 c 5,32,33
 38 343 38 343 40 420 c 5,34,35
 40 420 40 420 45 482 c 5,36,-1
 62 529 l 5,37,-1
 90 573 l 5,38,-1
 113 600 l 5,39,-1
 136 619 l 5,40,-1
 168 639 l 5,41,-1
 217 662 l 5,0,-1
206 617 m 5,42,-1
 171 598 l 5,43,-1
 136 573 l 5,44,-1
 120 482 l 5,45,46
 120 482 120 482 120 367 c 5,47,48
 120 367 120 367 121 249 c 5,49,50
 121 249 121 249 136 164 c 5,51,-1
 152 140 l 5,52,-1
 171 115 l 5,53,-1
 204 85 l 5,54,-1
 253 74 l 5,55,-1
 289 73 l 5,56,57
 289 73 289 73 348 80 c 5,58,-1
 381 101 l 5,59,-1
 409 137 l 5,60,-1
 415 208 l 5,61,62
 415 208 415 208 417 323 c 5,63,64
 417 323 417 323 415 444 c 5,65,66
 415 444 415 444 408 516 c 5,67,-1
 388 551 l 5,68,-1
 362 582 l 5,69,-1
 338 604 l 5,70,-1
 309 615 l 5,71,-1
 247 619 l 5,72,73
 247 619 247 619 206 617 c 5,42,-1
EndSplineSet
EndChar

StartChar: P
Encoding: 80 80 81
Width: 545
GlyphClass: 1
Flags: W
LayerCount: 2
Fore
SplineSet
45 664 m 1,0,-1
 355 664 l 1,1,2
 355 664 355 664 404 656 c 1,3,-1
 434 647 l 1,4,-1
 458 630 l 1,5,-1
 489 598 l 1,6,-1
 500 573 l 1,7,-1
 506 528 l 1,8,9
 506 528 506 528 507 483 c 1,10,11
 507 483 507 483 500 437 c 1,12,-1
 490 402 l 1,13,-1
 457 374 l 1,14,-1
 427 352 l 1,15,-1
 403 349 l 1,16,-1
 362 346 l 1,17,18
 362 346 362 346 246 346 c 1,19,20
 246 346 246 346 232 355 c 1,21,-1
 227 370 l 1,22,23
 227 370 227 370 232 385 c 1,24,-1
 247 391 l 1,25,26
 247 391 247 391 335 391 c 1,27,28
 335 391 335 391 375 395 c 1,29,-1
 408 415 l 1,30,-1
 424 454 l 1,31,-1
 427 494 l 1,32,33
 427 494 427 494 427 532 c 1,34,35
 427 532 427 532 416 572 c 1,36,-1
 392 605 l 1,37,-1
 353 619 l 1,38,-1
 324 619 l 1,39,40
 324 619 324 619 181 619 c 1,41,-1
 181 73 l 1,42,-1
 227 73 l 1,43,-1
 227 28 l 1,44,-1
 45 28 l 1,45,-1
 45 73 l 1,46,-1
 90 73 l 1,47,-1
 90 619 l 1,48,-1
 45 619 l 1,49,-1
 45 664 l 1,0,-1
EndSplineSet
EndChar

StartChar: Q
Encoding: 81 81 82
Width: 545
GlyphClass: 1
Flags: W
LayerCount: 2
Fore
SplineSet
181 664 m 1,0,-1
 233 672 l 1,1,2
 233 672 233 672 269 676 c 1,3,4
 269 676 269 676 311 673 c 1,5,6
 311 673 311 673 363 664 c 1,7,-1
 399 644 l 1,8,-1
 440 607 l 1,9,-1
 470 551 l 1,10,-1
 489 503 l 1,11,-1
 496 456 l 1,12,13
 496 456 496 456 500 370 c 1,14,15
 500 370 500 370 497 278 c 1,16,17
 497 278 497 278 490 210 c 1,18,-1
 476 171 l 5,19,-1
 455 137 l 1,20,-1
 426 105 l 1,21,-1
 376 71 l 1,22,-1
 294 58 l 1,23,-1
 318 28 l 1,24,-1
 342 0 l 1,25,-1
 363 -18 l 1,26,-1
 390 -41 l 1,27,-1
 415 -58 l 1,28,-1
 453 -60 l 1,29,30
 453 -60 453 -60 483 -41 c 1,31,-1
 500 -18 l 1,32,-1
 525 -18 l 1,33,34
 525 -18 525 -18 539 -22 c 1,35,-1
 545 -38 l 1,36,37
 545 -38 545 -38 539 -58 c 1,38,-1
 524 -69 l 1,39,40
 524 -69 524 -69 502 -84 c 1,41,-1
 468 -97 l 1,42,-1
 425 -102 l 1,43,44
 425 -102 425 -102 380 -90 c 1,45,46
 380 -90 380 -90 343 -69 c 1,47,-1
 308 -43 l 1,48,-1
 284 -26 l 1,49,-1
 238 5 l 1,50,-1
 188 -29 l 1,51,52
 188 -29 188 -29 161 -47 c 1,53,-1
 126 -65 l 1,54,-1
 108 -69 l 1,55,56
 108 -69 108 -69 90 -63 c 1,57,-1
 89 -35 l 1,58,59
 89 -35 89 -35 104 -22 c 1,60,-1
 121 -20 l 1,61,62
 121 -20 121 -20 142 -12 c 1,63,-1
 163 0 l 1,64,-1
 204 25 l 1,65,-1
 183 41 l 1,66,-1
 152 68 l 1,67,-1
 118 97 l 1,68,-1
 99 117 l 1,69,-1
 63 171 l 1,70,-1
 45 210 l 1,71,-1
 39 270 l 1,72,73
 39 270 39 270 37 343 c 1,74,75
 37 343 37 343 40 430 c 1,76,77
 40 430 40 430 45 482 c 1,78,-1
 56 527 l 1,79,-1
 78 569 l 1,80,-1
 101 595 l 1,81,-1
 127 623 l 1,82,-1
 156 645 l 1,83,-1
 181 664 l 1,0,-1
206 627 m 1,84,-1
 151 595 l 1,85,-1
 131 567 l 1,86,-1
 123 484 l 1,87,88
 123 484 123 484 124 415 c 1,89,90
 124 415 124 415 124 307 c 1,91,92
 124 307 124 307 132 244 c 1,93,-1
 155 194 l 1,94,-1
 182 156 l 1,95,-1
 204 134 l 1,96,-1
 246 116 l 1,97,-1
 317 114 l 1,98,99
 317 114 317 114 373 124 c 1,100,101
 373 124 373 124 399 159 c 1,102,-1
 409 212 l 1,103,104
 409 212 409 212 414 300 c 1,105,106
 414 300 414 300 414 447 c 1,107,108
 414 447 414 447 409 502 c 1,109,-1
 385 546 l 1,110,-1
 363 573 l 1,111,-1
 321 605 l 1,112,-1
 277 630 l 1,113,-1
 206 627 l 1,84,-1
EndSplineSet
EndChar

StartChar: R
Encoding: 82 82 83
Width: 545
GlyphClass: 1
Flags: W
LayerCount: 2
Fore
SplineSet
500 73 m 5,0,-1
 545 73 l 5,1,-1
 545 28 l 5,2,-1
 409 28 l 5,3,-1
 136 323 l 5,4,-1
 136 73 l 5,5,-1
 181 73 l 5,6,-1
 181 28 l 5,7,-1
 0 28 l 5,8,-1
 0 73 l 5,9,-1
 45 73 l 5,10,-1
 45 619 l 5,11,-1
 0 619 l 5,12,-1
 0 664 l 5,13,-1
 319 664 l 5,14,15
 319 664 319 664 356 659 c 5,16,-1
 388 637 l 5,17,-1
 409 619 l 5,18,-1
 429 593 l 5,19,-1
 447 566 l 5,20,-1
 453 526 l 5,21,22
 453 526 453 526 454 470 c 5,23,24
 454 470 454 470 454 437 c 5,25,-1
 437 410 l 5,26,-1
 410 379 l 5,27,-1
 384 357 l 5,28,-1
 356 348 l 5,29,-1
 330 346.248120301 l 5,30,31
 330 346.248120301 330 346.248120301 230 347 c 5,32,-1
 500 73 l 5,0,-1
136 619 m 5,33,-1
 136 391 l 5,34,-1
 320 391 l 5,35,36
 320 391 320 391 354 403 c 5,37,-1
 366 442 l 5,38,39
 366 442 366 442 365 521 c 5,40,41
 365 521 365 521 348 576 c 5,42,-1
 326 602 l 5,43,-1
 288 619 l 5,44,-1
 136 619 l 5,33,-1
EndSplineSet
EndChar

StartChar: S
Encoding: 83 83 84
Width: 545
GlyphClass: 1
Flags: W
LayerCount: 2
Fore
SplineSet
153 660 m 1,0,-1
 293 664 l 1,1,2
 293 664 293 664 362 664 c 1,3,4
 362 664 362 664 437 640 c 1,5,6
 437 640 437 640 437 664 c 1,7,8
 437 664 437 664 481 664 c 1,9,-1
 481 482 l 1,10,-1
 435 482 l 1,11,-1
 435 573 l 1,12,-1
 412 600 l 1,13,-1
 378 613 l 1,14,-1
 327 630 l 1,15,16
 327 630 327 630 254 627 c 1,17,18
 254 627 254 627 181 619 c 1,19,-1
 155 601 l 1,20,-1
 142 576 l 1,21,-1
 136 532 l 1,22,23
 136 532 136 532 136 482 c 1,24,-1
 149 459 l 1,25,-1
 181 437 l 1,26,-1
 214 423 l 1,27,-1
 274 399 l 1,28,-1
 309 385 l 1,29,-1
 363 364 l 1,30,-1
 409 346 l 1,31,-1
 430 333 l 1,32,-1
 456 307 l 1,33,-1
 473 279 l 1,34,-1
 489 252 l 1,35,-1
 500 207 l 1,36,37
 500 207 500 207 500 161 c 1,38,39
 500 161 500 161 496 126 c 1,40,-1
 477 97 l 1,41,-1
 454 73 l 1,42,-1
 421 42 l 1,43,-1
 378 27 l 1,44,-1
 254 28 l 1,45,46
 254 28 254 28 147 28 c 1,47,48
 147 28 147 28 88 53 c 1,49,50
 88 53 88 53 88 28 c 1,51,52
 88 28 88 28 45 28 c 1,53,-1
 45 210 l 1,54,-1
 90 210 l 1,55,-1
 90 119 l 1,56,-1
 102 96 l 1,57,-1
 126 75 l 1,58,-1
 194 66 l 1,59,60
 194 66 194 66 285 66 c 1,61,62
 285 66 285 66 363 73 c 1,63,-1
 391 93 l 1,64,-1
 409 119 l 1,65,-1
 415 169 l 1,66,67
 415 169 415 169 409 210 c 1,68,-1
 396 226 l 1,69,-1
 358 246 l 1,70,-1
 322 262 l 1,71,-1
 273 284 l 1,72,-1
 238 298 l 1,73,-1
 184 320 l 1,74,-1
 144 342 l 1,75,-1
 112 363 l 1,76,-1
 87 383 l 1,77,-1
 70 414 l 1,78,-1
 57 446 l 1,79,-1
 45 490 l 1,80,81
 45 490 45 490 45 528 c 1,82,83
 45 528 45 528 51 568 c 1,84,-1
 66 598 l 1,85,-1
 84 621 l 1,86,-1
 111 639 l 1,87,-1
 153 660 l 1,0,-1
EndSplineSet
EndChar

StartChar: T
Encoding: 84 84 85
Width: 545
GlyphClass: 1
Flags: W
LayerCount: 2
Fore
SplineSet
45 664 m 1,0,-1
 500 664 l 1,1,-1
 500 573 l 1,2,-1
 454 573 l 1,3,-1
 454 619 l 1,4,-1
 318 619 l 1,5,-1
 318 73 l 1,6,-1
 409 73 l 1,7,-1
 409 28 l 1,8,-1
 136 28 l 1,9,-1
 136 73 l 1,10,-1
 227 73 l 1,11,-1
 227 619 l 1,12,-1
 90 619 l 1,13,-1
 90 573 l 1,14,-1
 45 573 l 1,15,-1
 45 664 l 1,0,-1
EndSplineSet
Validated: 1
EndChar

StartChar: U
Encoding: 85 85 86
Width: 545
GlyphClass: 1
Flags: W
LayerCount: 2
Fore
SplineSet
0 664 m 5,0,-1
 181 664 l 5,1,-1
 181 619 l 5,2,-1
 136 619 l 5,3,-1
 136 222 l 5,4,5
 136 222 136 222 136 183 c 5,6,-1
 159 148 l 5,7,-1
 186 130 l 5,8,-1
 221 118 l 5,9,10
 221 118 221 118 303 115 c 5,11,12
 303 115 303 115 360 121 c 5,13,14
 360 121 360 121 396 126 c 5,15,-1
 421 150 l 5,16,-1
 444 174 l 5,17,-1
 454 221 l 5,18,19
 454 221 454 221 454 619 c 5,20,-1
 409 619 l 5,21,-1
 409 664 l 5,22,-1
 545 664 l 5,23,-1
 545 619 l 5,24,-1
 500 619 l 5,25,-1
 500 164 l 5,26,-1
 493 133 l 5,27,-1
 471 89 l 5,28,-1
 443 55 l 5,29,-1
 403 31 l 5,30,-1
 358 28 l 5,31,32
 358 28 358 28 208 29 c 5,33,34
 208 29 208 29 146 38 c 5,35,-1
 116 58 l 5,36,-1
 87 88 l 5,37,-1
 65 109 l 5,38,-1
 45 156 l 5,39,-1
 45 619 l 5,40,-1
 0 619 l 5,41,-1
 0 664 l 5,0,-1
EndSplineSet
EndChar

StartChar: V
Encoding: 86 86 87
Width: 545
GlyphClass: 1
Flags: W
LayerCount: 2
Fore
SplineSet
266 29 m 5,0,-1
 311 29 l 5,1,-1
 357 256 l 5,2,-1
 262 256 l 5,3,4
 262 256 262 256 140 620 c 5,5,6
 140 620 140 620 175 620 c 5,7,-1
 175 665 l 5,8,-1
 39 665 l 5,9,-1
 39 620 l 5,10,-1
 84 620 l 5,11,-1
 266 29 l 5,0,-1
370 300 m 5,12,-1
 325 300 l 5,13,-1
 394 617 l 5,14,-1
 348 617 l 5,15,-1
 348 662 l 5,16,-1
 485 662 l 5,17,-1
 485 617 l 5,18,-1
 439 617 l 5,19,-1
 370 300 l 5,12,-1
EndSplineSet
EndChar

StartChar: W
Encoding: 87 87 88
Width: 545
GlyphClass: 1
Flags: W
LayerCount: 2
Fore
SplineSet
409 28 m 1,0,-1
 318 28 l 1,1,-1
 272 300 l 1,2,-1
 272 300 l 1,3,-1
 227 28 l 1,4,-1
 136 28 l 1,5,-1
 45 619 l 1,6,-1
 0 619 l 1,7,-1
 0 664 l 1,8,-1
 318 664 l 1,9,-1
 389 300 l 1,10,-1
 405 300 l 1,11,-1
 454 619 l 1,12,-1
 363 619 l 1,13,-1
 363 664 l 1,14,-1
 545 664 l 1,15,-1
 545 619 l 1,16,-1
 500 619 l 1,17,-1
 409 28 l 1,0,-1
263 346 m 1,18,-1
 191 619 l 1,19,-1
 136 619 l 1,20,-1
 227 300 l 1,21,-1
 238 346 l 1,22,-1
 263 346 l 1,18,-1
EndSplineSet
EndChar

StartChar: X
Encoding: 88 88 89
Width: 545
GlyphClass: 1
Flags: W
LayerCount: 2
Fore
SplineSet
272 300 m 1,0,-1
 243 300 l 1,1,-1
 90 73 l 1,2,-1
 136 73 l 1,3,-1
 136 28 l 1,4,-1
 0 28 l 1,5,-1
 0 73 l 1,6,-1
 45 73 l 1,7,-1
 227 346 l 1,8,9
 227 346 227 346 45 619 c 1,10,-1
 0 619 l 1,11,-1
 0 664 l 1,12,-1
 181 664 l 1,13,-1
 181 619 l 1,14,-1
 119 619 l 1,15,-1
 281 377 l 5,16,-1
 311 377 l 1,17,-1
 454 619 l 1,18,-1
 409 619 l 1,19,-1
 409 664 l 1,20,-1
 545 664 l 1,21,-1
 545 619 l 1,22,-1
 500 619 l 1,23,-1
 331 332 l 1,24,-1
 500 73 l 1,25,-1
 545 73 l 1,26,-1
 545 28 l 1,27,-1
 363 28 l 1,28,-1
 363 73 l 1,29,-1
 409 73 l 1,30,-1
 272 300 l 1,0,-1
EndSplineSet
EndChar

StartChar: Y
Encoding: 89 89 90
Width: 545
GlyphClass: 1
Flags: W
LayerCount: 2
Fore
SplineSet
500 619 m 5,0,-1
 545 619 l 5,1,-1
 545 664 l 5,2,-1
 409 664 l 5,3,-1
 409 619 l 5,4,-1
 454 619 l 5,5,-1
 302 405 l 5,6,-1
 272 391 l 5,7,-1
 136 619 l 5,8,-1
 181 619 l 5,9,-1
 181 664 l 5,10,-1
 0 664 l 5,11,-1
 0 619 l 5,12,-1
 45 619 l 5,13,-1
 227 322 l 5,14,-1
 227 73 l 5,15,-1
 181 73 l 5,16,-1
 181 28 l 5,17,-1
 363 28 l 5,18,-1
 363 73 l 5,19,-1
 318 73 l 5,20,-1
 318 359 l 5,21,-1
 500 619 l 5,0,-1
EndSplineSet
EndChar

StartChar: Z
Encoding: 90 90 91
Width: 545
GlyphClass: 1
Flags: W
LayerCount: 2
Fore
SplineSet
454 619 m 1,0,-1
 500 619 l 1,1,-1
 500 664 l 1,2,-1
 90 664 l 1,3,-1
 90 573 l 1,4,-1
 136 573 l 1,5,-1
 136 619 l 1,6,-1
 363 619 l 1,7,-1
 90 73 l 1,8,-1
 90 28 l 1,9,-1
 500 28 l 1,10,-1
 500 119 l 1,11,-1
 454 119 l 1,12,-1
 454 73 l 1,13,-1
 170 74 l 5,14,-1
 454 619 l 1,0,-1
EndSplineSet
Validated: 9
EndChar

StartChar: bracketleft
Encoding: 91 91 92
Width: 545
GlyphClass: 1
Flags: W
LayerCount: 2
Fore
SplineSet
227 710 m 1,0,-1
 454 710 l 1,1,-1
 454 619 l 1,2,-1
 318 619 l 1,3,-1
 318 119 l 1,4,-1
 454 119 l 1,5,-1
 454 28 l 1,6,-1
 227 28 l 1,7,-1
 227 710 l 1,0,-1
EndSplineSet
Validated: 1
EndChar

StartChar: backslash
Encoding: 92 92 93
Width: 545
GlyphClass: 1
Flags: W
LayerCount: 2
Fore
SplineSet
136 710 m 5,0,-1
 45 710 l 1,1,-1
 45 619 l 1,2,-1
 363 28 l 1,3,-1
 454 28 l 1,4,-1
 454 119 l 1,5,-1
 136 710 l 5,0,-1
EndSplineSet
Validated: 9
EndChar

StartChar: bracketright
Encoding: 93 93 94
Width: 545
GlyphClass: 1
Flags: W
LayerCount: 2
Fore
SplineSet
45 710 m 1,0,-1
 272 710 l 1,1,-1
 272 28 l 1,2,-1
 45 28 l 1,3,-1
 45 119 l 1,4,-1
 181 119 l 1,5,-1
 181 619 l 1,6,-1
 45 619 l 1,7,-1
 45 710 l 1,0,-1
EndSplineSet
Validated: 1
EndChar

StartChar: asciicircum
Encoding: 94 94 95
Width: 545
GlyphClass: 1
Flags: W
LayerCount: 2
Fore
SplineSet
454 482 m 5,0,-1
 246 620 l 1,1,-1
 45 482 l 1,2,-1
 248 710 l 1,3,-1
 454 482 l 5,0,-1
EndSplineSet
Validated: 1
EndChar

StartChar: underscore
Encoding: 95 95 96
Width: 545
GlyphClass: 1
Flags: W
LayerCount: 2
Fore
SplineSet
0 -18 m 1,0,-1
 500 -18 l 1,1,-1
 500 -109 l 1,2,-1
 0 -109 l 1,3,-1
 0 -18 l 1,0,-1
EndSplineSet
Validated: 1
EndChar

StartChar: grave
Encoding: 96 96 97
Width: 545
GlyphClass: 1
Flags: W
LayerCount: 2
Fore
SplineSet
317 348 m 5,0,-1
 272 348 l 5,1,2
 272 348 272 348 226 348 c 5,3,-1
 196 380 l 5,4,-1
 184 430 l 5,5,-1
 180 496 l 5,6,7
 180 496 180 496 198 530 c 5,8,-1
 226 576 l 5,9,-1
 256 612 l 5,10,-1
 280 638 l 5,11,-1
 296 656 l 5,12,-1
 328 684 l 5,13,-1
 362 712 l 5,14,-1
 362 712 l 5,15,-1
 346 634 l 5,16,-1
 310 598 l 5,17,-1
 288 562 l 5,18,-1
 276 532 l 5,19,-1
 272 502 l 5,20,-1
 290 485 l 5,21,22
 290 485 290 485 342 478 c 5,23,-1
 362 444 l 5,24,25
 362 444 362 444 366 394 c 5,26,-1
 350 368 l 5,27,-1
 317 348 l 5,0,-1
363 710 m 1025,28,-1
EndSplineSet
Validated: 5
EndChar

StartChar: a
Encoding: 97 97 98
Width: 545
GlyphClass: 1
Flags: W
LayerCount: 2
Fore
SplineSet
192 474 m 5,0,-1
 295 482 l 5,1,2
 295 482 295 482 368 481 c 5,3,4
 368 481 368 481 413 464 c 5,5,-1
 435 432 l 5,6,-1
 450 374 l 5,7,-1
 454 320 l 5,8,9
 454 320 454 320 454 73 c 5,10,-1
 500 73 l 5,11,-1
 500 28 l 5,12,-1
 363 28 l 5,13,-1
 363 73 l 5,14,-1
 343 45 l 5,15,-1
 318 28 l 5,16,-1
 144 28 l 5,17,-1
 103 59 l 5,18,-1
 90 93 l 5,19,-1
 90 192 l 5,20,-1
 108 264 l 5,21,-1
 140 290 l 5,22,-1
 220 324 l 5,23,-1
 277 342 l 5,24,-1
 363 346 l 5,25,-1
 362 404 l 5,26,-1
 352 422 l 5,27,28
 352 422 352 422 326 437 c 5,29,30
 326 437 326 437 294 437 c 5,31,32
 294 437 294 437 253 434 c 5,33,34
 253 434 253 434 222 430 c 5,35,-1
 198 420 l 5,36,-1
 184 391 l 5,37,-1
 181 362 l 5,38,39
 181 362 181 362 172 346 c 5,40,-1
 146 346 l 5,41,-1
 136 361 l 5,42,43
 136 361 136 361 136 390 c 5,44,45
 136 390 136 390 144 424 c 5,46,-1
 164 452 l 5,47,-1
 192 474 l 5,0,-1
272 296 m 5,48,-1
 249 288 l 5,49,-1
 220 274 l 5,50,51
 220 274 220 274 190 248 c 5,52,-1
 181 210 l 5,53,54
 181 210 181 210 181 140 c 5,55,56
 181 140 181 140 192 112 c 5,57,-1
 209 84 l 5,58,-1
 227 73 l 5,59,-1
 318 73 l 5,60,-1
 356 98 l 5,61,-1
 364 140 l 5,62,-1
 363 272 l 5,63,64
 363 272 363 272 350 300 c 5,65,-1
 302 300 l 5,66,67
 329 300 329 300 294 300 c 5,68,69
 294 300 294 300 272 296 c 5,48,-1
EndSplineSet
EndChar

StartChar: b
Encoding: 98 98 99
Width: 545
GlyphClass: 1
Flags: W
LayerCount: 2
Fore
SplineSet
0 573 m 1,0,-1
 45 573 l 1,1,-1
 45 28 l 1,2,-1
 90 28 l 1,3,-1
 90 73 l 1,4,-1
 138 50 l 1,5,-1
 212 28 l 1,6,-1
 320 24 l 1,7,-1
 394 36 l 1,8,-1
 442 56 l 1,9,-1
 472 74 l 1,10,-1
 492 104 l 1,11,-1
 504 156 l 1,12,13
 504 156 504 156 508 228 c 1,14,15
 508 228 508 228 502 310 c 1,16,17
 502 310 502 310 492 364 c 1,18,-1
 480 404 l 1,19,-1
 454 437 l 1,20,-1
 414 462 l 1,21,-1
 374 472 l 1,22,-1
 314 482 l 1,23,24
 314 482 314 482 262 482 c 1,25,-1
 206 472 l 1,26,-1
 180 460 l 1,27,-1
 160 434 l 1,28,-1
 136 391 l 1,29,-1
 136 710 l 1,30,-1
 0 573 l 1,0,-1
181 391 m 1,31,-1
 262 406 l 5,32,33
 262 406 262 406 326 402 c 1,34,-1
 370 378 l 1,35,-1
 394 346 l 1,36,-1
 409 288 l 1,37,38
 409 208 409 208 409 208 c 129,-1,39
 409 208 409 208 406 158 c 1,40,-1
 392 116 l 1,41,-1
 354 86 l 1,42,-1
 296 73 l 1,43,44
 296 73 296 73 238 82 c 1,45,-1
 194 94 l 1,46,-1
 166 116 l 1,47,-1
 140 146 l 1,48,-1
 136 188 l 1,49,-1
 136 228 l 1,50,51
 134 284 134 284 134 284 c 129,-1,52
 134 284 134 284 140 340 c 1,53,-1
 156 372 l 1,54,-1
 181 391 l 1,31,-1
EndSplineSet
Validated: 9
EndChar

StartChar: c
Encoding: 99 99 100
Width: 545
GlyphClass: 1
Flags: W
LayerCount: 2
Fore
SplineSet
174 488 m 1,0,-1
 260 498 l 1,1,2
 260 498 260 498 346 494 c 1,3,4
 346 494 346 494 390 484 c 1,5,-1
 426 462 l 1,6,-1
 454 426 l 1,7,-1
 454 382 l 1,8,9
 454 382 454 382 442 356 c 1,10,-1
 408 346 l 1,11,12
 408 346 408 346 372 362 c 1,13,-1
 363 391 l 1,14,-1
 340 424 l 1,15,-1
 266 442 l 1,16,-1
 196 436 l 1,17,-1
 164 416 l 1,18,-1
 140 374 l 1,19,-1
 136 318 l 1,20,21
 136 318 136 318 138 218 c 1,22,23
 138 218 138 218 146 150 c 1,24,-1
 164 112 l 1,25,-1
 198 84 l 1,26,-1
 236 73 l 1,27,28
 236 73 236 73 294 73 c 1,29,30
 294 73 294 73 342 90 c 1,31,-1
 363 119 l 1,32,-1
 388 148 l 1,33,-1
 409 164 l 1,34,-1
 454 146 l 1,35,-1
 456 98 l 1,36,-1
 428 66 l 1,37,-1
 386 42 l 1,38,-1
 332 28 l 1,39,40
 332 28 332 28 256 24 c 1,41,42
 256 24 256 24 178 30 c 1,43,-1
 130 42 l 1,44,-1
 100 62 l 1,45,-1
 70 94 l 1,46,-1
 52 130 l 1,47,-1
 45 192 l 1,48,49
 45 192 45 192 45 298 c 1,50,51
 45 298 45 298 56 364 c 1,52,-1
 76 414 l 1,53,-1
 102 456 l 1,54,-1
 134 478 l 1,55,-1
 174 488 l 1,0,-1
EndSplineSet
Validated: 1
EndChar

StartChar: d
Encoding: 100 100 101
Width: 545
GlyphClass: 1
Flags: W
LayerCount: 2
Fore
SplineSet
50 160 m 1,0,-1
 38 276 l 1,1,2
 38 276 38 276 45 346 c 1,3,-1
 58 378 l 1,4,-1
 90 437 l 1,5,-1
 126 478 l 1,6,-1
 170 492 l 1,7,-1
 228 500 l 1,8,9
 228 500 228 500 294 492 c 1,10,-1
 370 474 l 1,11,-1
 409 437 l 1,12,-1
 409 619 l 1,13,-1
 363 619 l 1,14,-1
 409 710 l 1,15,-1
 500 710 l 1,16,-1
 500 73 l 1,17,-1
 545 73 l 1,18,-1
 545 28 l 1,19,-1
 409 28 l 1,20,-1
 409 119 l 1,21,-1
 390 88 l 1,22,-1
 366 62 l 1,23,-1
 336 36 l 1,24,-1
 300 22 l 1,25,-1
 226 22 l 1,26,27
 226 22 226 22 158 28 c 1,28,-1
 118 46 l 1,29,-1
 78 84 l 1,30,-1
 50 160 l 1,0,-1
224 450 m 1,31,-1
 176 442 l 1,32,-1
 146 406 l 1,33,-1
 136 358 l 1,34,35
 136 358 136 358 130 268 c 1,36,37
 130 268 130 268 134 198 c 1,38,-1
 138 152 l 1,39,-1
 156 114 l 1,40,-1
 190 82 l 1,41,-1
 227 73 l 1,42,-1
 280 70 l 1,43,-1
 324 90 l 1,44,-1
 363 119 l 1,45,-1
 390 144 l 1,46,-1
 409 164 l 1,47,-1
 409 286 l 1,48,49
 409 286 409 286 409 346 c 1,50,-1
 392 362 l 5,51,-1
 363 391 l 1,52,-1
 326 420 l 1,53,-1
 294 440 l 1,54,-1
 224 450 l 1,31,-1
EndSplineSet
Validated: 1
EndChar

StartChar: e
Encoding: 101 101 102
Width: 545
GlyphClass: 1
Flags: W
LayerCount: 2
Fore
SplineSet
181 482 m 5,0,-1
 324 484 l 5,1,-1
 410 464 l 5,2,-1
 454 437 l 5,3,-1
 484 402 l 5,4,-1
 500 340 l 5,5,-1
 500 255 l 5,6,-1
 136 255 l 5,7,-1
 138 188 l 5,8,-1
 144 144 l 5,9,-1
 168 104 l 5,10,-1
 198 78 l 5,11,-1
 258 70 l 5,12,-1
 310 70 l 5,13,14
 310 70 310 70 378 78 c 5,15,16
 378 78 378 78 400 94 c 5,17,-1
 409 119 l 5,18,-1
 500 119 l 5,19,-1
 500 73 l 5,20,-1
 450 48 l 5,21,-1
 409 28 l 5,22,-1
 268 26 l 5,23,-1
 224 28 l 5,24,-1
 172 44 l 5,25,-1
 134 56 l 5,26,-1
 92 86 l 5,27,-1
 58 124 l 5,28,-1
 45 164 l 5,29,-1
 44 320 l 5,30,-1
 70 404 l 5,31,-1
 90 437 l 5,32,-1
 134 468 l 5,33,-1
 181 482 l 5,0,-1
204 430 m 5,34,-1
 172 416 l 5,35,36
 172 416 172 416 144 388 c 5,37,-1
 138 352 l 5,38,-1
 136 300 l 5,39,-1
 409 300 l 5,40,-1
 408 348 l 5,41,-1
 386 402 l 5,42,-1
 342 432 l 5,43,-1
 294 433.846153846 l 5,44,45
 294 433.846153846 294 433.846153846 204 430 c 5,34,-1
EndSplineSet
Validated: 1
EndChar

StartChar: f
Encoding: 102 102 103
Width: 545
GlyphClass: 1
Flags: W
LayerCount: 2
Fore
SplineSet
256 698 m 1,0,-1
 340 714 l 1,1,2
 340 714 340 714 390 710 c 1,3,-1
 428 686 l 1,4,-1
 450 658 l 1,5,-1
 454 622 l 1,6,7
 454 622 454 622 448 584 c 1,8,-1
 406 573 l 1,9,10
 406 573 406 573 366 586 c 1,11,-1
 363 620 l 1,12,13
 363 620 363 620 348 660 c 1,14,-1
 320 664 l 1,15,16
 320 664 320 664 296 656 c 1,17,18
 296 656 296 656 272 630 c 1,19,-1
 272 578 l 1,20,21
 272 578 272 578 272 391 c 1,22,-1
 409 391 l 1,23,-1
 409 346 l 1,24,-1
 272 346 l 1,25,-1
 272 73 l 1,26,-1
 318 73 l 1,27,-1
 318 28 l 1,28,-1
 136 28 l 1,29,-1
 136 73 l 1,30,-1
 181 73 l 1,31,-1
 181 346 l 1,32,-1
 136 346 l 1,33,-1
 136 391 l 1,34,-1
 181 391 l 1,35,-1
 181 510 l 1,36,37
 181 510 181 510 181 573 c 1,38,-1
 186 606 l 1,39,-1
 208 650 l 1,40,-1
 234 680 l 1,41,-1
 256 698 l 1,0,-1
EndSplineSet
Validated: 1
EndChar

StartChar: g
Encoding: 103 103 104
Width: 545
GlyphClass: 1
Flags: W
LayerCount: 2
Fore
SplineSet
174 472 m 1,0,-1
 250 482 l 1,1,2
 250 482 250 482 326 470 c 1,3,-1
 363 437 l 1,4,-1
 406 428 l 1,5,6
 406 428 406 428 448 437 c 1,7,-1
 464 458 l 1,8,-1
 469 482 l 1,9,10
 469 482 469 482 500 482 c 1,11,-1
 500 418 l 1,12,13
 500 418 500 418 482 398 c 1,14,-1
 458 388 l 1,15,-1
 454 354 l 1,16,17
 454 354 454 354 454 326 c 1,18,19
 454 326 454 326 450 286 c 1,20,21
 450 286 450 286 442 259 c 1,22,-1
 424 230 l 1,23,-1
 404 212 l 1,24,-1
 366 200 l 1,25,-1
 295 186 l 1,26,-1
 217 178 l 1,27,28
 217 178 217 178 146 167 c 1,29,30
 146 167 146 167 122 147 c 1,31,-1
 116 119 l 1,32,-1
 409 119 l 1,33,34
 409 119 409 119 440 110 c 1,35,-1
 469 90 l 1,36,-1
 492 60 l 1,37,-1
 500 -14 l 1,38,39
 500 -14 500 -14 500 -109 c 1,40,-1
 488 -139 l 1,41,-1
 468 -170 l 1,42,-1
 442 -190 l 1,43,-1
 409 -200 l 1,44,-1
 264 -200 l 1,45,46
 264 -200 264 -200 104 -189 c 1,47,-1
 70 -168 l 1,48,-1
 53 -148 l 1,49,-1
 45 -122 l 1,50,51
 45 -122 45 -122 45 -84 c 1,52,53
 45 -84 45 -84 56 -42 c 1,54,-1
 78 -11 l 1,55,-1
 90 41 l 1,56,57
 90 41 90 41 85 62 c 1,58,-1
 65 73 l 1,59,-1
 45.3833333333 96 l 1,60,61
 45.3833333333 96 45.3833333333 96 46 133 c 1,62,-1
 69 164 l 1,63,64
 69 164 69 164 90 178 c 1,65,-1
 90 210 l 1,66,67
 90 210 90 210 80 248 c 1,68,-1
 56 276 l 1,69,-1
 45 326 l 1,70,71
 45 326 45 326 58 382 c 1,72,-1
 74 416 l 1,73,-1
 92 433 l 1,74,-1
 123 454 l 1,75,-1
 174 472 l 1,0,-1
194 428 m 1,76,-1
 162 409 l 1,77,-1
 141 379 l 1,78,-1
 136 326 l 1,79,80
 136 326 136 326 142 265 c 1,81,-1
 163 236 l 1,82,-1
 194 216 l 1,83,-1
 250 210 l 1,84,85
 250 210 250 210 307 215 c 1,86,-1
 335 238 l 1,87,-1
 358 271 l 1,88,-1
 363 326 l 1,89,90
 363 326 363 326 359 381 c 1,91,-1
 340 408 l 1,92,-1
 310 428 l 1,93,-1
 250 437 l 1,94,95
 250 437 250 437 194 428 c 1,76,-1
185 24 m 1,96,-1
 124 6 l 1,97,-1
 96 -24 l 1,98,-1
 90 -62 l 1,99,100
 90 -62 90 -62 92 -91 c 1,101,-1
 108 -102 l 1,102,103
 108 -102 108 -102 190 -124 c 5,104,105
 190 -124 190 -124 278 -134 c 1,106,107
 278 -134 278 -134 354 -132 c 1,108,109
 354 -132 354 -132 410 -126 c 1,110,111
 410 -126 410 -126 445 -110 c 1,112,-1
 454 -60 l 1,113,114
 454 -60 454 -60 445 -17 c 1,115,-1
 420 10 l 1,116,-1
 380 22 l 1,117,-1
 380 22 l 1,118,119
 380 22 380 22 278 28 c 1,120,121
 278 28 278 28 213 28 c 1,122,123
 213 28 213 28 185 24 c 1,96,-1
EndSplineSet
Validated: 5
EndChar

StartChar: h
Encoding: 104 104 105
Width: 545
GlyphClass: 1
Flags: W
LayerCount: 2
Fore
SplineSet
45 573 m 1,0,-1
 90 573 l 1,1,-1
 90 73 l 1,2,-1
 45 73 l 1,3,-1
 45 28 l 1,4,-1
 227 28 l 1,5,-1
 227 73 l 1,6,-1
 181 73 l 1,7,-1
 181 332 l 1,8,9
 181 332 181 332 181 391 c 1,10,-1
 202 418 l 1,11,-1
 240 438 l 1,12,-1
 282 448 l 1,13,14
 282 448 282 448 318 448 c 5,15,-1
 348 430 l 1,16,-1
 363 391 l 1,17,-1
 363 342 l 1,18,19
 363 342 363 342 363 73 c 1,20,-1
 318 73 l 1,21,-1
 318 28 l 1,22,-1
 500 28 l 1,23,-1
 500 73 l 1,24,-1
 454 73 l 1,25,-1
 454 370 l 1,26,27
 454 370 454 370 454 426 c 1,28,-1
 432 466 l 1,29,-1
 409 482 l 1,30,-1
 358 494 l 1,31,32
 358 494 358 494 306 494 c 1,33,34
 306 494 306 494 240 484 c 1,35,-1
 210 460 l 1,36,-1
 181 437 l 1,37,-1
 181 710 l 1,38,-1
 45 573 l 1,0,-1
EndSplineSet
Validated: 9
EndChar

StartChar: i
Encoding: 105 105 106
Width: 545
GlyphClass: 1
Flags: W
LayerCount: 2
Fore
SplineSet
227 664 m 1,0,-1
 318 664 l 1,1,-1
 318 573 l 1,2,-1
 227 573 l 1,3,-1
 227 664 l 1,0,-1
136 482 m 1,4,-1
 318 482 l 1,5,-1
 318 73 l 1,6,-1
 409 73 l 1,7,-1
 409 28 l 1,8,-1
 136 28 l 1,9,-1
 136 73 l 1,10,-1
 227 73 l 1,11,-1
 227 437 l 1,12,-1
 136 437 l 1,13,-1
 136 482 l 1,4,-1
EndSplineSet
Validated: 1
EndChar

StartChar: j
Encoding: 106 106 107
Width: 545
GlyphClass: 1
Flags: W
LayerCount: 2
Fore
SplineSet
363 664 m 1,0,-1
 454 664 l 1,1,-1
 454 573 l 1,2,-1
 363 573 l 1,3,-1
 363 664 l 1,0,-1
272 482 m 1,4,-1
 454 482 l 1,5,-1
 454 -12 l 1,6,-1
 438 -89 l 1,7,-1
 416 -129 l 1,8,-1
 396 -155 l 1,9,-1
 363 -176 l 1,10,-1
 335 -194 l 1,11,-1
 303 -202 l 1,12,-1
 247 -206 l 1,13,14
 247 -206 247 -206 212 -200 c 1,15,16
 212 -200 212 -200 185 -186 c 1,17,-1
 158 -164 l 1,18,-1
 135 -141 l 1,19,-1
 112 -113 l 1,20,-1
 93 -78 l 1,21,-1
 90 -53 l 1,22,23
 90 -53 90 -53 90 28 c 1,24,-1
 136 28 l 1,25,-1
 180 28 l 1,26,-1
 181 -20 l 1,27,-1
 181 -65 l 1,28,-1
 190 -100 l 1,29,-1
 214 -129 l 1,30,-1
 246 -147 l 1,31,32
 246 -147 246 -147 301 -148 c 1,33,34
 301 -148 301 -148 338 -127 c 1,35,36
 338 -127 338 -127 361 -76 c 1,37,38
 361 -76 361 -76 365 -37 c 1,39,-1
 363 437 l 1,40,-1
 272 437 l 1,41,-1
 272 482 l 1,4,-1
EndSplineSet
EndChar

StartChar: k
Encoding: 107 107 108
Width: 545
GlyphClass: 1
Flags: W
LayerCount: 2
Fore
SplineSet
162 276 m 1,0,-1
 306 372 l 1,1,-1
 448 426 l 1,2,-1
 454 482 l 1,3,-1
 394 482 l 1,4,-1
 306 446 l 1,5,-1
 198 378 l 1,6,-1
 136 346 l 1,7,-1
 136 710 l 1,8,-1
 0 619 l 1,9,-1
 45 619 l 1,10,-1
 45 73 l 1,11,-1
 0 73 l 1,12,-1
 0 28 l 1,13,-1
 181 28 l 1,14,-1
 181 73 l 1,15,-1
 136 73 l 1,16,-1
 136 210 l 1,17,-1
 136 210 l 1,18,-1
 230 130 l 1,19,-1
 300 64 l 1,20,-1
 370 32 l 5,21,-1
 500 28 l 1,22,-1
 500 73 l 1,23,-1
 424 72 l 1,24,-1
 342 112 l 1,25,-1
 296 150 l 1,26,-1
 230 216 l 1,27,-1
 162 276 l 1,0,-1
EndSplineSet
Validated: 5
EndChar

StartChar: l
Encoding: 108 108 109
Width: 545
GlyphClass: 1
Flags: W
LayerCount: 2
Fore
SplineSet
136 710 m 1,0,-1
 318 710 l 1,1,-1
 318 73 l 1,2,-1
 409 73 l 1,3,-1
 409 28 l 1,4,-1
 136 28 l 1,5,-1
 136 73 l 1,6,-1
 227 73 l 1,7,-1
 227 664 l 1,8,-1
 136 664 l 1,9,-1
 136 710 l 1,0,-1
EndSplineSet
Validated: 1
EndChar

StartChar: m
Encoding: 109 109 110
Width: 545
GlyphClass: 1
Flags: W
LayerCount: 2
Fore
SplineSet
0 482 m 1,0,-1
 90 482 l 1,1,-1
 90 437 l 1,2,-1
 110 464 l 1,3,-1
 136 482 l 1,4,-1
 230 480 l 1,5,-1
 260 466 l 1,6,7
 260 466 260 466 272 437 c 1,8,-1
 290 470 l 1,9,-1
 318 482 l 1,10,-1
 454 482 l 1,11,-1
 484 468 l 1,12,-1
 500 437 l 1,13,-1
 500 73 l 1,14,-1
 545 73 l 1,15,-1
 545 28 l 1,16,-1
 409 28 l 1,17,-1
 409 391 l 1,18,-1
 396 424 l 1,19,-1
 363 437 l 1,20,-1
 318 437 l 1,21,-1
 318 73 l 1,22,-1
 363 73 l 1,23,-1
 363 28 l 1,24,-1
 181 28 l 1,25,-1
 181 73 l 1,26,-1
 227 73 l 1,27,-1
 227 391 l 1,28,-1
 212 424 l 1,29,-1
 181 437 l 1,30,-1
 136 437 l 1,31,-1
 136 28 l 1,32,-1
 0 28 l 1,33,-1
 0 73 l 1,34,-1
 45 73 l 1,35,-1
 45 437 l 1,36,-1
 0 437 l 1,37,-1
 0 482 l 1,0,-1
EndSplineSet
Validated: 1
EndChar

StartChar: n
Encoding: 110 110 111
Width: 545
GlyphClass: 1
Flags: W
LayerCount: 2
Fore
SplineSet
137 507 m 5,0,-1
 136 402 l 5,1,-1
 178 470 l 5,2,-1
 270 488 l 5,3,-1
 409 482 l 5,4,-1
 438 464 l 5,5,-1
 454 437 l 5,6,-1
 454 73 l 5,7,-1
 500 73 l 5,8,-1
 500 28 l 5,9,-1
 318 28 l 5,10,-1
 318 73 l 5,11,-1
 363 73 l 5,12,-1
 363 391 l 5,13,-1
 350 422 l 5,14,-1
 318 437 l 5,15,-1
 250 434 l 5,16,-1
 212 418 l 5,17,-1
 181 391 l 5,18,-1
 181 73 l 5,19,-1
 227 73 l 5,20,-1
 227 28 l 5,21,-1
 45 28 l 5,22,-1
 45 73 l 5,23,-1
 90 73 l 5,24,-1
 91 416 l 5,25,-1
 46 416 l 5,26,-1
 137 507 l 5,0,-1
EndSplineSet
Validated: 1
EndChar

StartChar: o
Encoding: 111 111 112
Width: 545
GlyphClass: 1
Flags: W
LayerCount: 2
Fore
SplineSet
500 164 m 5,0,-1
 500 234 l 5,1,2
 500 314 500 314 500 314 c 133,-1,3
 500 314 500 314 492 366 c 5,4,-1
 474 412 l 5,5,-1
 454 437 l 5,6,-1
 432 452 l 5,7,-1
 392 482 l 5,8,-1
 272 490 l 5,9,-1
 188 482 l 5,10,-1
 146 462 l 5,11,-1
 114 436 l 5,12,-1
 84 406 l 5,13,-1
 46 332 l 5,14,-1
 42 264 l 5,15,-1
 46 156 l 5,16,-1
 62 102 l 5,17,-1
 90 73 l 5,18,-1
 130 44 l 5,19,-1
 190 24 l 5,20,-1
 363 28 l 5,21,-1
 398 48 l 5,22,-1
 428 72 l 5,23,-1
 470 108 l 5,24,-1
 500 164 l 5,0,-1
194 434 m 5,25,-1
 248 437 l 5,26,27
 248 437 248 437 304 436 c 5,28,-1
 338 424 l 5,29,-1
 366 402 l 5,30,-1
 380 384 l 5,31,-1
 398 342 l 5,32,-1
 409 294 l 5,33,34
 409 192 409 192 409 192 c 133,-1,35
 409 192 409 192 406 138 c 5,36,-1
 378 96 l 5,37,-1
 340 78 l 5,38,-1
 294 73 l 5,39,40
 294 73 294 73 254 78 c 5,41,-1
 222 86 l 5,42,-1
 182 100 l 5,43,-1
 150 132 l 5,44,-1
 132 158 l 5,45,-1
 118 210 l 5,46,47
 120 290 120 290 120 290 c 133,-1,48
 120 290 120 290 132 368 c 5,49,-1
 152 412 l 5,50,-1
 194 434 l 5,25,-1
EndSplineSet
Validated: 9
EndChar

StartChar: p
Encoding: 112 112 113
Width: 545
GlyphClass: 1
Flags: W
LayerCount: 2
Fore
SplineSet
0 482 m 1,0,-1
 136 482 l 1,1,-1
 136 437 l 1,2,-1
 166 456 l 1,3,-1
 240 484 l 1,4,-1
 374 482 l 1,5,-1
 428 470 l 1,6,-1
 458 440 l 1,7,-1
 488 394 l 1,8,-1
 502 332 l 1,9,-1
 504 220 l 1,10,-1
 476 132 l 1,11,-1
 444 86 l 1,12,-1
 404 50 l 1,13,-1
 340 26 l 1,14,-1
 286 14 l 1,15,-1
 210 14 l 1,16,-1
 136 28 l 1,17,-1
 136 -154 l 1,18,-1
 181 -154 l 1,19,-1
 181 -200 l 1,20,-1
 0 -200 l 1,21,-1
 0 -154 l 1,22,-1
 45 -154 l 1,23,-1
 45 437 l 1,24,-1
 0 437 l 1,25,-1
 0 482 l 1,0,-1
222 432 m 1,26,-1
 170 414 l 1,27,-1
 136 391 l 1,28,-1
 136 119 l 1,29,-1
 166 96 l 1,30,-1
 206 78 l 1,31,-1
 276 76 l 1,32,33
 276 76 276 76 328 90 c 1,34,-1
 382 114 l 1,35,-1
 408 158 l 1,36,-1
 410 260 l 1,37,-1
 396 344 l 1,38,-1
 374 390 l 1,39,-1
 338 414 l 1,40,-1
 298 432 l 1,41,-1
 222 432 l 1,26,-1
EndSplineSet
Validated: 1
EndChar

StartChar: q
Encoding: 113 113 114
Width: 545
GlyphClass: 1
Flags: W
LayerCount: 2
Fore
SplineSet
181 482 m 1,0,-1
 274 500 l 1,1,2
 274 500 274 500 363 482 c 1,3,-1
 414 462 l 1,4,-1
 454 437 l 1,5,-1
 454 482 l 1,6,-1
 500 482 l 1,7,-1
 500 -154 l 1,8,-1
 545 -154 l 1,9,-1
 545 -200 l 1,10,-1
 363 -200 l 1,11,-1
 363 -154 l 1,12,-1
 409 -154 l 1,13,-1
 408 50 l 1,14,-1
 318 28 l 1,15,16
 318 28 318 28 210 28 c 1,17,18
 210 28 210 28 170 30 c 1,19,-1
 112 54 l 1,20,-1
 90 73 l 1,21,-1
 68 94 l 1,22,-1
 50 132 l 1,23,-1
 45 188 l 1,24,25
 45 188 45 188 45 272 c 1,26,27
 45 272 45 272 48 326 c 1,28,-1
 60 370 l 1,29,-1
 78 402 l 1,30,-1
 94 424 l 1,31,-1
 116 442 l 1,32,-1
 142 458 l 1,33,-1
 181 482 l 1,0,-1
198 428 m 1,34,-1
 156 412 l 1,35,-1
 126 372 l 1,36,-1
 122 314 l 1,37,38
 122 314 122 314 124 246 c 1,39,40
 124 246 124 246 128 178 c 1,41,-1
 132 150 l 1,42,-1
 146 118 l 1,43,-1
 182 88 l 1,44,-1
 227 73 l 1,45,-1
 294 73 l 1,46,47
 294 73 294 73 330 74 c 1,48,-1
 376 84 l 1,49,-1
 408 102 l 1,50,-1
 409 192 l 1,51,52
 409 192 409 192 409 280 c 1,53,54
 409 280 409 280 409 346 c 1,55,-1
 396 370 l 1,56,-1
 370 400 l 1,57,-1
 340 416 l 1,58,-1
 304 430 l 1,59,-1
 246 437 l 1,60,61
 246 437 246 437 198 428 c 1,34,-1
EndSplineSet
Validated: 1
EndChar

StartChar: r
Encoding: 114 114 115
Width: 545
GlyphClass: 1
Flags: W
LayerCount: 2
Fore
SplineSet
45 482 m 1,0,-1
 181 482 l 1,1,-1
 181 391 l 1,2,-1
 210 416 l 1,3,-1
 227 437 l 1,4,-1
 254 466 l 1,5,-1
 272 482 l 1,6,-1
 308 490 l 1,7,8
 308 490 308 490 374 486 c 1,9,-1
 426 458 l 1,10,-1
 438 440 l 1,11,-1
 450 410 l 1,12,13
 450 410 450 410 454 372 c 1,14,15
 454 372 454 372 438 354 c 1,16,-1
 410 346 l 1,17,18
 410 346 410 346 376 352 c 1,19,-1
 363 368 l 1,20,21
 363 368 363 368 362 416 c 1,22,23
 362 416 362 416 338 438 c 1,24,-1
 290 438 l 1,25,-1
 254 416 l 1,26,-1
 227 391 l 1,27,-1
 204 370 l 1,28,-1
 181 346 l 1,29,-1
 181 73 l 1,30,-1
 227 73 l 1,31,-1
 227 28 l 1,32,-1
 45 28 l 1,33,-1
 45 73 l 1,34,-1
 90 73 l 1,35,-1
 90 437 l 1,36,-1
 45 437 l 1,37,-1
 45 482 l 1,0,-1
EndSplineSet
Validated: 1
EndChar

StartChar: s
Encoding: 115 115 116
Width: 545
GlyphClass: 1
Flags: W
LayerCount: 2
Fore
SplineSet
152 478 m 1,0,-1
 216 482 l 1,1,2
 216 482 216 482 328 482 c 1,3,4
 328 482 328 482 400 458 c 5,5,6
 400 458 400 458 398 484 c 5,7,8
 398 484 398 484 442 484 c 5,9,-1
 442 348 l 5,10,-1
 397 348 l 5,11,-1
 397 393 l 5,12,-1
 376 418 l 5,13,-1
 336 438 l 1,14,-1
 280 448 l 1,15,16
 280 448 280 448 218 448 c 1,17,18
 218 448 218 448 181 437 c 1,19,-1
 158 416 l 1,20,21
 158 416 158 416 156 380 c 1,22,23
 156 380 156 380 172 350 c 1,24,-1
 202 320 l 1,25,-1
 240 306 l 1,26,-1
 278 300 l 1,27,-1
 316 288 l 1,28,-1
 350 276 l 1,29,-1
 402 248 l 1,30,-1
 440 210 l 1,31,-1
 460 162 l 1,32,33
 460 162 460 162 456 106 c 1,34,-1
 430 68 l 1,35,-1
 402 42 l 1,36,-1
 324 28 l 1,37,38
 324 28 324 28 220 28 c 1,39,40
 220 28 220 28 128 62 c 1,41,42
 128 62 128 62 130 28 c 1,43,44
 130 28 130 28 90 28 c 1,45,-1
 90 164 l 1,46,-1
 136 164 l 1,47,-1
 136 119 l 1,48,-1
 150 104 l 1,49,-1
 178 86 l 1,50,-1
 240 66 l 1,51,52
 240 66 240 66 276 64 c 1,53,54
 276 64 276 64 328 68 c 1,55,-1
 364 86 l 1,56,57
 364 86 364 86 367.4 120 c 1,58,59
 367.4 120 367.4 120 370 146 c 1,60,-1
 350 190 l 1,61,-1
 318 210 l 1,62,-1
 268 226 l 1,63,-1
 210 248 l 1,64,-1
 160 262 l 1,65,-1
 124 292 l 1,66,-1
 100 320 l 1,67,-1
 90 366 l 1,68,69
 90 366 90 366 92 422 c 1,70,-1
 118 456 l 1,71,-1
 152 478 l 1,0,-1
EndSplineSet
Validated: 1
EndChar

StartChar: t
Encoding: 116 116 117
Width: 545
GlyphClass: 1
Flags: W
LayerCount: 2
Fore
SplineSet
227 619 m 1,0,-1
 272 619 l 1,1,-1
 272 482 l 1,2,-1
 454 482 l 1,3,-1
 454 437 l 1,4,-1
 272 437 l 1,5,-1
 274 162 l 1,6,-1
 286 102 l 1,7,-1
 332 74 l 1,8,-1
 370 73 l 1,9,10
 370 73 370 73 394 88 c 1,11,-1
 418 106 l 1,12,-1
 444 138 l 1,13,-1
 454 164 l 1,14,-1
 500 164 l 1,15,-1
 500 119 l 1,16,-1
 480 86 l 1,17,-1
 454 60 l 1,18,-1
 422 36 l 1,19,-1
 386 28 l 1,20,-1
 354 28 l 1,21,22
 354 28 354 28 276 28 c 1,23,24
 276 28 276 28 230 42 c 1,25,-1
 204 62 l 1,26,-1
 186 102 l 1,27,-1
 181 158 l 1,28,29
 181 158 181 158 181 437 c 1,30,-1
 45 437 l 1,31,-1
 45 482 l 1,32,-1
 110 482 l 1,33,34
 110 482 110 482 150 490 c 1,35,-1
 188 508 l 1,36,-1
 220 542 l 1,37,-1
 227 576 l 1,38,39
 227 576 227 576 227 619 c 1,0,-1
EndSplineSet
Validated: 1
EndChar

StartChar: u
Encoding: 117 117 118
Width: 545
GlyphClass: 1
Flags: W
LayerCount: 2
Fore
SplineSet
45 482 m 5,0,-1
 227 482 l 5,1,-1
 227 437 l 5,2,-1
 181 437 l 5,3,-1
 181 119 l 5,4,-1
 200 84 l 5,5,-1
 230 66 l 5,6,-1
 268 64 l 5,7,8
 268 64 268 64 310 68 c 5,9,-1
 340 82 l 5,10,-1
 363 119 l 5,11,-1
 363 182 l 5,12,13
 363 182 363 182 363 437 c 5,14,-1
 318 437 l 5,15,-1
 318 482 l 5,16,-1
 500 482 l 5,17,-1
 500 437 l 5,18,-1
 454 437 l 5,19,-1
 454 73 l 5,20,-1
 500 73 l 5,21,-1
 500 28 l 5,22,-1
 409 28 l 5,23,-1
 409 73 l 5,24,-1
 380 46 l 5,25,26
 380 46 380 46 348 32 c 5,27,-1
 318 28 l 5,28,-1
 268 28 l 5,29,30
 268 28 268 28 202 28 c 5,31,32
 202 28 202 28 148 36 c 5,33,-1
 112 60 l 5,34,-1
 98 90 l 5,35,-1
 90 142 l 5,36,37
 90 142 90 142 90 437 c 5,38,-1
 45 437 l 5,39,-1
 45 482 l 5,0,-1
EndSplineSet
Validated: 1
EndChar

StartChar: v
Encoding: 118 118 119
Width: 545
GlyphClass: 1
Flags: W
LayerCount: 2
Fore
SplineSet
454 437 m 1,0,-1
 409 437 l 1,1,-1
 409 482 l 1,2,-1
 545 482 l 1,3,-1
 545 437 l 1,4,-1
 500 437 l 1,5,-1
 318 28 l 1,6,-1
 238 28 l 1,7,-1
 40 438 l 1,8,-1
 0 437 l 1,9,-1
 0 482 l 1,10,-1
 181 482 l 1,11,-1
 181 437 l 1,12,-1
 122 438 l 1,13,-1
 272 119 l 1,14,-1
 316 118 l 1,15,-1
 454 437 l 1,0,-1
EndSplineSet
Validated: 1
EndChar

StartChar: w
Encoding: 119 119 120
Width: 545
GlyphClass: 1
Flags: W
LayerCount: 2
Fore
SplineSet
384 136 m 1,0,-1
 454 437 l 1,1,-1
 409 437 l 1,2,-1
 409 482 l 1,3,-1
 545 482 l 1,4,-1
 545 437 l 1,5,-1
 500 437 l 1,6,-1
 409 28 l 1,7,-1
 318 28 l 1,8,-1
 272 255 l 1,9,-1
 227 28 l 1,10,-1
 227 28 l 1,11,-1
 136 28 l 1,12,-1
 45 437 l 1,13,-1
 0 437 l 1,14,-1
 0 482 l 1,15,-1
 363 482 l 1,16,-1
 363 437 l 1,17,-1
 318 437 l 1,18,-1
 384 136 l 1,0,-1
188 148 m 1,19,-1
 258 438 l 1,20,-1
 227 437 l 1,21,-1
 136 437 l 1,22,-1
 188 148 l 1,19,-1
EndSplineSet
Validated: 5
EndChar

StartChar: x
Encoding: 120 120 121
Width: 545
GlyphClass: 1
Flags: W
LayerCount: 2
Fore
SplineSet
319 270 m 1,0,-1
 474 436 l 1,1,-1
 545 437 l 1,2,-1
 545 482 l 1,3,-1
 363 482 l 1,4,-1
 363 437 l 1,5,-1
 409 437 l 1,6,-1
 288 307 l 1,7,-1
 166 436 l 1,8,-1
 227 437 l 1,9,-1
 227 482 l 1,10,-1
 0 482 l 1,11,-1
 0 437 l 1,12,-1
 45 437 l 1,13,-1
 228 247 l 1,14,-1
 70 72 l 1,15,-1
 0 73 l 1,16,-1
 0 28 l 1,17,-1
 181 28 l 1,18,-1
 181 73 l 1,19,-1
 136 73 l 1,20,-1
 257 210 l 1,21,-1
 377 72 l 1,22,-1
 318 73 l 1,23,-1
 318 28 l 1,24,-1
 545 28 l 1,25,-1
 545 73 l 1,26,-1
 500 73 l 1,27,-1
 319 270 l 1,0,-1
EndSplineSet
Validated: 9
EndChar

StartChar: y
Encoding: 121 121 122
Width: 545
GlyphClass: 1
Flags: W
LayerCount: 2
Fore
SplineSet
272 119 m 1,0,-1
 272 119 l 1,1,-1
 199 306 l 1,2,-1
 136 437 l 1,3,-1
 181 437 l 1,4,-1
 181 482 l 1,5,-1
 0 482 l 1,6,-1
 0 437 l 1,7,-1
 45 437 l 1,8,-1
 110 347 l 1,9,-1
 136 300 l 1,10,-1
 157 263 l 1,11,-1
 181 210 l 1,12,-1
 204 154 l 1,13,-1
 224 89 l 1,14,-1
 223 0 l 1,15,-1
 205 -68 l 1,16,-1
 181 -109 l 1,17,-1
 45 -109 l 1,18,-1
 45 -200 l 1,19,-1
 181 -200 l 1,20,-1
 207 -179 l 1,21,-1
 227 -154 l 1,22,-1
 246 -125 l 1,23,-1
 264 -81 l 1,24,-1
 273 -46 l 1,25,-1
 285 -9 l 1,26,-1
 298 40 l 1,27,-1
 345 146 l 1,28,-1
 500 437 l 1,29,-1
 545 437 l 1,30,-1
 545 482 l 1,31,-1
 363 482 l 1,32,-1
 363 437 l 1,33,-1
 432 437 l 5,34,-1
 272 119 l 1,0,-1
EndSplineSet
Validated: 5
EndChar

StartChar: z
Encoding: 122 122 123
Width: 545
GlyphClass: 1
Flags: W
LayerCount: 2
Fore
SplineSet
181 73 m 1,0,-1
 409 73 l 1,1,-1
 500 164 l 1,2,-1
 500 28 l 1,3,-1
 45 28 l 1,4,-1
 45 79 l 1,5,-1
 363 437 l 1,6,-1
 136 437 l 1,7,-1
 45 346 l 1,8,-1
 45 482 l 1,9,-1
 500 482 l 1,10,-1
 500 431 l 5,11,-1
 181 73 l 1,0,-1
EndSplineSet
EndChar

StartChar: braceleft
Encoding: 123 123 124
Width: 545
GlyphClass: 1
Flags: W
LayerCount: 2
Fore
SplineSet
326 703 m 5,0,-1
 428 710 l 5,1,2
 428 710 428 710 454 710 c 5,3,-1
 454 688 l 5,4,5
 454 688 454 688 423 686 c 5,6,-1
 385 681 l 5,7,8
 385 681 385 681 357 659 c 5,9,-1
 349 626 l 5,10,11
 349 626 349 626 356 593 c 5,12,-1
 362 541 l 5,13,-1
 360 489 l 5,14,15
 360 489 360 489 348 448 c 5,16,-1
 328 402 l 5,17,-1
 317 384 l 5,18,19
 317 384 317 384 306 371 c 5,20,21
 306 371 306 371 316 357 c 5,22,23
 316 357 316 357 331 326 c 5,24,-1
 345 284 l 5,25,-1
 354 242 l 5,26,27
 354 242 354 242 349 176 c 5,28,-1
 339 135 l 5,29,-1
 339 103 l 5,30,31
 339 103 339 103 351 75 c 5,32,-1
 380 56 l 5,33,34
 380 56 380 56 413 54 c 5,35,-1
 454 52 l 5,36,37
 454 52 454 52 454 28 c 5,38,-1
 427 28 l 5,39,40
 427 28 427 28 330 33 c 5,41,-1
 299 55 l 5,42,-1
 289 79 l 5,43,-1
 286 104 l 5,44,45
 286 104 286 104 294 134 c 5,46,-1
 304 161 l 5,47,-1
 312 226 l 5,48,49
 312 226 312 226 301 274 c 5,50,-1
 287 317 l 5,51,-1
 272 346 l 5,52,-1
 227 367 l 5,53,-1
 272 391 l 5,54,-1
 272 391 l 5,55,-1
 289 423 l 5,56,-1
 308 462 l 5,57,-1
 318 509 l 5,58,59
 318 509 318 509 310 570 c 5,60,-1
 293 601 l 5,61,-1
 284 634 l 5,62,63
 284 634 284 634 289 663 c 5,64,-1
 306 688 l 5,65,-1
 326 703 l 5,0,-1
EndSplineSet
Validated: 5
EndChar

StartChar: bar
Encoding: 124 124 125
Width: 545
GlyphClass: 1
Flags: W
LayerCount: 2
Fore
SplineSet
227 710 m 1,0,-1
 318 710 l 1,1,-1
 318 -200 l 1,2,-1
 227 -200 l 1,3,-1
 227 710 l 1,0,-1
EndSplineSet
Validated: 1
EndChar

StartChar: braceright
Encoding: 125 125 126
Width: 545
GlyphClass: 1
Flags: W
LayerCount: 2
Fore
SplineSet
261 706 m 5,0,-1
 159 713 l 5,1,2
 159 713 159 713 133 713 c 5,3,-1
 133 691 l 5,4,5
 133 691 133 691 164 689 c 5,6,-1
 202 684 l 5,7,8
 202 684 202 684 230 662 c 5,9,-1
 238 629 l 5,10,11
 238 629 238 629 231 596 c 5,12,-1
 225 544 l 5,13,-1
 227 492 l 5,14,15
 227 492 227 492 239 451 c 5,16,-1
 259 405 l 5,17,-1
 270 387 l 5,18,19
 270 387 270 387 281 374 c 5,20,21
 281 374 281 374 271 360 c 5,22,23
 271 360 271 360 256 329 c 5,24,-1
 242 287 l 5,25,-1
 233 245 l 5,26,27
 233 245 233 245 238 179 c 5,28,-1
 248 138 l 5,29,-1
 248 106 l 5,30,31
 248 106 248 106 236 78 c 5,32,-1
 207 59 l 5,33,34
 207 59 207 59 174 57 c 5,35,-1
 133 55 l 5,36,37
 133 55 133 55 133 31 c 5,38,-1
 160 31 l 5,39,40
 160 31 160 31 257 36 c 5,41,-1
 288 58 l 5,42,-1
 298 82 l 5,43,-1
 301 107 l 5,44,45
 301 107 301 107 293 137 c 5,46,-1
 283 164 l 5,47,-1
 275 229 l 5,48,49
 275 229 275 229 286 277 c 5,50,-1
 300 320 l 5,51,-1
 315 349 l 5,52,-1
 360 370 l 5,53,-1
 315 394 l 5,54,-1
 315 394 l 5,55,-1
 298 426 l 5,56,-1
 279 465 l 5,57,-1
 269 512 l 5,58,59
 269 512 269 512 277 573 c 5,60,-1
 294 604 l 5,61,-1
 303 637 l 5,62,63
 303 637 303 637 298 666 c 5,64,-1
 281 691 l 5,65,-1
 261 706 l 5,0,-1
EndSplineSet
EndChar

StartChar: asciitilde
Encoding: 126 126 127
Width: 545
GlyphClass: 1
Flags: W
LayerCount: 2
Fore
SplineSet
177 337 m 5,0,-1
 229 342 l 5,1,-1
 264 313 l 5,2,-1
 284 286 l 5,3,-1
 311 236 l 5,4,-1
 340 203 l 5,5,-1
 370 201 l 5,6,-1
 396 229 l 5,7,-1
 420 260 l 5,8,-1
 443 299 l 5,9,-1
 454 324 l 5,10,11
 454 324 454 324 460 342 c 5,12,-1
 478 346 l 5,13,14
 478 346 478 346 494 341 c 5,15,-1
 500 322 l 5,16,17
 500 322 500 322 491 290 c 5,18,-1
 469 244 l 5,19,-1
 442 202 l 5,20,-1
 409 164 l 5,21,-1
 361 138 l 5,22,-1
 298 136 l 5,23,-1
 265 155 l 5,24,-1
 237 198 l 5,25,-1
 215 235 l 5,26,-1
 199 251 l 5,27,-1
 169 254 l 5,28,-1
 147 240 l 5,29,-1
 128 214 l 5,30,-1
 112 177 l 5,31,-1
 97 140 l 5,32,33
 97 140 97 140 85 121 c 5,34,-1
 66 119 l 5,35,36
 66 119 66 119 50 124 c 5,37,-1
 45 140 l 5,38,39
 45 140 45 140 50 173 c 5,40,-1
 71 208 l 5,41,-1
 94 255 l 5,42,-1
 137 308 l 5,43,-1
 177 337 l 5,0,-1
EndSplineSet
Validated: 1
EndChar

StartChar: uni007F
Encoding: 127 127 128
Width: 545
GlyphClass: 1
Flags: W
LayerCount: 2
Fore
SplineSet
0 800 m 1,0,-1
 45 800 l 1,1,-1
 45 755 l 1,2,-1
 90 755 l 1,3,-1
 90 800 l 1,4,-1
 136 800 l 1,5,-1
 136 755 l 1,6,-1
 181 755 l 1,7,-1
 181 800 l 1,8,-1
 227 800 l 1,9,-1
 227 755 l 1,10,-1
 272 755 l 1,11,-1
 272 800 l 1,12,-1
 318 800 l 1,13,-1
 318 755 l 1,14,-1
 363 755 l 1,15,-1
 363 800 l 1,16,-1
 409 800 l 1,17,-1
 409 755 l 1,18,-1
 454 755 l 1,19,-1
 454 800 l 1,20,-1
 500 800 l 1,21,-1
 500 755 l 1,22,-1
 545 755 l 1,23,-1
 545 710 l 1,24,-1
 500 710 l 1,25,-1
 500 664 l 1,26,-1
 545 664 l 1,27,-1
 545 619 l 1,28,-1
 500 619 l 1,29,-1
 500 573 l 1,30,-1
 545 573 l 1,31,-1
 545 528 l 1,32,-1
 500 528 l 1,33,-1
 500 482 l 1,34,-1
 545 482 l 1,35,-1
 545 437 l 1,36,-1
 500 437 l 1,37,-1
 500 391 l 1,38,-1
 545 391 l 1,39,-1
 545 346 l 1,40,-1
 500 346 l 1,41,-1
 500 300 l 1,42,-1
 545 300 l 1,43,-1
 545 255 l 1,44,-1
 500 255 l 1,45,-1
 500 210 l 1,46,-1
 545 210 l 1,47,-1
 545 164 l 1,48,-1
 500 164 l 1,49,-1
 500 119 l 1,50,-1
 545 119 l 1,51,-1
 545 73 l 1,52,-1
 500 73 l 1,53,-1
 500 28 l 1,54,-1
 545 28 l 1,55,-1
 545 -18 l 1,56,-1
 500 -18 l 1,57,-1
 500 -63 l 1,58,-1
 545 -63 l 1,59,-1
 545 -109 l 1,60,-1
 500 -109 l 1,61,-1
 500 -154 l 1,62,-1
 545 -154 l 1,63,-1
 545 -200 l 1,64,-1
 500 -200 l 1,65,-1
 500 -154 l 1,66,-1
 454 -154 l 1,67,-1
 454 -200 l 1,68,-1
 409 -200 l 1,69,-1
 409 -154 l 1,70,-1
 363 -154 l 1,71,-1
 363 -200 l 1,72,-1
 318 -200 l 1,73,-1
 318 -154 l 1,74,-1
 272 -154 l 1,75,-1
 272 -200 l 1,76,-1
 227 -200 l 1,77,-1
 227 -154 l 1,78,-1
 181 -154 l 1,79,-1
 181 -200 l 1,80,-1
 136 -200 l 1,81,-1
 136 -154 l 1,82,-1
 90 -154 l 1,83,-1
 90 -200 l 1,84,-1
 45 -200 l 1,85,-1
 45 -154 l 1,86,-1
 0 -154 l 1,87,-1
 0 -109 l 1,88,-1
 45 -109 l 1,89,-1
 45 -63 l 1,90,-1
 0 -63 l 1,91,-1
 0 -18 l 1,92,-1
 45 -18 l 1,93,-1
 45 28 l 1,94,-1
 0 28 l 1,95,-1
 0 73 l 1,96,-1
 45 73 l 1,97,-1
 45 119 l 1,98,-1
 0 119 l 1,99,-1
 0 164 l 1,100,-1
 45 164 l 1,101,-1
 45 210 l 1,102,-1
 0 210 l 1,103,-1
 0 255 l 1,104,-1
 45 255 l 1,105,-1
 45 300 l 1,106,-1
 0 300 l 1,107,-1
 0 346 l 1,108,-1
 45 346 l 1,109,-1
 45 391 l 1,110,-1
 0 391 l 1,111,-1
 0 437 l 1,112,-1
 45 437 l 1,113,-1
 45 482 l 1,114,-1
 0 482 l 1,115,-1
 0 528 l 1,116,-1
 45 528 l 1,117,-1
 45 573 l 1,118,-1
 0 573 l 1,119,-1
 0 619 l 1,120,-1
 45 619 l 1,121,-1
 45 664 l 1,122,-1
 0 664 l 1,123,-1
 0 710 l 1,124,-1
 45 710 l 1,125,-1
 45 755 l 1,126,-1
 0 755 l 1,127,-1
 0 800 l 1,0,-1
90 755 m 1,128,-1
 90 710 l 1,129,-1
 45 710 l 1,130,-1
 45 664 l 1,131,-1
 90 664 l 1,132,-1
 90 619 l 1,133,-1
 45 619 l 1,134,-1
 45 573 l 1,135,-1
 90 573 l 1,136,-1
 90 528 l 1,137,-1
 45 528 l 1,138,-1
 45 482 l 1,139,-1
 90 482 l 1,140,-1
 90 437 l 1,141,-1
 45 437 l 1,142,-1
 45 391 l 1,143,-1
 90 391 l 1,144,-1
 90 346 l 1,145,-1
 45 346 l 1,146,-1
 45 300 l 1,147,-1
 90 300 l 1,148,-1
 90 255 l 1,149,-1
 45 255 l 1,150,-1
 45 210 l 1,151,-1
 90 210 l 1,152,-1
 90 164 l 1,153,-1
 45 164 l 1,154,-1
 45 119 l 1,155,-1
 90 119 l 1,156,-1
 90 73 l 1,157,-1
 45 73 l 1,158,-1
 45 28 l 1,159,-1
 90 28 l 1,160,-1
 90 -18 l 1,161,-1
 45 -18 l 1,162,-1
 45 -63 l 1,163,-1
 90 -63 l 1,164,-1
 90 -109 l 1,165,-1
 45 -109 l 1,166,-1
 45 -154 l 1,167,-1
 90 -154 l 1,168,-1
 90 -109 l 1,169,-1
 136 -109 l 1,170,-1
 136 -154 l 1,171,-1
 181 -154 l 1,172,-1
 181 -109 l 1,173,-1
 227 -109 l 1,174,-1
 227 -154 l 1,175,-1
 272 -154 l 1,176,-1
 272 -109 l 1,177,-1
 318 -109 l 1,178,-1
 318 -154 l 1,179,-1
 363 -154 l 1,180,-1
 363 -109 l 1,181,-1
 409 -109 l 1,182,-1
 409 -154 l 1,183,-1
 454 -154 l 1,184,-1
 454 -109 l 1,185,-1
 500 -109 l 1,186,-1
 500 -63 l 1,187,-1
 454 -63 l 1,188,-1
 454 -18 l 1,189,-1
 500 -18 l 1,190,-1
 500 28 l 1,191,-1
 454 28 l 1,192,-1
 454 73 l 1,193,-1
 500 73 l 1,194,-1
 500 119 l 1,195,-1
 454 119 l 1,196,-1
 454 164 l 1,197,-1
 500 164 l 1,198,-1
 500 210 l 1,199,-1
 454 210 l 1,200,-1
 454 255 l 1,201,-1
 500 255 l 1,202,-1
 500 300 l 1,203,-1
 454 300 l 1,204,-1
 454 346 l 1,205,-1
 500 346 l 1,206,-1
 500 391 l 1,207,-1
 454 391 l 1,208,-1
 454 437 l 1,209,-1
 500 437 l 1,210,-1
 500 482 l 1,211,-1
 454 482 l 1,212,-1
 454 528 l 1,213,-1
 500 528 l 1,214,-1
 500 573 l 1,215,-1
 454 573 l 1,216,-1
 454 619 l 1,217,-1
 500 619 l 1,218,-1
 500 664 l 1,219,-1
 454 664 l 1,220,-1
 454 710 l 1,221,-1
 500 710 l 1,222,-1
 500 755 l 1,223,-1
 454 755 l 1,224,-1
 454 710 l 1,225,-1
 409 710 l 1,226,-1
 409 755 l 1,227,-1
 363 755 l 1,228,-1
 363 710 l 1,229,-1
 318 710 l 1,230,-1
 318 755 l 1,231,-1
 272 755 l 1,232,-1
 272 710 l 1,233,-1
 227 710 l 1,234,-1
 227 755 l 1,235,-1
 181 755 l 1,236,-1
 181 710 l 1,237,-1
 136 710 l 1,238,-1
 136 755 l 1,239,-1
 90 755 l 1,128,-1
90 710 m 1,240,-1
 136 710 l 1,241,-1
 136 664 l 1,242,-1
 181 664 l 1,243,-1
 181 710 l 1,244,-1
 227 710 l 1,245,-1
 227 664 l 1,246,-1
 272 664 l 1,247,-1
 272 710 l 1,248,-1
 318 710 l 1,249,-1
 318 664 l 1,250,-1
 363 664 l 1,251,-1
 363 710 l 1,252,-1
 409 710 l 1,253,-1
 409 664 l 1,254,-1
 454 664 l 1,255,-1
 454 619 l 1,256,-1
 409 619 l 1,257,-1
 409 573 l 1,258,-1
 454 573 l 1,259,-1
 454 528 l 1,260,-1
 409 528 l 1,261,-1
 409 482 l 1,262,-1
 454 482 l 1,263,-1
 454 437 l 1,264,-1
 409 437 l 1,265,-1
 409 391 l 1,266,-1
 454 391 l 1,267,-1
 454 346 l 1,268,-1
 409 346 l 1,269,-1
 409 300 l 1,270,-1
 454 300 l 1,271,-1
 454 255 l 1,272,-1
 409 255 l 1,273,-1
 409 210 l 1,274,-1
 454 210 l 1,275,-1
 454 164 l 1,276,-1
 409 164 l 1,277,-1
 409 119 l 1,278,-1
 454 119 l 1,279,-1
 454 73 l 1,280,-1
 409 73 l 1,281,-1
 409 28 l 1,282,-1
 454 28 l 1,283,-1
 454 -18 l 1,284,-1
 409 -18 l 1,285,-1
 409 -63 l 1,286,-1
 454 -63 l 1,287,-1
 454 -109 l 1,288,-1
 409 -109 l 1,289,-1
 409 -63 l 1,290,-1
 363 -63 l 1,291,-1
 363 -109 l 1,292,-1
 318 -109 l 1,293,-1
 318 -63 l 1,294,-1
 272 -63 l 1,295,-1
 272 -109 l 1,296,-1
 227 -109 l 1,297,-1
 227 -63 l 1,298,-1
 181 -63 l 1,299,-1
 181 -109 l 1,300,-1
 136 -109 l 1,301,-1
 136 -63 l 1,302,-1
 90 -63 l 1,303,-1
 90 -18 l 1,304,-1
 136 -18 l 1,305,-1
 136 28 l 1,306,-1
 90 28 l 1,307,-1
 90 73 l 1,308,-1
 136 73 l 1,309,-1
 136 119 l 1,310,-1
 90 119 l 1,311,-1
 90 164 l 1,312,-1
 136 164 l 1,313,-1
 136 210 l 1,314,-1
 90 210 l 1,315,-1
 90 255 l 1,316,-1
 136 255 l 1,317,-1
 136 300 l 1,318,-1
 90 300 l 1,319,-1
 90 346 l 1,320,-1
 136 346 l 1,321,-1
 136 391 l 1,322,-1
 90 391 l 1,323,-1
 90 437 l 1,324,-1
 136 437 l 1,325,-1
 136 482 l 1,326,-1
 90 482 l 1,327,-1
 90 528 l 1,328,-1
 136 528 l 1,329,-1
 136 573 l 1,330,-1
 90 573 l 1,331,-1
 90 619 l 1,332,-1
 136 619 l 1,333,-1
 136 664 l 1,334,-1
 90 664 l 1,335,-1
 90 710 l 1,240,-1
181 664 m 1,336,-1
 181 619 l 1,337,-1
 136 619 l 1,338,-1
 136 573 l 1,339,-1
 181 573 l 1,340,-1
 181 528 l 1,341,-1
 136 528 l 1,342,-1
 136 482 l 1,343,-1
 181 482 l 1,344,-1
 181 437 l 1,345,-1
 136 437 l 1,346,-1
 136 391 l 1,347,-1
 181 391 l 1,348,-1
 181 346 l 1,349,-1
 136 346 l 1,350,-1
 136 300 l 1,351,-1
 181 300 l 1,352,-1
 181 255 l 1,353,-1
 136 255 l 1,354,-1
 136 210 l 1,355,-1
 181 210 l 1,356,-1
 181 164 l 1,357,-1
 136 164 l 1,358,-1
 136 119 l 1,359,-1
 181 119 l 1,360,-1
 181 73 l 1,361,-1
 136 73 l 1,362,-1
 136 28 l 1,363,-1
 181 28 l 1,364,-1
 181 -18 l 1,365,-1
 136 -18 l 1,366,-1
 136 -63 l 1,367,-1
 181 -63 l 1,368,-1
 181 -18 l 1,369,-1
 227 -18 l 1,370,-1
 227 -63 l 1,371,-1
 272 -63 l 1,372,-1
 272 -18 l 1,373,-1
 318 -18 l 1,374,-1
 318 -63 l 1,375,-1
 363 -63 l 1,376,-1
 363 -18 l 1,377,-1
 409 -18 l 1,378,-1
 409 28 l 1,379,-1
 363 28 l 1,380,-1
 363 73 l 1,381,-1
 409 73 l 1,382,-1
 409 119 l 1,383,-1
 363 119 l 1,384,-1
 363 164 l 1,385,-1
 409 164 l 1,386,-1
 409 210 l 1,387,-1
 363 210 l 1,388,-1
 363 255 l 1,389,-1
 409 255 l 1,390,-1
 409 300 l 1,391,-1
 363 300 l 1,392,-1
 363 346 l 1,393,-1
 409 346 l 1,394,-1
 409 391 l 1,395,-1
 363 391 l 1,396,-1
 363 437 l 1,397,-1
 409 437 l 1,398,-1
 409 482 l 1,399,-1
 363 482 l 1,400,-1
 363 528 l 1,401,-1
 409 528 l 1,402,-1
 409 573 l 1,403,-1
 363 573 l 1,404,-1
 363 619 l 1,405,-1
 409 619 l 1,406,-1
 409 664 l 1,407,-1
 363 664 l 1,408,-1
 363 619 l 1,409,-1
 318 619 l 1,410,-1
 318 664 l 1,411,-1
 272 664 l 1,412,-1
 272 619 l 1,413,-1
 227 619 l 1,414,-1
 227 664 l 1,415,-1
 181 664 l 1,336,-1
181 619 m 1,416,-1
 227 619 l 1,417,-1
 227 573 l 1,418,-1
 272 573 l 1,419,-1
 272 619 l 1,420,-1
 318 619 l 1,421,-1
 318 573 l 1,422,-1
 363 573 l 1,423,-1
 363 528 l 1,424,-1
 318 528 l 1,425,-1
 318 482 l 1,426,-1
 363 482 l 1,427,-1
 363 437 l 1,428,-1
 318 437 l 1,429,-1
 318 391 l 1,430,-1
 363 391 l 1,431,-1
 363 346 l 1,432,-1
 318 346 l 1,433,-1
 318 300 l 1,434,-1
 363 300 l 1,435,-1
 363 255 l 1,436,-1
 318 255 l 1,437,-1
 318 210 l 1,438,-1
 363 210 l 1,439,-1
 363 164 l 1,440,-1
 318 164 l 1,441,-1
 318 119 l 1,442,-1
 363 119 l 1,443,-1
 363 73 l 1,444,-1
 318 73 l 1,445,-1
 318 28 l 1,446,-1
 363 28 l 1,447,-1
 363 -18 l 1,448,-1
 318 -18 l 1,449,-1
 318 28 l 1,450,-1
 272 28 l 1,451,-1
 272 -18 l 1,452,-1
 227 -18 l 1,453,-1
 227 28 l 1,454,-1
 181 28 l 1,455,-1
 181 73 l 1,456,-1
 227 73 l 1,457,-1
 227 119 l 1,458,-1
 181 119 l 1,459,-1
 181 164 l 1,460,-1
 227 164 l 1,461,-1
 227 210 l 1,462,-1
 181 210 l 1,463,-1
 181 255 l 1,464,-1
 227 255 l 1,465,-1
 227 300 l 1,466,-1
 181 300 l 1,467,-1
 181 346 l 1,468,-1
 227 346 l 1,469,-1
 227 391 l 1,470,-1
 181 391 l 1,471,-1
 181 437 l 1,472,-1
 227 437 l 1,473,-1
 227 482 l 1,474,-1
 181 482 l 1,475,-1
 181 528 l 1,476,-1
 227 528 l 1,477,-1
 227 573 l 1,478,-1
 181 573 l 1,479,-1
 181 619 l 1,416,-1
272 573 m 1,480,-1
 272 528 l 1,481,-1
 227 528 l 1,482,-1
 227 482 l 1,483,-1
 272 482 l 1,484,-1
 272 437 l 1,485,-1
 227 437 l 1,486,-1
 227 391 l 1,487,-1
 272 391 l 1,488,-1
 272 346 l 1,489,-1
 227 346 l 1,490,-1
 227 300 l 1,491,-1
 272 300 l 1,492,-1
 272 255 l 1,493,-1
 227 255 l 1,494,-1
 227 210 l 1,495,-1
 272 210 l 1,496,-1
 272 164 l 1,497,-1
 227 164 l 1,498,-1
 227 119 l 1,499,-1
 272 119 l 1,500,-1
 272 73 l 1,501,-1
 227 73 l 1,502,-1
 227 28 l 1,503,-1
 272 28 l 1,504,-1
 272 73 l 1,505,-1
 318 73 l 1,506,-1
 318 119 l 1,507,-1
 272 119 l 1,508,-1
 272 164 l 1,509,-1
 318 164 l 1,510,-1
 318 210 l 1,511,-1
 272 210 l 1,512,-1
 272 255 l 1,513,-1
 318 255 l 1,514,-1
 318 300 l 1,515,-1
 272 300 l 1,516,-1
 272 346 l 1,517,-1
 318 346 l 1,518,-1
 318 391 l 1,519,-1
 272 391 l 1,520,-1
 272 437 l 1,521,-1
 318 437 l 1,522,-1
 318 482 l 1,523,-1
 272 482 l 1,524,-1
 272 528 l 1,525,-1
 318 528 l 1,526,-1
 318 573 l 1,527,-1
 272 573 l 1,480,-1
EndSplineSet
Validated: 5
EndChar

StartChar: exclamdown
Encoding: 161 161 129
Width: 545
GlyphClass: 1
Flags: W
LayerCount: 2
Fore
SplineSet
227 664 m 1,0,-1
 318 664 l 1,1,-1
 318 573 l 1,2,-1
 227 573 l 1,3,-1
 227 664 l 1,0,-1
227 482 m 1,4,-1
 318 482 l 1,5,-1
 318 -18 l 1,6,-1
 227 -18 l 1,7,-1
 227 482 l 1,4,-1
EndSplineSet
Validated: 1
EndChar

StartChar: cent
Encoding: 162 162 130
Width: 545
GlyphClass: 1
Flags: W
LayerCount: 2
Fore
SplineSet
275 437 m 1,0,-1
 309 429 l 1,1,2
 309 429 309 429 322 402 c 1,3,-1
 326 355 l 1,4,-1
 364 346 l 1,5,6
 364 346 364 346 401 351 c 1,7,-1
 409 390 l 1,8,9
 409 390 409 390 404 430 c 1,10,-1
 385 459 l 1,11,-1
 367 471 l 1,12,-1
 328 478 l 1,13,14
 328 478 328 478 285 482 c 1,15,-1
 330 664 l 1,16,-1
 285 664 l 1,17,-1
 239 482 l 1,18,-1
 192 482 l 1,19,20
 192 482 192 482 144 475 c 1,21,-1
 111 453 l 1,22,-1
 81 425 l 1,23,-1
 58 382 l 1,24,-1
 50 334 l 1,25,-1
 45 291 l 1,26,27
 45 291 45 291 45 219 c 1,28,29
 45 219 45 219 45 164 c 1,30,-1
 57 136 l 1,31,-1
 84 98 l 1,32,-1
 135 79 l 1,33,-1
 90 -109 l 1,34,-1
 136 -109 l 1,35,-1
 181 73 l 1,36,-1
 247 73 l 1,37,38
 247 73 247 73 310 73 c 1,39,40
 310 73 310 73 363 73 c 1,41,-1
 392 92 l 1,42,-1
 409 119 l 1,43,-1
 409 191 l 1,44,45
 409 191 409 191 402 207 c 1,46,-1
 387 210 l 1,47,48
 387 210 387 210 370 206 c 1,49,-1
 363 190 l 1,50,51
 363 190 363 190 363 164 c 1,52,-1
 355 127 l 1,53,-1
 318 119 l 1,54,-1
 227 115 l 1,55,-1
 199 116 l 1,56,57
 199 116 199 116 275 437 c 1,0,-1
230 442 m 5,58,-1
 158 143 l 5,59,-1
 131 189 l 5,60,-1
 136 391 l 5,61,-1
 151 418 l 5,62,-1
 181 437 l 5,63,-1
 230 442 l 5,58,-1
EndSplineSet
EndChar

StartChar: sterling
Encoding: 163 163 131
Width: 545
GlyphClass: 1
Flags: W
LayerCount: 2
Fore
SplineSet
185 369 m 5,0,-1
 192 173 l 5,1,-1
 250 169 l 5,2,3
 250 169 250 169 304 157 c 5,4,5
 304 157 304 157 328 143 c 5,6,-1
 361 97 l 5,7,-1
 408 89 l 5,8,9
 408 89 408 89 445 127 c 5,10,-1
 454 164 l 5,11,-1
 478 164 l 5,12,13
 478 164 478 164 500 164 c 5,14,-1
 500 145 l 5,15,16
 500 145 500 145 490 106 c 5,17,-1
 465 74 l 5,18,-1
 441 44 l 5,19,-1
 405 28 l 5,20,21
 405 28 405 28 367 28 c 5,22,23
 367 28 367 28 317 55 c 5,24,-1
 285 95 l 5,25,-1
 241 114 l 5,26,27
 241 114 241 114 200 113 c 5,28,29
 200 113 200 113 205 74 c 5,30,-1
 165 42 l 5,31,-1
 132 34 l 5,32,33
 132 34 132 34 97 48 c 5,34,-1
 90 75 l 5,35,36
 90 75 90 75 85 108 c 5,37,38
 85 108 85 108 105 148 c 5,39,-1
 123 164 l 5,40,-1
 119 357 l 5,41,-1
 45 346 l 5,42,-1
 45 391 l 5,43,-1
 90 399 l 5,44,-1
 117 404 l 5,45,-1
 112 568 l 5,46,-1
 112 645 l 5,47,-1
 130 695 l 5,48,-1
 156 729 l 5,49,-1
 185 748 l 5,50,-1
 227 755 l 5,51,-1
 259 755 l 5,52,53
 259 755 259 755 281 754 c 5,54,55
 281 754 281 754 303 747 c 5,56,-1
 314 725 l 5,57,58
 314 725 314 725 314 692 c 5,59,-1
 292 702 l 5,60,61
 292 702 292 702 272 710 c 5,62,-1
 234 700 l 5,63,-1
 194 681 l 5,64,65
 194 681 194 681 176 644 c 5,66,-1
 176 598 l 5,67,68
 176 598 176 598 181 414 c 5,69,-1
 318 437 l 5,70,-1
 318 391 l 5,71,-1
 185 369 l 5,0,-1
EndSplineSet
EndChar

StartChar: currency
Encoding: 164 164 132
Width: 545
GlyphClass: 1
Flags: W
LayerCount: 2
Fore
SplineSet
409 119 m 1,0,-1
 500 119 l 1,1,-1
 500 183 l 1,2,-1
 434 255 l 1,3,-1
 452 299 l 1,4,-1
 458 347 l 1,5,-1
 446 397 l 1,6,-1
 426 455 l 1,7,-1
 500 528 l 1,8,-1
 500 573 l 1,9,-1
 454 573 l 1,10,-1
 378 503 l 1,11,-1
 338 533 l 1,12,-1
 227 528 l 1,13,-1
 200 515 l 1,14,-1
 178 499 l 1,15,-1
 104 571 l 1,16,-1
 45 573 l 1,17,-1
 45 482 l 1,18,-1
 104 425 l 1,19,-1
 86 389 l 1,20,-1
 84 325 l 1,21,-1
 90 255 l 1,22,-1
 112 223 l 1,23,-1
 45 164 l 1,24,-1
 45 119 l 1,25,-1
 90 119 l 1,26,-1
 160 183 l 1,27,-1
 212 157 l 1,28,-1
 284 145 l 1,29,-1
 322 155 l 1,30,-1
 356 179 l 1,31,-1
 409 119 l 1,0,-1
244 479 m 5,32,-1
 272 482 l 5,33,-1
 302 469 l 5,34,-1
 334 437 l 5,35,-1
 360 395 l 5,36,-1
 366 329 l 5,37,-1
 363 255 l 5,38,-1
 346 235 l 5,39,-1
 318 210 l 5,40,-1
 272 210 l 5,41,-1
 236 227 l 5,42,-1
 212 255 l 5,43,-1
 186 299 l 5,44,-1
 174 359 l 5,45,-1
 181 437 l 5,46,-1
 206 459 l 5,47,-1
 244 479 l 5,32,-1
EndSplineSet
EndChar

StartChar: yen
Encoding: 165 165 133
Width: 545
GlyphClass: 1
Flags: W
LayerCount: 2
Fore
SplineSet
318 376 m 1,37,-1
 318 346 l 1,1,-1
 454 346 l 1,2,-1
 454 300 l 1,3,-1
 318 300 l 1,4,-1
 318 255 l 1,5,-1
 454 255 l 1,6,-1
 454 210 l 1,7,-1
 318 210 l 1,8,-1
 318 73 l 1,9,-1
 363 73 l 1,10,-1
 363 28 l 1,11,-1
 181 28 l 1,12,-1
 181 73 l 1,13,-1
 227 73 l 1,14,-1
 227 210 l 1,15,-1
 90 210 l 1,16,-1
 90 255 l 1,17,-1
 227 255 l 1,18,-1
 227 300 l 1,19,-1
 90 300 l 1,20,-1
 90 346 l 1,21,-1
 227 346 l 1,22,-1
 227 346 l 1,23,-1
 45 619 l 1,24,-1
 0 619 l 1,25,-1
 0 664 l 1,26,-1
 181 664 l 1,27,-1
 181 619 l 1,28,-1
 136 619 l 1,29,-1
 284 392 l 1,30,-1
 454 619 l 1,31,-1
 409 619 l 1,32,-1
 409 664 l 1,33,-1
 545 664 l 1,34,-1
 545 619 l 1,35,-1
 500 619 l 1,36,-1
 318 376 l 1,37,-1
EndSplineSet
EndChar

StartChar: brokenbar
Encoding: 166 166 134
Width: 545
GlyphClass: 1
Flags: W
LayerCount: 2
Fore
SplineSet
227 710 m 1,0,-1
 318 710 l 1,1,-1
 318 300 l 1,2,-1
 227 300 l 1,3,-1
 227 710 l 1,0,-1
227 210 m 1,4,-1
 318 210 l 1,5,-1
 318 -200 l 1,6,-1
 227 -200 l 1,7,-1
 227 210 l 1,4,-1
EndSplineSet
Validated: 1
EndChar

StartChar: section
Encoding: 167 167 135
Width: 545
GlyphClass: 1
Flags: W
LayerCount: 2
Fore
SplineSet
298 721 m 1,0,-1
 378 713 l 1,1,2
 378 713 378 713 458 681 c 1,3,4
 458 681 458 681 458 709 c 1,5,6
 458 709 458 709 500 710 c 1,7,-1
 500 528 l 1,8,-1
 454 528 l 1,9,-1
 446 603 l 1,10,-1
 414 645 l 1,11,-1
 374 663 l 1,12,-1
 318 664 l 1,13,14
 318 664 318 664 250 661 c 1,15,-1
 212 645 l 1,16,-1
 181 619 l 1,17,-1
 181 573 l 1,18,-1
 198 551 l 1,19,-1
 248 529 l 1,20,-1
 308 513 l 1,21,-1
 366 493 l 1,22,-1
 409 482 l 1,23,-1
 434 473 l 1,24,-1
 460 453 l 1,25,-1
 482 425 l 1,26,-1
 500 391 l 1,27,-1
 500 347 l 1,28,29
 500 347 500 347 486 301 c 1,30,-1
 466 271 l 1,31,-1
 442 243 l 1,32,-1
 412 225 l 1,33,-1
 402 181 l 1,34,-1
 418 157 l 1,35,-1
 454 119 l 1,36,37
 454 119 454 119 454 73 c 1,38,-1
 424 31 l 1,39,-1
 368 0 l 1,40,-1
 314 -13 l 1,41,-1
 180 -15 l 1,42,-1
 88 11 l 1,43,44
 88 11 88 11 88 -18 c 1,45,46
 88 -18 88 -18 45 -18 c 1,47,-1
 45 164 l 1,48,-1
 90 164 l 1,49,-1
 98 91 l 1,50,-1
 116 67 l 1,51,-1
 146 45 l 1,52,-1
 194 33 l 1,53,-1
 242 33 l 1,54,-1
 284 41 l 1,55,-1
 348 65 l 1,56,-1
 356 115 l 1,57,-1
 328 153 l 1,58,-1
 294 173 l 1,59,-1
 214 175 l 1,60,-1
 170 191 l 1,61,-1
 124 213 l 1,62,-1
 96 237 l 1,63,-1
 66 263 l 1,64,-1
 45 300 l 1,65,-1
 40 345 l 1,66,67
 40 345 40 345 45 391 c 1,68,-1
 58 419 l 1,69,-1
 90 437 l 1,70,-1
 126 453 l 1,71,-1
 134 485 l 1,72,-1
 102 521 l 1,73,-1
 92 555 l 1,74,75
 92 555 92 555 94 607 c 1,76,-1
 110 639 l 1,77,-1
 136 664 l 1,78,-1
 180 701 l 1,79,-1
 298 721 l 1,0,-1
226 431 m 1,80,-1
 172 419 l 1,81,-1
 136 391 l 1,82,-1
 136 346 l 1,83,-1
 158 313 l 1,84,-1
 190 273 l 1,85,-1
 228 265 l 1,86,-1
 280 253 l 1,87,-1
 342 261 l 1,88,-1
 382 283 l 1,89,-1
 409 300 l 1,90,-1
 409 346 l 1,91,-1
 392 371 l 1,92,-1
 366 409 l 1,93,-1
 328 423 l 1,94,-1
 284 437 l 1,95,-1
 226 431 l 1,80,-1
EndSplineSet
EndChar

StartChar: dieresis
Encoding: 168 168 136
Width: 545
GlyphClass: 1
Flags: W
LayerCount: 2
Fore
SplineSet
136 800 m 1,0,-1
 227 800 l 1,1,-1
 227 710 l 1,2,-1
 136 710 l 1,3,-1
 136 800 l 1,0,-1
318 800 m 1,4,-1
 409 800 l 1,5,-1
 409 710 l 1,6,-1
 318 710 l 1,7,-1
 318 800 l 1,4,-1
EndSplineSet
Validated: 1
EndChar

StartChar: copyright
Encoding: 169 169 137
Width: 545
GlyphClass: 1
Flags: W
LayerCount: 2
Fore
SplineSet
224 664 m 5,0,-1
 318 664 l 5,1,-1
 380 640 l 5,2,-1
 409 619 l 5,3,-1
 448 578 l 5,4,-1
 470 544 l 5,5,-1
 486 482 l 5,6,-1
 500 378 l 5,7,-1
 500 302 l 5,8,-1
 484 166 l 5,9,-1
 468 112 l 5,10,-1
 448 86 l 5,11,-1
 418 62 l 5,12,-1
 388 48 l 5,13,-1
 312 28 l 5,14,-1
 230 28 l 5,15,-1
 158 48 l 5,16,-1
 124 72 l 5,17,-1
 102 96 l 5,18,-1
 80 126 l 5,19,-1
 60 180 l 5,20,-1
 46 308 l 5,21,-1
 46 386 l 5,22,-1
 58 480 l 5,23,-1
 78 546 l 5,24,-1
 90 576 l 5,25,-1
 114 616 l 5,26,-1
 162 650 l 5,27,-1
 224 664 l 5,0,-1
226 620 m 5,28,-1
 182 604 l 5,29,-1
 136 573 l 5,30,-1
 104 518 l 5,31,-1
 88 418 l 5,32,-1
 88 270 l 5,33,-1
 98 196 l 5,34,-1
 136 119 l 5,35,-1
 174 88 l 5,36,-1
 222 72 l 5,37,-1
 334 72 l 5,38,-1
 376 88 l 5,39,-1
 426 126 l 5,40,-1
 440 172 l 5,41,-1
 454 268 l 5,42,-1
 454 410 l 5,43,-1
 438 518 l 5,44,-1
 394 576 l 5,45,-1
 352 604 l 5,46,-1
 308 620 l 5,47,-1
 226 620 l 5,28,-1
194 524 m 1,48,-1
 250 528 l 1,49,50
 250 528 250 528 300 528 c 1,51,52
 300 528 300 528 350 526 c 1,53,-1
 380 504 l 1,54,-1
 402 468 l 1,55,-1
 409 428 l 1,56,57
 409 428 409 428 404 402 c 1,58,-1
 386 391 l 1,59,60
 386 391 386 391 348 391 c 1,61,62
 348 391 348 391 322 410 c 1,63,-1
 308 470 l 1,64,-1
 266 482 l 1,65,66
 266 482 266 482 234 476 c 1,67,-1
 226 428 l 1,68,69
 226 428 226 428 224 266 c 1,70,71
 224 266 224 266 238 220 c 1,72,-1
 268 212 l 1,73,74
 268 212 268 212 310 226 c 1,75,-1
 318 282 l 1,76,-1
 344 300 l 1,77,78
 344 300 344 300 388 300 c 1,79,80
 388 300 388 300 400 294 c 1,81,-1
 409 280 l 1,82,83
 409 280 409 280 406 238 c 1,84,-1
 388 194 l 1,85,-1
 352 172 l 5,86,-1
 304 164 l 5,87,88
 304 164 304 164 244 164 c 5,89,90
 244 164 244 164 188 166 c 5,91,-1
 154 192 l 1,92,-1
 136 228 l 1,93,-1
 136 290 l 1,94,95
 136 290 136 290 136 406 c 1,96,97
 136 406 136 406 138 470 c 1,98,-1
 162 504 l 1,99,-1
 194 524 l 1,48,-1
EndSplineSet
EndChar

StartChar: ordfeminine
Encoding: 170 170 138
Width: 545
GlyphClass: 1
Flags: W
LayerCount: 2
Fore
SplineSet
136 528 m 5,0,-1
 134 596 l 1,1,-1
 150 634 l 1,2,-1
 218 668 l 1,3,-1
 298 668 l 1,4,-1
 336 650 l 1,5,-1
 363 619 l 1,6,-1
 384 586 l 1,7,-1
 404 532 l 1,8,-1
 407.545898438 432 l 1,9,10
 407.545898438 432 407.545898438 432 409 391 c 1,11,-1
 454 391 l 1,12,-1
 454 300 l 1,13,-1
 363 300 l 1,14,-1
 363 346 l 1,15,-1
 324 312 l 1,16,-1
 266 300 l 1,17,-1
 160 298 l 1,18,-1
 110 336 l 1,19,-1
 92 368 l 1,20,-1
 90 412 l 1,21,-1
 112 458 l 1,22,-1
 136 482 l 1,23,-1
 200 522 l 1,24,25
 200 522 200 522 272 528 c 1,26,-1
 300 530 l 1,27,28
 300 530 300 530 284 578 c 1,29,-1
 230 586 l 1,30,31
 230 586 230 586 181 573 c 1,32,-1
 136 528 l 5,0,-1
256 480 m 1,33,-1
 210 466 l 1,34,-1
 181 437 l 1,35,-1
 188 402 l 1,36,-1
 226 391 l 1,37,38
 226 391 226 391 276 391 c 1,39,40
 276 391 276 391 318 391 c 1,41,-1
 318 482 l 1,42,-1
 256 480 l 1,33,-1
454 119 m 1,43,-1
 45 119 l 1,44,-1
 90 210 l 1,45,-1
 500 210 l 1,46,-1
 454 119 l 1,43,-1
EndSplineSet
EndChar

StartChar: guillemotleft
Encoding: 171 171 139
Width: 545
GlyphClass: 1
Flags: W
LayerCount: 2
Fore
SplineSet
256 212 m 5,0,-1
 256 240 l 5,1,-1
 484 439 l 5,2,-1
 484 406 l 5,3,-1
 330 234 l 5,4,-1
 484 100 l 5,5,-1
 484 75 l 5,6,-1
 256 212 l 5,0,-1
90 210 m 1,7,-1
 90 238 l 1,8,-1
 318 437 l 1,9,-1
 318 404 l 1,10,-1
 164 232 l 1,11,-1
 318 98 l 1,12,-1
 318 73 l 1,13,-1
 90 210 l 1,7,-1
EndSplineSet
EndChar

StartChar: logicalnot
Encoding: 172 172 140
Width: 545
GlyphClass: 1
Flags: W
LayerCount: 2
Fore
SplineSet
45 391 m 1,0,-1
 500 391 l 1,1,-1
 500 119 l 1,2,-1
 409 119 l 1,3,-1
 409 300 l 1,4,-1
 45 300 l 1,5,-1
 45 391 l 1,0,-1
EndSplineSet
Validated: 1
EndChar

StartChar: uni00AD
Encoding: 173 173 141
Width: 545
GlyphClass: 1
Flags: W
LayerCount: 2
Fore
SplineSet
136 300 m 1,0,-1
 409 300 l 1,1,-1
 409 210 l 1,2,-1
 136 210 l 1,3,-1
 136 300 l 1,0,-1
EndSplineSet
Validated: 1
EndChar

StartChar: registered
Encoding: 174 174 142
Width: 545
GlyphClass: 1
Flags: W
LayerCount: 2
Fore
SplineSet
212 98 m 1,0,-1
 222 72 l 5,1,-1
 334 72 l 5,2,-1
 400 114 l 1,3,-1
 400 114 l 1,4,-1
 400 114 l 5,5,-1
 210 316 l 5,6,-1
 212 98 l 1,0,-1
442 182 m 1,7,8
 448 225 448 225 454 268 c 1,9,-1
 454 410 l 1,10,-1
 438 518 l 1,11,-1
 394 576 l 1,12,-1
 352 604 l 1,13,-1
 308 620 l 1,14,-1
 226 620 l 1,15,-1
 160 592 l 1,16,17
 160 592 160 592 134 576 c 1,18,-1
 306 576 l 1,19,20
 306 576 306 576 332 566 c 1,21,-1
 360 544 l 1,22,-1
 382 524 l 1,23,-1
 400 498 l 1,24,-1
 404 478 l 1,25,-1
 404 448 l 1,26,27
 404 448 404 448 402 422 c 1,28,29
 402 422 402 422 398 400 c 1,30,-1
 380 380 l 1,31,-1
 364 364 l 1,32,-1
 344.974609375 353.150390625 l 1,33,-1
 326.775390625 347.299804688 l 1,34,-1
 309.875 346.161132812 l 1,35,36
 309.875 346.161132812 309.875 346.161132812 278 346 c 1,37,-1
 442 182 l 1,7,8
198 514 m 1,38,-1
 200 404 l 1,39,-1
 272 406 l 1,40,41
 272 406 272 406 314 418 c 1,42,-1
 334 440 l 1,43,44
 334 440 334 440 334 466 c 1,45,46
 334 466 334 466 320 494 c 1,47,-1
 294 510 l 1,48,-1
 260 514 l 1,49,-1
 198 514 l 1,38,-1
224 664 m 1,50,-1
 318 664 l 1,51,-1
 380 640 l 1,52,-1
 409 619 l 1,53,-1
 448 578 l 1,54,-1
 470 544 l 1,55,-1
 486 482 l 1,56,-1
 500 378 l 1,57,-1
 500 302 l 1,58,-1
 484 166 l 1,59,-1
 468 112 l 1,60,-1
 448 86 l 1,61,-1
 418 62 l 1,62,-1
 388 48 l 1,63,-1
 312 28 l 1,64,-1
 230 28 l 1,65,-1
 158 48 l 1,66,-1
 124 72 l 1,67,-1
 102 96 l 1,68,-1
 80 126 l 1,69,-1
 60 180 l 1,70,-1
 46 308 l 1,71,-1
 46 386 l 1,72,-1
 58 480 l 1,73,-1
 78 546 l 1,74,-1
 90 576 l 1,75,-1
 114 616 l 1,76,-1
 162 650 l 1,77,-1
 224 664 l 1,50,-1
124 186 m 129,-1,79
 124 186 124 186 124.625 523.450195312 c 1,80,-1
 110 540 l 1,81,82
 110 540 110 540 88 418 c 1,83,-1
 88 270 l 1,84,-1
 98 196 l 1,85,-1
 108 168 l 1,86,78
 124 186 124 186 124 186 c 129,-1,79
EndSplineSet
EndChar

StartChar: macron
Encoding: 175 175 143
Width: 545
GlyphClass: 1
Flags: W
LayerCount: 2
Fore
SplineSet
90 800 m 1,0,-1
 454 800 l 1,1,-1
 454 710 l 1,2,-1
 90 710 l 1,3,-1
 90 800 l 1,0,-1
EndSplineSet
Validated: 1
EndChar

StartChar: degree
Encoding: 176 176 144
Width: 545
GlyphClass: 1
Flags: W
LayerCount: 2
Fore
SplineSet
181 710 m 5,0,-1
 250 710 l 5,1,-1
 316 698 l 5,2,-1
 366 646 l 5,3,-1
 382 614 l 5,4,-1
 390 538 l 5,5,-1
 392 478 l 5,6,-1
 388 446 l 5,7,-1
 372 416 l 5,8,-1
 346 392 l 5,9,-1
 324 374 l 5,10,-1
 294 352 l 5,11,-1
 254 342 l 5,12,-1
 198 344 l 5,13,-1
 138 362 l 5,14,-1
 90 391 l 5,15,-1
 74 410 l 5,16,-1
 68 436 l 5,17,-1
 64 488 l 5,18,-1
 64 570 l 5,19,-1
 74 616 l 5,20,-1
 94 644 l 5,21,-1
 122 672 l 5,22,-1
 140 692 l 5,23,-1
 181 710 l 5,0,-1
172 668 m 5,24,-1
 142 652 l 5,25,-1
 132 600 l 5,26,-1
 134 532 l 5,27,-1
 134 486 l 5,28,-1
 154 448 l 5,29,-1
 192 424 l 5,30,-1
 234 414 l 5,31,-1
 276 408 l 5,32,-1
 294 424 l 5,33,-1
 306 464 l 5,34,-1
 304 518 l 5,35,-1
 298 582 l 5,36,-1
 282 624 l 5,37,-1
 248 650 l 5,38,-1
 214 664 l 5,39,-1
 172 668 l 5,24,-1
EndSplineSet
EndChar

StartChar: plusminus
Encoding: 177 177 145
Width: 545
GlyphClass: 1
Flags: W
LayerCount: 2
Fore
SplineSet
227 573 m 1,0,-1
 318 573 l 1,1,-1
 318 391 l 1,2,-1
 500 391 l 1,3,-1
 500 300 l 1,4,-1
 318 300 l 1,5,-1
 318 119 l 1,6,-1
 227 119 l 1,7,-1
 227 300 l 1,8,-1
 45 300 l 1,9,-1
 45 391 l 1,10,-1
 227 391 l 1,11,-1
 227 573 l 1,0,-1
45 73 m 1,12,-1
 500 73 l 1,13,-1
 500 -18 l 1,14,-1
 45 -18 l 1,15,-1
 45 73 l 1,12,-1
EndSplineSet
Validated: 1
EndChar

StartChar: uni00B2
Encoding: 178 178 146
Width: 545
GlyphClass: 1
Flags: W
LayerCount: 2
Fore
SplineSet
136 344 m 1,0,-1
 136 255 l 1,1,-1
 363 255 l 1,2,-1
 363 346 l 1,3,-1
 227 346 l 1,4,-1
 348 498 l 1,5,-1
 356.296875 548 l 1,6,7
 356.296875 548 356.296875 548 350 610 c 1,8,-1
 314 644 l 1,9,-1
 272 664 l 1,10,-1
 200 664 l 1,11,-1
 156 644 l 1,12,-1
 136 619 l 1,13,-1
 136 528 l 1,14,-1
 136 528 l 1,15,-1
 181 573 l 1,16,-1
 230 596 l 1,17,18
 230 596 230 596 272 573 c 1,19,-1
 284 530 l 1,20,21
 284 530 284 530 256 484 c 1,22,-1
 136 344 l 1,0,-1
EndSplineSet
EndChar

StartChar: uni00B3
Encoding: 179 179 147
Width: 545
GlyphClass: 1
Flags: W
LayerCount: 2
Fore
SplineSet
224 662 m 5,0,-1
 276 664 l 5,1,-1
 322 644 l 5,2,-1
 360 586 l 5,3,-1
 360 524 l 5,4,-1
 318 482 l 5,5,-1
 350 464 l 5,6,-1
 364 408 l 5,7,-1
 360 328 l 5,8,-1
 332 288 l 5,9,-1
 270 262 l 5,10,-1
 208 264 l 5,11,-1
 160 280 l 5,12,-1
 138 330 l 5,13,-1
 136 391 l 5,14,-1
 181 391 l 5,15,-1
 181 346 l 5,16,-1
 230 324 l 5,17,18
 230 324 230 324 272 346 c 5,19,-1
 296 390 l 5,20,21
 296 390 296 390 272 437 c 5,22,-1
 227 437 l 5,23,-1
 227 482 l 5,24,-1
 272 482 l 5,25,-1
 292 526 l 5,26,27
 292 526 292 526 272 573 c 5,28,-1
 228 576 l 5,29,-1
 182 570 l 5,30,-1
 136 528 l 5,31,-1
 136 619 l 5,32,-1
 176 640 l 5,33,-1
 224 662 l 5,0,-1
EndSplineSet
EndChar

StartChar: acute
Encoding: 180 180 148
Width: 545
GlyphClass: 1
Flags: W
LayerCount: 2
Fore
SplineSet
409 755 m 1,0,-1
 409 800 l 1,3,-1
 272 800 l 1,2,-1
 136 664 l 1,1,-1
 409 755 l 1,0,-1
EndSplineSet
EndChar

StartChar: uni00B5
Encoding: 181 181 149
Width: 545
GlyphClass: 1
Flags: W
LayerCount: 2
Fore
SplineSet
45 482 m 1,0,-1
 227 482 l 1,1,-1
 227 437 l 1,2,-1
 181 437 l 1,3,-1
 182 158 l 1,4,-1
 198 114 l 1,5,-1
 238 84 l 1,6,-1
 302 94 l 1,7,-1
 342 116 l 1,8,-1
 364 174 l 1,9,-1
 363 437 l 1,10,-1
 318 437 l 1,11,-1
 318 482 l 1,12,-1
 500 482 l 1,13,-1
 500 437 l 1,14,-1
 454 437 l 1,15,-1
 454 73 l 1,16,-1
 500 73 l 1,17,-1
 500 28 l 1,18,-1
 409 28 l 1,19,-1
 409 73 l 1,20,-1
 346 40 l 1,21,-1
 274 26 l 1,22,-1
 181 28 l 1,23,-1
 180 -98 l 1,24,-1
 166 -158 l 1,25,-1
 122 -188 l 1,26,-1
 45 -200 l 1,27,-1
 45 -154 l 1,28,-1
 70 -134.392156863 l 1,29,30
 70 -134.392156863 70 -134.392156863 96 -88 c 1,31,-1
 96 -40 l 1,32,33
 96 -40 96 -40 90 437 c 1,34,-1
 45 437 l 1,35,-1
 45 482 l 1,0,-1
EndSplineSet
EndChar

StartChar: paragraph
Encoding: 182 182 150
Width: 545
GlyphClass: 1
Flags: W
LayerCount: 2
Fore
SplineSet
216 664 m 1,0,-1
 454 664 l 1,1,-1
 454 28 l 1,2,-1
 363 28 l 1,3,-1
 363 619 l 1,4,-1
 318 619 l 1,5,-1
 318 28 l 1,6,-1
 227 28 l 1,7,-1
 227 346 l 1,8,-1
 150 346 l 1,9,-1
 104 368 l 1,10,-1
 72 388 l 1,11,-1
 52 418 l 1,12,-1
 44 490 l 1,13,-1
 48 540 l 1,14,-1
 70 596 l 1,15,-1
 90 619 l 1,16,-1
 136 654 l 5,17,-1
 216 664 l 1,0,-1
EndSplineSet
EndChar

StartChar: periodcentered
Encoding: 183 183 151
Width: 545
GlyphClass: 1
Flags: W
LayerCount: 2
Fore
SplineSet
272 346 m 1,0,-1
 272 346 l 5,1,-1
 318 300 l 1,2,-1
 363 253 l 1,3,-1
 363 253 l 1,4,-1
 318 210 l 1,5,-1
 272 164 l 1,6,-1
 272 164 l 1,7,-1
 227 210 l 1,8,-1
 181 256 l 1,9,-1
 181 256 l 1,10,-1
 227 300 l 1,11,-1
 272 346 l 1,0,-1
EndSplineSet
EndChar

StartChar: cedilla
Encoding: 184 184 152
Width: 545
GlyphClass: 1
Flags: W
LayerCount: 2
Fore
SplineSet
272 28 m 1,0,-1
 318 28 l 1,1,-1
 318 -18 l 1,2,-1
 352 -28 l 1,3,-1
 382 -62 l 1,4,-1
 404 -108 l 1,5,-1
 409 -154 l 1,6,-1
 378 -186 l 1,7,-1
 322 -200 l 1,8,-1
 227 -200 l 1,9,-1
 198 -178 l 5,10,-1
 181 -154 l 1,11,-1
 181 -109 l 1,12,-1
 216 -120 l 1,13,-1
 258 -156 l 1,14,-1
 318 -154 l 1,15,-1
 334 -122 l 1,16,17
 334 -122 334 -122 318 -74 c 1,18,-1
 272 -63 l 1,19,-1
 272 28 l 1,0,-1
EndSplineSet
EndChar

StartChar: uni00B9
Encoding: 185 185 153
Width: 545
GlyphClass: 1
Flags: W
LayerCount: 2
Fore
SplineSet
227 664 m 1,0,-1
 318 664 l 1,1,-1
 318 300 l 1,2,-1
 363 300 l 1,3,-1
 363 255 l 1,4,-1
 181 255 l 1,5,-1
 181 300 l 1,6,-1
 227 300 l 1,7,-1
 227 528 l 1,8,-1
 181 528 l 1,9,-1
 181 619 l 1,10,-1
 181 619 l 5,11,-1
 227 664 l 1,0,-1
EndSplineSet
EndChar

StartChar: ordmasculine
Encoding: 186 186 154
Width: 545
GlyphClass: 1
Flags: W
LayerCount: 2
Fore
SplineSet
229 654 m 5,0,-1
 298 654 l 5,1,-1
 364 642 l 5,2,-1
 414 590 l 5,3,-1
 430 558 l 5,4,-1
 438 482 l 5,5,-1
 440 422 l 5,6,-1
 436 390 l 5,7,-1
 420 360 l 5,8,-1
 394 336 l 5,9,-1
 372 318 l 5,10,-1
 342 296 l 5,11,-1
 302 286 l 5,12,-1
 246 288 l 5,13,-1
 186 306 l 5,14,-1
 138 335 l 5,15,-1
 122 354 l 5,16,-1
 116 380 l 5,17,-1
 112 432 l 5,18,-1
 112 514 l 5,19,-1
 122 560 l 5,20,-1
 142 588 l 5,21,-1
 170 616 l 5,22,-1
 188 636 l 5,23,-1
 229 654 l 5,0,-1
220 612 m 5,24,-1
 190 596 l 5,25,-1
 180 544 l 5,26,-1
 182 476 l 5,27,-1
 182 430 l 5,28,-1
 202 392 l 5,29,-1
 240 368 l 5,30,-1
 282 358 l 5,31,-1
 324 352 l 5,32,-1
 342 368 l 5,33,-1
 354 408 l 5,34,-1
 352 462 l 5,35,-1
 346 526 l 5,36,-1
 330 568 l 5,37,-1
 296 594 l 5,38,-1
 262 608 l 5,39,-1
 220 612 l 5,24,-1
454 119 m 1,44,-1
 45 119 l 1,41,-1
 90 210 l 1,42,-1
 500 210 l 1,43,-1
 454 119 l 1,44,-1
EndSplineSet
EndChar

StartChar: guillemotright
Encoding: 187 187 155
Width: 545
GlyphClass: 1
Flags: W
LayerCount: 2
Fore
SplineSet
434 257 m 5,0,-1
 432 288 l 5,1,-1
 207 439 l 5,2,-1
 206 390 l 5,3,-1
 344 278 l 5,4,-1
 208 102 l 5,5,-1
 207 75 l 5,6,-1
 434 257 l 5,0,-1
272 255 m 5,7,-1
 270 286 l 5,8,-1
 45 437 l 5,9,-1
 44 388 l 5,10,-1
 182 276 l 5,11,-1
 46 100 l 5,12,-1
 45 73 l 5,13,-1
 272 255 l 5,7,-1
EndSplineSet
EndChar

StartChar: onequarter
Encoding: 188 188 156
Width: 545
GlyphClass: 1
Flags: W
LayerCount: 2
Fore
SplineSet
454 391 m 1,0,-1
 454 119 l 1,1,-1
 500 119 l 1,2,-1
 500 73 l 1,3,-1
 454 73 l 1,4,-1
 454 -18 l 1,5,-1
 363 -18 l 1,6,-1
 363 73 l 1,7,-1
 227 73 l 1,8,-1
 226 121 l 1,9,-1
 454 391 l 1,0,-1
46 135 m 1,10,-1
 45 73 l 1,11,-1
 90 73 l 1,12,-1
 500 523 l 1,13,-1
 500 573 l 1,14,-1
 454 573 l 1,15,-1
 276 391 l 1,16,-1
 227 391 l 1,17,-1
 227 755 l 1,18,-1
 136 755 l 1,19,-1
 136 755 l 1,20,-1
 90 710 l 1,21,-1
 90 619 l 1,22,-1
 136 619 l 1,23,-1
 136 391 l 1,24,-1
 90 391 l 1,25,-1
 90 346 l 1,26,-1
 240 347 l 1,27,-1
 46 135 l 1,10,-1
363 210 m 1,28,-1
 288 119 l 1,29,-1
 363 119 l 1,30,-1
 363 210 l 1,28,-1
EndSplineSet
EndChar

StartChar: onehalf
Encoding: 189 189 157
Width: 545
GlyphClass: 1
Flags: W
LayerCount: 2
Fore
SplineSet
136 755 m 1,0,-1
 227 755 l 1,1,-1
 227 391 l 1,2,-1
 318 391 l 1,3,-1
 318 437 l 1,4,-1
 363 437 l 1,5,-1
 363 482 l 1,6,-1
 409 482 l 1,7,-1
 409 528 l 1,8,-1
 454 528 l 1,9,-1
 454 573 l 1,10,-1
 500 573 l 1,11,-1
 500 482 l 1,12,-1
 454 482 l 1,13,-1
 454 437 l 1,14,-1
 409 437 l 1,15,-1
 409 391 l 1,16,-1
 454 391 l 1,17,-1
 454 346 l 1,18,-1
 500 346 l 1,19,-1
 500 210 l 1,20,-1
 454 210 l 1,21,-1
 454 164 l 1,22,-1
 409 164 l 1,23,-1
 409 119 l 1,24,-1
 363 119 l 1,25,-1
 363 73 l 1,26,-1
 500 73 l 1,27,-1
 500 -18 l 1,28,-1
 272 -18 l 1,29,-1
 272 119 l 1,30,-1
 318 119 l 1,31,-1
 318 164 l 1,32,-1
 363 164 l 1,33,-1
 363 210 l 1,34,-1
 409 210 l 1,35,-1
 409 300 l 1,36,-1
 363 300 l 1,37,-1
 363 255 l 1,38,-1
 318 255 l 1,39,-1
 318 210 l 1,40,-1
 272 210 l 1,41,-1
 272 255 l 1,42,-1
 227 255 l 1,43,-1
 227 210 l 1,44,-1
 181 210 l 1,45,-1
 181 164 l 1,46,-1
 136 164 l 1,47,-1
 136 119 l 1,48,-1
 90 119 l 1,49,-1
 90 73 l 1,50,-1
 45 73 l 1,51,-1
 45 164 l 1,52,-1
 90 164 l 1,53,-1
 90 210 l 1,54,-1
 136 210 l 1,55,-1
 136 255 l 1,56,-1
 181 255 l 1,57,-1
 181 300 l 1,58,-1
 227 300 l 1,59,-1
 227 346 l 1,60,-1
 90 346 l 1,61,-1
 90 391 l 1,62,-1
 136 391 l 1,63,-1
 136 619 l 1,64,-1
 90 619 l 1,65,-1
 90 710 l 1,66,-1
 136 710 l 1,67,-1
 136 755 l 1,0,-1
EndSplineSet
Validated: 1
EndChar

StartChar: threequarters
Encoding: 190 190 158
Width: 545
GlyphClass: 1
Flags: W
LayerCount: 2
Fore
SplineSet
454 573 m 1,0,-1
 500 573 l 1,1,-1
 500 523 l 1,2,-1
 90 73 l 1,3,-1
 45 73 l 1,4,-1
 46 135 l 1,5,-1
 454 573 l 1,0,-1
134 744 m 5,6,-1
 186 746 l 5,7,-1
 232 726 l 5,8,-1
 270 668 l 5,9,-1
 270 606 l 5,10,-1
 228 564 l 5,11,-1
 260 546 l 5,12,-1
 274 490 l 5,13,-1
 270 410 l 5,14,-1
 242 370 l 5,15,-1
 180 344 l 5,16,-1
 118 346 l 5,17,-1
 70 362 l 5,18,-1
 48 412 l 5,19,-1
 46 473 l 5,20,-1
 91 473 l 5,21,-1
 91 428 l 5,22,-1
 140 406 l 5,23,24
 140 406 140 406 182 428 c 5,25,-1
 206 472 l 5,26,27
 206 472 206 472 182 519 c 5,28,-1
 137 519 l 5,29,-1
 137 564 l 5,30,-1
 182 564 l 5,31,-1
 202 608 l 5,32,33
 202 608 202 608 182 655 c 5,34,-1
 138 658 l 5,35,-1
 92 652 l 5,36,-1
 46 610 l 5,37,-1
 46 701 l 5,38,-1
 86 722 l 5,39,-1
 134 744 l 5,6,-1
454 391 m 1,40,-1
 454 119 l 1,41,-1
 500 119 l 1,42,-1
 500 73 l 1,43,-1
 454 73 l 1,44,-1
 454 -18 l 1,45,-1
 363 -18 l 1,46,-1
 363 73 l 1,47,-1
 227 73 l 1,48,-1
 226 121 l 1,49,-1
 454 391 l 1,40,-1
363 210 m 1,50,-1
 288 119 l 1,51,-1
 363 119 l 1,52,-1
 363 210 l 1,50,-1
EndSplineSet
EndChar

StartChar: questiondown
Encoding: 191 191 159
Width: 545
GlyphClass: 1
Flags: W
LayerCount: 2
Fore
SplineSet
338 -16 m 5,0,-1
 276 -20 l 5,1,2
 276 -20 276 -20 204 -10 c 5,3,-1
 176 2 l 5,4,-1
 150 18 l 5,5,-1
 126 34 l 5,6,-1
 108 68 l 5,7,-1
 90 152 l 5,8,9
 90 152 90 152 100 216 c 5,10,-1
 124 244 l 5,11,-1
 148 270 l 5,12,-1
 172 302 l 5,13,-1
 196 328 l 5,14,-1
 228 356 l 5,15,-1
 262 390 l 5,16,-1
 272 418 l 5,17,-1
 272 452 l 5,18,19
 272 452 272 452 290 470 c 5,20,-1
 318 480 l 5,21,22
 318 480 318 480 348 476 c 5,23,-1
 363 458 l 5,24,25
 363 458 363 458 364 406 c 5,26,-1
 338 384 l 5,27,-1
 316 370 l 5,28,-1
 292 354 l 5,29,-1
 256 328 l 5,30,-1
 226 299 l 5,31,-1
 226 299 l 5,32,-1
 196 262 l 5,33,-1
 170 208 l 5,34,35
 170 208 170 208 170 148 c 5,36,-1
 192 96 l 5,37,-1
 226 71 l 5,38,-1
 276 58 l 5,39,40
 276 58 276 58 328 60 c 5,41,-1
 366 74 l 5,42,-1
 402 96 l 5,43,-1
 424 136 l 5,44,-1
 454 162 l 5,45,-1
 446 88 l 5,46,-1
 426 56 l 5,47,-1
 414 38 l 5,48,-1
 382 6 l 5,49,-1
 338 -16 l 5,0,-1
363 571 m 5,50,-1
 272 571 l 5,51,-1
 272 662 l 5,52,-1
 363 662 l 5,53,-1
 363 571 l 5,50,-1
EndSplineSet
EndChar

StartChar: Agrave
Encoding: 192 192 160
Width: 545
GlyphClass: 1
Flags: W
LayerCount: 2
Fore
SplineSet
227 664 m 5,0,-1
 318 664 l 5,1,-1
 332 612 l 5,2,-1
 350 556 l 5,3,-1
 380 472 l 5,4,-1
 406 388 l 5,5,-1
 428 324 l 5,6,-1
 446 262 l 5,7,-1
 478 178 l 5,8,-1
 505 108 l 5,9,-1
 533 82 l 5,10,-1
 562 75 l 5,11,-1
 562 30 l 5,12,-1
 380 30 l 5,13,-1
 380 75 l 5,14,-1
 412 78 l 5,15,-1
 428 110 l 5,16,-1
 402 188 l 5,17,-1
 380 256 l 5,18,-1
 152 256 l 5,19,-1
 122 154 l 5,20,-1
 106 94 l 5,21,-1
 128 72 l 5,22,-1
 148 73 l 5,23,-1
 148 28 l 5,24,-1
 -14 28 l 5,25,-1
 -12 80 l 5,26,-1
 30 80 l 5,27,-1
 48 98 l 5,28,-1
 62 140 l 5,29,-1
 84 210 l 5,30,-1
 106 286 l 5,31,-1
 132 368 l 5,32,-1
 154 432 l 5,33,-1
 178 510 l 5,34,-1
 206 598 l 5,35,-1
 227 664 l 5,0,-1
230 484 m 5,36,-1
 212 426 l 5,37,-1
 194 374 l 5,38,-1
 170 300 l 5,39,-1
 363 300 l 5,40,-1
 344 354 l 5,41,-1
 332 394 l 5,42,-1
 310 458 l 5,43,-1
 290 514 l 5,44,-1
 264 590 l 5,45,-1
 230 484 l 5,36,-1
409 664 m 1,46,-1
 136 755 l 1,47,-1
 136 800 l 1,48,-1
 272 800 l 1,49,-1
 409 664 l 1,46,-1
EndSplineSet
EndChar

StartChar: Aacute
Encoding: 193 193 161
Width: 545
GlyphClass: 1
Flags: W
LayerCount: 2
Fore
SplineSet
227 664 m 1,0,-1
 318 664 l 1,1,-1
 332 612 l 1,2,-1
 350 556 l 1,3,-1
 380 472 l 1,4,-1
 406 388 l 1,5,-1
 428 324 l 1,6,-1
 446 262 l 1,7,-1
 478 178 l 1,8,-1
 505 108 l 1,9,-1
 533 82 l 1,10,-1
 562 75 l 1,11,-1
 562 30 l 1,12,-1
 380 30 l 1,13,-1
 380 75 l 1,14,-1
 412 78 l 1,15,-1
 428 110 l 1,16,-1
 402 188 l 1,17,-1
 380 256 l 1,18,-1
 152 256 l 1,19,-1
 122 154 l 1,20,-1
 106 94 l 1,21,-1
 128 72 l 1,22,-1
 148 73 l 1,23,-1
 148 28 l 1,24,-1
 -14 28 l 1,25,-1
 -12 80 l 1,26,-1
 30 80 l 1,27,-1
 48 98 l 1,28,-1
 62 140 l 1,29,-1
 84 210 l 1,30,-1
 106 286 l 1,31,-1
 132 368 l 1,32,-1
 154 432 l 1,33,-1
 178 510 l 1,34,-1
 206 598 l 1,35,-1
 227 664 l 1,0,-1
230 484 m 1,36,-1
 212 426 l 1,37,-1
 194 374 l 1,38,-1
 170 300 l 1,39,-1
 363 300 l 1,40,-1
 344 354 l 1,41,-1
 332 394 l 1,42,-1
 310 458 l 1,43,-1
 290 514 l 1,44,-1
 264 590 l 1,45,-1
 230 484 l 1,36,-1
409 755 m 1,46,-1
 409 800 l 1,49,-1
 272 800 l 1,48,-1
 136 664 l 1,47,-1
 409 755 l 1,46,-1
EndSplineSet
EndChar

StartChar: Acircumflex
Encoding: 194 194 162
Width: 545
GlyphClass: 1
Flags: W
LayerCount: 2
Fore
SplineSet
227 664 m 1,0,-1
 318 664 l 1,1,-1
 332 612 l 1,2,-1
 350 556 l 1,3,-1
 380 472 l 1,4,-1
 406 388 l 1,5,-1
 428 324 l 1,6,-1
 446 262 l 1,7,-1
 478 178 l 1,8,-1
 505 108 l 1,9,-1
 533 82 l 1,10,-1
 562 75 l 1,11,-1
 562 30 l 1,12,-1
 380 30 l 1,13,-1
 380 75 l 1,14,-1
 412 78 l 1,15,-1
 428 110 l 1,16,-1
 402 188 l 1,17,-1
 380 256 l 1,18,-1
 152 256 l 1,19,-1
 122 154 l 1,20,-1
 106 94 l 1,21,-1
 128 72 l 1,22,-1
 148 73 l 1,23,-1
 148 28 l 1,24,-1
 -14 28 l 1,25,-1
 -12 80 l 1,26,-1
 30 80 l 1,27,-1
 48 98 l 1,28,-1
 62 140 l 1,29,-1
 84 210 l 1,30,-1
 106 286 l 1,31,-1
 132 368 l 1,32,-1
 154 432 l 1,33,-1
 178 510 l 1,34,-1
 206 598 l 1,35,-1
 227 664 l 1,0,-1
230 484 m 1,36,-1
 212 426 l 1,37,-1
 194 374 l 1,38,-1
 170 300 l 1,39,-1
 363 300 l 1,40,-1
 344 354 l 1,41,-1
 332 394 l 1,42,-1
 310 458 l 1,43,-1
 290 514 l 1,44,-1
 264 590 l 1,45,-1
 230 484 l 1,36,-1
409 664 m 1,50,-1
 270 714 l 1,47,-1
 136 664 l 1,48,-1
 270 800 l 1,49,-1
 409 664 l 1,50,-1
EndSplineSet
EndChar

StartChar: Atilde
Encoding: 195 195 163
Width: 545
GlyphClass: 1
Flags: W
LayerCount: 2
Fore
SplineSet
222.799804688 791.400390625 m 5,0,-1
 264.400390625 794.400390625 l 5,1,-1
 292.400390625 777 l 5,2,-1
 308.400390625 760.799804688 l 5,3,-1
 330 730.799804688 l 5,4,-1
 353.200195312 711 l 5,5,-1
 377.200195312 709.799804688 l 5,6,-1
 398 726.600585938 l 5,7,-1
 417.200195312 745.200195312 l 5,8,-1
 435.600585938 768.600585938 l 5,9,-1
 444.400390625 783.600585938 l 5,10,11
 444.400390625 783.600585938 444.400390625 783.600585938 449.200195312 794.400390625 c 5,12,-1
 463.600585938 796.799804688 l 5,13,14
 463.600585938 796.799804688 463.600585938 796.799804688 476.400390625 793.799804688 c 5,15,-1
 481.200195312 782.400390625 l 5,16,17
 481.200195312 782.400390625 481.200195312 782.400390625 474 763.200195312 c 5,18,-1
 456.400390625 735.600585938 l 5,19,-1
 434.799804688 710.400390625 l 5,20,-1
 408.400390625 687.600585938 l 5,21,-1
 370 672 l 5,22,-1
 319.600585938 670.799804688 l 5,23,-1
 293.200195312 682.200195312 l 5,24,-1
 270.799804688 708 l 5,25,-1
 253.200195312 730.200195312 l 5,26,-1
 240.400390625 739.799804688 l 5,27,-1
 216.400390625 741.600585938 l 5,28,-1
 198.799804688 733.200195312 l 5,29,-1
 183.600585938 717.600585938 l 5,30,-1
 170.799804688 695.400390625 l 5,31,-1
 158.799804688 673.200195312 l 5,32,33
 158.799804688 673.200195312 158.799804688 673.200195312 149.200195312 661.799804688 c 5,34,-1
 134 660.600585938 l 5,35,36
 134 660.600585938 134 660.600585938 121.200195312 663.600585938 c 5,37,-1
 117.200195312 673.200195312 l 5,38,39
 117.200195312 673.200195312 117.200195312 673.200195312 121.200195312 693 c 5,40,-1
 138 714 l 5,41,-1
 156.400390625 742.200195312 l 5,42,-1
 190.799804688 774 l 5,43,-1
 222.799804688 791.400390625 l 5,0,-1
227 664 m 1,44,-1
 318 664 l 1,45,-1
 332 612 l 1,46,-1
 350 556 l 1,47,-1
 380 472 l 1,48,-1
 406 388 l 1,49,-1
 428 324 l 1,50,-1
 446 262 l 1,51,-1
 478 178 l 1,52,-1
 505 108 l 1,53,-1
 533 82 l 1,54,-1
 562 75 l 1,55,-1
 562 30 l 1,56,-1
 380 30 l 1,57,-1
 380 75 l 1,58,-1
 412 78 l 1,59,-1
 428 110 l 1,60,-1
 402 188 l 1,61,-1
 380 256 l 1,62,-1
 152 256 l 1,63,-1
 122 154 l 1,64,-1
 106 94 l 1,65,-1
 128 72 l 1,66,-1
 148 73 l 1,67,-1
 148 28 l 1,68,-1
 -14 28 l 1,69,-1
 -12 80 l 1,70,-1
 30 80 l 1,71,-1
 48 98 l 1,72,-1
 62 140 l 1,73,-1
 84 210 l 1,74,-1
 106 286 l 1,75,-1
 132 368 l 1,76,-1
 154 432 l 1,77,-1
 178 510 l 1,78,-1
 206 598 l 1,79,-1
 227 664 l 1,44,-1
230 484 m 1,80,-1
 212 426 l 1,81,-1
 194 374 l 1,82,-1
 170 300 l 1,83,-1
 363 300 l 1,84,-1
 344 354 l 1,85,-1
 332 394 l 1,86,-1
 310 458 l 1,87,-1
 290 514 l 1,88,-1
 264 590 l 1,89,-1
 230 484 l 1,80,-1
EndSplineSet
EndChar

StartChar: Adieresis
Encoding: 196 196 164
Width: 545
GlyphClass: 1
Flags: W
LayerCount: 2
Fore
SplineSet
227 664 m 5,0,-1
 318 664 l 5,1,-1
 332 612 l 5,2,-1
 350 556 l 5,3,-1
 380 472 l 5,4,-1
 406 388 l 5,5,-1
 428 324 l 5,6,-1
 446 262 l 5,7,-1
 478 178 l 5,8,-1
 505 108 l 5,9,-1
 533 82 l 5,10,-1
 562 75 l 5,11,-1
 562 30 l 5,12,-1
 380 30 l 5,13,-1
 380 75 l 5,14,-1
 412 78 l 5,15,-1
 428 110 l 5,16,-1
 402 188 l 5,17,-1
 380 256 l 5,18,-1
 152 256 l 5,19,-1
 122 154 l 5,20,-1
 106 94 l 5,21,-1
 128 72 l 5,22,-1
 148 73 l 5,23,-1
 148 28 l 5,24,-1
 -14 28 l 5,25,-1
 -12 80 l 5,26,-1
 30 80 l 5,27,-1
 48 98 l 5,28,-1
 62 140 l 5,29,-1
 84 210 l 5,30,-1
 106 286 l 5,31,-1
 132 368 l 5,32,-1
 154 432 l 5,33,-1
 178 510 l 5,34,-1
 206 598 l 5,35,-1
 227 664 l 5,0,-1
230 484 m 5,36,-1
 212 426 l 5,37,-1
 194 374 l 5,38,-1
 170 300 l 5,39,-1
 363 300 l 5,40,-1
 344 354 l 5,41,-1
 332 394 l 5,42,-1
 310 458 l 5,43,-1
 290 514 l 5,44,-1
 264 590 l 5,45,-1
 230 484 l 5,36,-1
136 800 m 1,46,-1
 227 800 l 1,47,-1
 227 710 l 1,48,-1
 136 710 l 1,49,-1
 136 800 l 1,46,-1
318 800 m 1,50,-1
 409 800 l 1,51,-1
 409 710 l 1,52,-1
 318 710 l 1,53,-1
 318 800 l 1,50,-1
EndSplineSet
EndChar

StartChar: Aring
Encoding: 197 197 165
Width: 545
GlyphClass: 1
Flags: W
LayerCount: 2
Fore
SplineSet
220 648 m 1,0,-1
 178 510 l 1,1,-1
 154 432 l 1,2,-1
 132 368 l 1,3,-1
 106 286 l 1,4,-1
 84 210 l 1,5,-1
 62 140 l 1,6,-1
 48 98 l 1,7,-1
 30 80 l 1,8,-1
 -12 80 l 1,9,-1
 -14 28 l 1,10,-1
 148 28 l 1,11,-1
 148 73 l 1,12,-1
 128 72 l 1,13,-1
 106 94 l 1,14,-1
 122 154 l 1,15,-1
 152 256 l 1,16,-1
 380 256 l 1,17,-1
 402 188 l 1,18,-1
 428 110 l 1,19,-1
 412 78 l 1,20,-1
 380 75 l 1,21,-1
 380 30 l 1,22,-1
 562 30 l 1,23,-1
 562 75 l 1,24,-1
 533 82 l 1,25,-1
 505 108 l 1,26,-1
 478 178 l 1,27,-1
 446 262 l 1,28,-1
 428 324 l 1,29,-1
 406 388 l 1,30,-1
 380 472 l 1,31,-1
 350 556 l 1,32,-1
 332 612 l 1,33,-1
 322 650 l 1,34,-1
 334.611328125 664.307617188 l 1,35,-1
 344.96484375 680.0625 l 1,36,-1
 352.166992188 698.969726562 l 1,37,-1
 355.768554688 730.481445312 l 1,38,39
 355.768554688 730.481445312 355.768554688 730.481445312 352.6171875 745.336914062 c 1,40,-1
 345.865234375 761.54296875 l 1,41,-1
 337.76171875 774.596679688 l 1,42,-1
 325.607421875 786.30078125 l 1,43,-1
 309.852539062 796.655273438 l 1,44,-1
 281.943359375 799.35546875 l 1,45,46
 281.943359375 799.35546875 281.943359375 799.35546875 253.1328125 799.35546875 c 1,47,-1
 243.229492188 795.75390625 l 1,48,-1
 230.174804688 784.950195312 l 1,49,-1
 220.720703125 775.948242188 l 1,50,-1
 210.3671875 764.2421875 l 1,51,-1
 200.014648438 749.837890625 l 1,52,-1
 195.0625 735.883789062 l 1,53,-1
 191.911132812 707.5234375 l 1,54,55
 191.911132812 707.5234375 191.911132812 707.5234375 192.361328125 684.564453125 c 1,56,-1
 199.563476562 668.360351562 l 1,57,-1
 212.168945312 655.755859375 l 1,58,-1
 220 648 l 1,0,-1
253.1328125 778.647460938 m 5,59,-1
 273.83984375 778.647460938 l 5,60,-1
 285.543945312 774.146484375 l 5,61,-1
 296.34765625 766.043945312 l 5,62,-1
 306.702148438 753.888671875 l 5,63,-1
 314.8046875 737.68359375 l 5,64,-1
 321.107421875 707.973632812 l 5,65,66
 321.107421875 707.973632812 321.107421875 707.973632812 314.8046875 676.461914062 c 5,67,-1
 306.250976562 665.20703125 l 5,68,-1
 294.096679688 655.755859375 l 5,69,-1
 273.83984375 655.755859375 l 5,70,-1
 263.037109375 661.157226562 l 5,71,-1
 250.431640625 668.809570312 l 5,72,-1
 236.026367188 682.314453125 l 5,73,-1
 227.473632812 699.87109375 l 5,74,-1
 224.7734375 725.079101562 l 5,75,76
 224.7734375 725.079101562 224.7734375 725.079101562 232.875 758.391601562 c 5,77,-1
 238.727539062 768.293945312 l 5,78,-1
 253.1328125 778.647460938 l 5,59,-1
230 484 m 1,79,-1
 264 590 l 1,80,-1
 290 514 l 1,81,-1
 310 458 l 1,82,-1
 332 394 l 1,83,-1
 344 354 l 1,84,-1
 363 300 l 1,85,-1
 170 300 l 1,86,-1
 194 374 l 1,87,-1
 212 426 l 1,88,-1
 230 484 l 1,79,-1
EndSplineSet
EndChar

StartChar: AE
Encoding: 198 198 166
Width: 545
GlyphClass: 1
Flags: W
LayerCount: 2
Fore
SplineSet
150 256 m 1,0,-1
 227 255 l 1,1,-1
 227 28 l 1,2,-1
 545 28 l 1,3,-1
 545 164 l 1,4,-1
 500 164 l 1,5,-1
 500 73 l 1,6,-1
 318 73 l 1,7,-1
 318 346 l 1,8,-1
 409 346 l 1,9,-1
 409 300 l 1,10,-1
 454 300 l 1,11,-1
 454 437 l 1,12,-1
 409 437 l 1,13,-1
 409 391 l 1,14,-1
 318 391 l 1,15,-1
 318 619 l 1,16,-1
 454 619 l 1,17,-1
 454 528 l 1,18,-1
 500 528 l 1,19,-1
 500 664 l 1,20,-1
 181 664 l 1,21,-1
 45 73 l 1,22,-1
 0 73 l 1,23,-1
 0 28 l 1,24,-1
 150 28 l 1,25,-1
 150 73 l 1,26,-1
 106 74 l 1,27,-1
 150 256 l 1,0,-1
164 300 m 5,28,-1
 227 573 l 5,29,-1
 227 300 l 5,30,-1
 164 300 l 5,28,-1
EndSplineSet
EndChar

StartChar: Ccedilla
Encoding: 199 199 167
Width: 545
GlyphClass: 1
Flags: W
LayerCount: 2
Fore
SplineSet
248 666 m 1,0,-1
 402 662 l 1,1,-1
 470 632 l 1,2,-1
 504 604 l 1,3,-1
 500 528 l 1,4,-1
 466 528 l 1,5,-1
 444 592 l 1,6,-1
 408 610 l 1,7,-1
 356 620 l 1,8,-1
 250 618 l 1,9,10
 250 618 250 618 190 598 c 1,11,-1
 162 560 l 1,12,-1
 148 506 l 1,13,-1
 144.676923077 446 l 1,14,15
 144.676923077 446 144.676923077 446 140.246153846 302 c 1,16,17
 140.246153846 302 140.246153846 302 140 194 c 1,18,-1
 160 158 l 1,19,-1
 198 116 l 1,20,-1
 232 86 l 1,21,-1
 276 68 l 1,22,-1
 352 68 l 1,23,-1
 408 94 l 1,24,-1
 436 138 l 1,25,-1
 454 164 l 1,26,-1
 500 164 l 1,27,-1
 500 119 l 1,28,-1
 478 98 l 1,29,-1
 454 73 l 1,30,-1
 426 48 l 1,31,-1
 388 30 l 1,32,-1
 318 28 l 1,33,-1
 318 -18 l 1,34,-1
 344 -34 l 1,35,-1
 363 -63 l 1,36,-1
 378 -90 l 1,37,-1
 376 -126 l 1,38,39
 376 -126 376 -126 374 -148 c 1,40,-1
 362 -168 l 1,41,-1
 338 -192 l 1,42,-1
 292 -200 l 1,43,44
 292 -200 292 -200 242 -196 c 1,45,-1
 206 -176 l 1,46,-1
 181 -154 l 1,47,-1
 181 -109 l 1,48,-1
 227 -109 l 1,49,-1
 238 -146 l 1,50,-1
 290 -162 l 1,51,52
 290 -162 290 -162 326 -142 c 1,53,-1
 328 -94 l 1,54,55
 328 -94 328 -94 300 -66 c 1,56,-1
 272 -63 l 1,57,-1
 272 -38 l 1,58,59
 272 -38 272 -38 272 28 c 1,60,-1
 236 28 l 1,61,-1
 178 42 l 1,62,-1
 148 62 l 1,63,-1
 114 92 l 1,64,-1
 90 119 l 1,65,-1
 62 170 l 1,66,-1
 45 210 l 1,67,-1
 46 428 l 1,68,-1
 52 492 l 1,69,-1
 72 540 l 1,70,-1
 100 590 l 1,71,-1
 136 619 l 1,72,-1
 172 642 l 1,73,-1
 248 666 l 1,0,-1
EndSplineSet
EndChar

StartChar: Egrave
Encoding: 200 200 168
Width: 545
GlyphClass: 1
Flags: W
LayerCount: 2
Fore
SplineSet
409 664 m 1,29,-1
 454 664 l 1,1,-1
 454 528 l 1,2,-1
 409 528 l 1,3,-1
 409 619 l 1,4,-1
 181 619 l 1,5,-1
 181 391 l 1,6,-1
 363 391 l 1,7,-1
 363 437 l 1,8,-1
 409 437 l 1,9,-1
 409 300 l 1,10,-1
 363 300 l 1,11,-1
 363 346 l 1,12,-1
 181 346 l 1,13,-1
 181 73 l 1,14,-1
 454 73 l 1,15,-1
 454 164 l 1,16,-1
 500 164 l 1,17,-1
 500 28 l 1,18,-1
 45 28 l 1,19,-1
 45 73 l 1,20,-1
 90 73 l 1,21,-1
 90 619 l 1,22,-1
 45 619 l 1,23,-1
 45 664 l 1,24,-1
 350 665 l 1,25,-1
 136 755 l 1,26,-1
 136 800 l 1,27,-1
 272 800 l 1,28,-1
 409 664 l 1,29,-1
EndSplineSet
EndChar

StartChar: Eacute
Encoding: 201 201 169
Width: 545
GlyphClass: 1
Flags: W
LayerCount: 2
Fore
SplineSet
272 800 m 5,0,-1
 409 800 l 1,28,-1
 409 755 l 1,27,-1
 186 663 l 1,26,-1
 454 664 l 1,25,-1
 454 528 l 1,24,-1
 409 528 l 1,23,-1
 409 619 l 1,22,-1
 181 619 l 1,21,-1
 181 391 l 1,20,-1
 363 391 l 1,19,-1
 363 437 l 1,18,-1
 409 437 l 1,17,-1
 409 300 l 1,16,-1
 363 300 l 1,15,-1
 363 346 l 1,14,-1
 181 346 l 1,13,-1
 181 73 l 1,12,-1
 454 73 l 1,11,-1
 454 164 l 1,10,-1
 500 164 l 1,9,-1
 500 28 l 1,8,-1
 45 28 l 1,7,-1
 45 73 l 1,6,-1
 90 73 l 1,5,-1
 90 619 l 1,4,-1
 45 619 l 1,3,-1
 45 664 l 1,2,-1
 136 664 l 1,1,-1
 272 800 l 5,0,-1
EndSplineSet
EndChar

StartChar: Ecircumflex
Encoding: 202 202 170
Width: 545
GlyphClass: 1
Flags: W
LayerCount: 2
Fore
SplineSet
409 664 m 1,0,-1
 454 664 l 1,1,-1
 454 528 l 1,2,-1
 409 528 l 1,3,-1
 409 619 l 1,4,-1
 181 619 l 1,5,-1
 181 391 l 1,6,-1
 363 391 l 1,7,-1
 363 437 l 1,8,-1
 409 437 l 1,9,-1
 409 300 l 1,10,-1
 363 300 l 1,11,-1
 363 346 l 1,12,-1
 181 346 l 1,13,-1
 181 73 l 1,14,-1
 454 73 l 1,15,-1
 454 164 l 1,16,-1
 500 164 l 1,17,-1
 500 28 l 1,18,-1
 45 28 l 1,19,-1
 45 73 l 1,20,-1
 90 73 l 1,21,-1
 90 619 l 1,22,-1
 45 619 l 1,23,-1
 45 664 l 1,24,-1
 136 664 l 1,25,-1
 274 803 l 1,26,-1
 409 664 l 1,0,-1
270 711 m 1,27,-1
 170 663 l 1,28,-1
 374 663 l 1,29,-1
 270 711 l 1,30,-1
 270 711 l 1,27,-1
EndSplineSet
EndChar

StartChar: Edieresis
Encoding: 203 203 171
Width: 545
GlyphClass: 1
Flags: W
LayerCount: 2
Fore
SplineSet
136 800 m 1,0,-1
 227 800 l 1,1,-1
 227 710 l 1,2,-1
 136 710 l 1,3,-1
 136 800 l 1,0,-1
318 800 m 1,4,-1
 409 800 l 1,5,-1
 409 710 l 1,6,-1
 318 710 l 1,7,-1
 318 800 l 1,4,-1
45 664 m 1,8,-1
 454 664 l 1,9,-1
 454 528 l 1,10,-1
 409 528 l 1,11,-1
 409 619 l 1,12,-1
 181 619 l 1,13,-1
 181 391 l 1,14,-1
 363 391 l 1,15,-1
 363 437 l 1,16,-1
 409 437 l 1,17,-1
 409 300 l 1,18,-1
 363 300 l 1,19,-1
 363 346 l 1,20,-1
 181 346 l 1,21,-1
 181 73 l 1,22,-1
 454 73 l 1,23,-1
 454 164 l 1,24,-1
 500 164 l 1,25,-1
 500 28 l 1,26,-1
 45 28 l 1,27,-1
 45 73 l 1,28,-1
 90 73 l 1,29,-1
 90 619 l 1,30,-1
 45 619 l 1,31,-1
 45 664 l 1,8,-1
EndSplineSet
Validated: 1
EndChar

StartChar: Igrave
Encoding: 204 204 172
Width: 545
GlyphClass: 1
Flags: W
LayerCount: 2
Fore
SplineSet
272 800 m 5,0,-1
 136 800 l 1,15,-1
 136 755 l 1,14,-1
 272 664 l 1,13,-1
 136 664 l 1,12,-1
 136 619 l 1,11,-1
 227 619 l 1,10,-1
 227 73 l 1,9,-1
 136 73 l 1,8,-1
 136 28 l 1,7,-1
 409 28 l 1,6,-1
 409 73 l 1,5,-1
 318 73 l 1,4,-1
 318 619 l 1,3,-1
 409 619 l 1,2,-1
 408 667 l 1,1,-1
 272 800 l 5,0,-1
EndSplineSet
EndChar

StartChar: Iacute
Encoding: 205 205 173
Width: 545
GlyphClass: 1
Flags: W
LayerCount: 2
Fore
SplineSet
272 800 m 5,0,-1
 409 800 l 1,1,-1
 409 755 l 1,2,-1
 272 664 l 1,3,-1
 409 664 l 1,4,-1
 409 619 l 1,5,-1
 318 619 l 1,6,-1
 318 73 l 1,7,-1
 409 73 l 1,8,-1
 409 28 l 1,9,-1
 136 28 l 1,10,-1
 136 73 l 1,11,-1
 227 73 l 1,12,-1
 227 619 l 1,13,-1
 136 619 l 1,14,-1
 136 663 l 1,15,-1
 272 800 l 5,0,-1
EndSplineSet
EndChar

StartChar: Icircumflex
Encoding: 206 206 174
Width: 545
GlyphClass: 1
Flags: W
LayerCount: 2
Fore
SplineSet
227 800 m 1,0,-1
 318 800 l 1,1,-1
 318 755 l 1,2,-1
 363 755 l 1,3,-1
 363 710 l 1,4,-1
 409 710 l 1,5,-1
 409 619 l 1,6,-1
 318 619 l 1,7,-1
 318 73 l 1,8,-1
 409 73 l 1,9,-1
 409 28 l 1,10,-1
 136 28 l 1,11,-1
 136 73 l 1,12,-1
 227 73 l 1,13,-1
 227 619 l 1,14,-1
 136 619 l 1,15,-1
 136 710 l 1,16,-1
 181 710 l 1,17,-1
 181 755 l 1,18,-1
 227 755 l 1,19,-1
 227 800 l 1,0,-1
227 710 m 1,20,-1
 227 664 l 1,21,-1
 318 664 l 1,22,-1
 318 710 l 1,23,-1
 227 710 l 1,20,-1
EndSplineSet
Validated: 1
EndChar

StartChar: Idieresis
Encoding: 207 207 175
Width: 545
GlyphClass: 1
Flags: W
LayerCount: 2
Fore
SplineSet
136 800 m 1,0,-1
 227 800 l 1,1,-1
 227 710 l 1,2,-1
 136 710 l 1,3,-1
 136 800 l 1,0,-1
318 800 m 1,4,-1
 409 800 l 1,5,-1
 409 710 l 1,6,-1
 318 710 l 1,7,-1
 318 800 l 1,4,-1
136 664 m 1,8,-1
 409 664 l 1,9,-1
 409 619 l 1,10,-1
 318 619 l 1,11,-1
 318 73 l 1,12,-1
 409 73 l 1,13,-1
 409 28 l 1,14,-1
 136 28 l 1,15,-1
 136 73 l 1,16,-1
 227 73 l 1,17,-1
 227 619 l 1,18,-1
 136 619 l 1,19,-1
 136 664 l 1,8,-1
EndSplineSet
Validated: 1
EndChar

StartChar: Eth
Encoding: 208 208 176
Width: 545
GlyphClass: 1
Flags: W
LayerCount: 2
Fore
SplineSet
0 664 m 1,0,-1
 306 663 l 1,1,-1
 378 647 l 1,2,-1
 438 601 l 1,3,-1
 482 529 l 1,4,-1
 494 451 l 5,5,-1
 502 307 l 1,6,-1
 492 191 l 1,7,-1
 474 139 l 1,8,-1
 448 105 l 1,9,-1
 422 79 l 1,10,-1
 378 47 l 1,11,-1
 318 28 l 1,12,-1
 0 28 l 1,13,-1
 0 73 l 1,14,-1
 45 73 l 1,15,-1
 45 300 l 1,16,-1
 0 300 l 1,17,-1
 0 391 l 1,18,-1
 45 391 l 1,19,-1
 45 619 l 1,20,-1
 0 619 l 1,21,-1
 0 664 l 1,0,-1
136 619 m 1,22,-1
 136 391 l 1,23,-1
 227 391 l 1,24,-1
 227 300 l 1,25,-1
 136 300 l 1,26,-1
 136 73 l 1,27,-1
 286 73 l 1,28,29
 286 73 286 73 340 83 c 1,30,-1
 376 107 l 1,31,32
 376 107 376 107 396 143 c 1,33,-1
 408 195 l 1,34,-1
 404 477 l 1,35,-1
 384 549 l 1,36,-1
 350 581 l 1,37,-1
 322 599 l 1,38,-1
 276 619 l 1,39,-1
 136 619 l 1,22,-1
EndSplineSet
EndChar

StartChar: Ntilde
Encoding: 209 209 177
Width: 545
GlyphClass: 1
Flags: W
LayerCount: 2
Fore
SplineSet
222.799804688 791.400390625 m 5,0,-1
 264.400390625 794.400390625 l 5,1,-1
 292.400390625 777 l 5,2,-1
 308.400390625 760.799804688 l 5,3,-1
 330 730.799804688 l 5,4,-1
 353.200195312 711 l 5,5,-1
 377.200195312 709.799804688 l 5,6,-1
 398 726.600585938 l 5,7,-1
 417.200195312 745.200195312 l 5,8,-1
 435.600585938 768.600585938 l 5,9,-1
 444.400390625 783.600585938 l 5,10,11
 444.400390625 783.600585938 444.400390625 783.600585938 449.200195312 794.400390625 c 5,12,-1
 463.600585938 796.799804688 l 5,13,14
 463.600585938 796.799804688 463.600585938 796.799804688 476.400390625 793.799804688 c 5,15,-1
 481.200195312 782.400390625 l 5,16,17
 481.200195312 782.400390625 481.200195312 782.400390625 474 763.200195312 c 5,18,-1
 456.400390625 735.600585938 l 5,19,-1
 434.799804688 710.400390625 l 5,20,-1
 408.400390625 687.600585938 l 5,21,-1
 370 672 l 5,22,-1
 319.600585938 670.799804688 l 5,23,-1
 293.200195312 682.200195312 l 5,24,-1
 270.799804688 708 l 5,25,-1
 253.200195312 730.200195312 l 5,26,-1
 240.400390625 739.799804688 l 5,27,-1
 216.400390625 741.600585938 l 5,28,-1
 198.799804688 733.200195312 l 5,29,-1
 183.600585938 717.600585938 l 5,30,-1
 170.799804688 695.400390625 l 5,31,-1
 158.799804688 673.200195312 l 5,32,33
 158.799804688 673.200195312 158.799804688 673.200195312 149.200195312 661.799804688 c 5,34,-1
 134 660.600585938 l 5,35,36
 134 660.600585938 134 660.600585938 121.200195312 663.600585938 c 5,37,-1
 117.200195312 673.200195312 l 5,38,39
 117.200195312 673.200195312 117.200195312 673.200195312 121.200195312 693 c 5,40,-1
 138 714 l 5,41,-1
 156.400390625 742.200195312 l 5,42,-1
 190.799804688 774 l 5,43,-1
 222.799804688 791.400390625 l 5,0,-1
454 210 m 1,44,-1
 454 619 l 1,45,-1
 409 619 l 1,46,-1
 409 664 l 1,47,-1
 545 664 l 1,48,-1
 545 619 l 1,49,-1
 500 619 l 1,50,-1
 500 73 l 1,51,-1
 545 73 l 1,52,-1
 545 28 l 1,53,-1
 454 28 l 1,54,-1
 90 482 l 1,55,-1
 90 73 l 1,56,-1
 136 73 l 1,57,-1
 136 28 l 1,58,-1
 0 28 l 1,59,-1
 0 73 l 1,60,-1
 45 73 l 1,61,-1
 45 619 l 1,62,-1
 0 619 l 1,63,-1
 0 664 l 1,64,-1
 90 664 l 1,65,-1
 454 210 l 1,44,-1
EndSplineSet
EndChar

StartChar: Ograve
Encoding: 210 210 178
Width: 545
GlyphClass: 1
Flags: W
LayerCount: 2
Fore
SplineSet
298 800 m 5,0,-1
 162 800 l 5,1,-1
 162 755 l 5,2,-1
 372 663 l 5,3,-1
 435 664 l 5,4,-1
 435 709 l 5,5,-1
 298 800 l 5,0,-1
217 662 m 5,6,-1
 271 664 l 5,7,8
 271 664 271 664 349 662 c 5,9,-1
 393 645 l 5,10,-1
 452 613 l 5,11,-1
 481 573 l 5,12,-1
 500 528 l 5,13,-1
 505 454 l 5,14,15
 505 454 505 454 508 355 c 5,16,17
 508 355 508 355 505 255 c 5,18,19
 505 255 505 255 500 210 c 5,20,-1
 481 154 l 5,21,-1
 454 119 l 5,22,-1
 430 96 l 5,23,-1
 409 73 l 5,24,-1
 380 54 l 5,25,-1
 344 34 l 5,26,-1
 276 28 l 5,27,28
 276 28 276 28 219 30 c 5,29,-1
 169 38 l 5,30,-1
 140 59 l 5,31,-1
 111 84 l 5,32,-1
 82 113 l 5,33,-1
 56 156 l 5,34,-1
 45 210 l 5,35,-1
 40 256 l 5,36,37
 40 256 40 256 38 343 c 5,38,39
 38 343 38 343 40 420 c 5,40,41
 40 420 40 420 45 482 c 5,42,-1
 62 529 l 5,43,-1
 90 573 l 5,44,-1
 113 600 l 5,45,-1
 136 619 l 5,46,-1
 168 639 l 5,47,-1
 217 662 l 5,6,-1
206 617 m 5,48,-1
 171 598 l 5,49,-1
 136 573 l 5,50,-1
 120 482 l 5,51,52
 120 482 120 482 120 367 c 5,53,54
 120 367 120 367 121 249 c 5,55,56
 121 249 121 249 136 164 c 5,57,-1
 152 140 l 5,58,-1
 171 115 l 5,59,-1
 204 85 l 5,60,-1
 253 74 l 5,61,-1
 289 73 l 5,62,63
 289 73 289 73 348 80 c 5,64,-1
 381 101 l 5,65,-1
 409 137 l 5,66,-1
 415 208 l 5,67,68
 415 208 415 208 417 323 c 5,69,70
 417 323 417 323 415 444 c 5,71,72
 415 444 415 444 408 516 c 5,73,-1
 388 551 l 5,74,-1
 362 582 l 5,75,-1
 338 604 l 5,76,-1
 309 615 l 5,77,-1
 247 619 l 5,78,79
 247 619 247 619 206 617 c 5,48,-1
EndSplineSet
EndChar

StartChar: Oacute
Encoding: 211 211 179
Width: 545
GlyphClass: 1
Flags: W
LayerCount: 2
Fore
SplineSet
263 800 m 5,0,-1
 399 800 l 5,1,-1
 399 755 l 5,2,-1
 189 663 l 5,3,-1
 126 664 l 5,4,-1
 126 709 l 5,5,-1
 263 800 l 5,0,-1
217 662 m 1,6,-1
 271 664 l 1,7,8
 271 664 271 664 349 662 c 1,9,-1
 393 645 l 1,10,-1
 452 613 l 1,11,-1
 481 573 l 1,12,-1
 500 528 l 1,13,-1
 505 454 l 1,14,15
 505 454 505 454 508 355 c 1,16,17
 508 355 508 355 505 255 c 1,18,19
 505 255 505 255 500 210 c 1,20,-1
 481 154 l 1,21,-1
 454 119 l 1,22,-1
 430 96 l 1,23,-1
 409 73 l 1,24,-1
 380 54 l 1,25,-1
 344 34 l 1,26,-1
 276 28 l 1,27,28
 276 28 276 28 219 30 c 1,29,-1
 169 38 l 1,30,-1
 140 59 l 1,31,-1
 111 84 l 1,32,-1
 82 113 l 1,33,-1
 56 156 l 1,34,-1
 45 210 l 1,35,-1
 40 256 l 1,36,37
 40 256 40 256 38 343 c 1,38,39
 38 343 38 343 40 420 c 1,40,41
 40 420 40 420 45 482 c 1,42,-1
 62 529 l 1,43,-1
 90 573 l 1,44,-1
 113 600 l 1,45,-1
 136 619 l 1,46,-1
 168 639 l 1,47,-1
 217 662 l 1,6,-1
206 617 m 1,48,-1
 171 598 l 1,49,-1
 136 573 l 1,50,-1
 120 482 l 1,51,52
 120 482 120 482 120 367 c 1,53,54
 120 367 120 367 121 249 c 1,55,56
 121 249 121 249 136 164 c 1,57,-1
 152 140 l 1,58,-1
 171 115 l 1,59,-1
 204 85 l 1,60,-1
 253 74 l 1,61,-1
 289 73 l 1,62,63
 289 73 289 73 348 80 c 1,64,-1
 381 101 l 1,65,-1
 409 137 l 1,66,-1
 415 208 l 1,67,68
 415 208 415 208 417 323 c 1,69,70
 417 323 417 323 415 444 c 1,71,72
 415 444 415 444 408 516 c 1,73,-1
 388 551 l 1,74,-1
 362 582 l 1,75,-1
 338 604 l 1,76,-1
 309 615 l 1,77,-1
 247 619 l 1,78,79
 247 619 247 619 206 617 c 1,48,-1
EndSplineSet
EndChar

StartChar: Ocircumflex
Encoding: 212 212 180
Width: 545
GlyphClass: 1
Flags: W
LayerCount: 2
Fore
SplineSet
411 664 m 5,0,-1
 272 713 l 5,1,-1
 138 664 l 5,2,-1
 270 799 l 5,3,-1
 411 664 l 5,0,-1
217 662 m 5,4,-1
 271 664 l 5,5,6
 271 664 271 664 349 662 c 5,7,-1
 393 645 l 5,8,-1
 452 613 l 5,9,-1
 481 573 l 5,10,-1
 500 528 l 5,11,-1
 505 454 l 5,12,13
 505 454 505 454 508 355 c 5,14,15
 508 355 508 355 505 255 c 5,16,17
 505 255 505 255 500 210 c 5,18,-1
 481 154 l 5,19,-1
 454 119 l 5,20,-1
 430 96 l 5,21,-1
 409 73 l 5,22,-1
 380 54 l 5,23,-1
 344 34 l 5,24,-1
 276 28 l 5,25,26
 276 28 276 28 219 30 c 5,27,-1
 169 38 l 5,28,-1
 140 59 l 5,29,-1
 111 84 l 5,30,-1
 82 113 l 5,31,-1
 56 156 l 5,32,-1
 45 210 l 5,33,-1
 40 256 l 5,34,35
 40 256 40 256 38 343 c 5,36,37
 38 343 38 343 40 420 c 5,38,39
 40 420 40 420 45 482 c 5,40,-1
 62 529 l 5,41,-1
 90 573 l 5,42,-1
 113 600 l 5,43,-1
 136 619 l 5,44,-1
 168 639 l 5,45,-1
 217 662 l 5,4,-1
206 617 m 5,46,-1
 171 598 l 5,47,-1
 136 573 l 5,48,-1
 120 482 l 5,49,50
 120 482 120 482 120 367 c 5,51,52
 120 367 120 367 121 249 c 5,53,54
 121 249 121 249 136 164 c 5,55,-1
 152 140 l 5,56,-1
 171 115 l 5,57,-1
 204 85 l 5,58,-1
 253 74 l 5,59,-1
 289 73 l 5,60,61
 289 73 289 73 348 80 c 5,62,-1
 381 101 l 5,63,-1
 409 137 l 5,64,-1
 415 208 l 5,65,66
 415 208 415 208 417 323 c 5,67,68
 417 323 417 323 415 444 c 5,69,70
 415 444 415 444 408 516 c 5,71,-1
 388 551 l 5,72,-1
 362 582 l 5,73,-1
 338 604 l 5,74,-1
 309 615 l 5,75,-1
 247 619 l 5,76,77
 247 619 247 619 206 617 c 5,46,-1
EndSplineSet
EndChar

StartChar: Otilde
Encoding: 213 213 181
Width: 545
GlyphClass: 1
Flags: W
LayerCount: 2
Fore
SplineSet
222.799804688 791.400390625 m 5,0,-1
 264.400390625 794.400390625 l 5,1,-1
 292.400390625 777 l 5,2,-1
 308.400390625 760.799804688 l 5,3,-1
 330 730.799804688 l 5,4,-1
 353.200195312 711 l 5,5,-1
 377.200195312 709.799804688 l 5,6,-1
 398 726.600585938 l 5,7,-1
 417.200195312 745.200195312 l 5,8,-1
 435.600585938 768.600585938 l 5,9,-1
 444.400390625 783.600585938 l 5,10,11
 444.400390625 783.600585938 444.400390625 783.600585938 449.200195312 794.400390625 c 5,12,-1
 463.600585938 796.799804688 l 5,13,14
 463.600585938 796.799804688 463.600585938 796.799804688 476.400390625 793.799804688 c 5,15,-1
 481.200195312 782.400390625 l 5,16,17
 481.200195312 782.400390625 481.200195312 782.400390625 474 763.200195312 c 5,18,-1
 456.400390625 735.600585938 l 5,19,-1
 434.799804688 710.400390625 l 5,20,-1
 408.400390625 687.600585938 l 5,21,-1
 370 672 l 5,22,-1
 319.600585938 670.799804688 l 5,23,-1
 293.200195312 682.200195312 l 5,24,-1
 270.799804688 708 l 5,25,-1
 253.200195312 730.200195312 l 5,26,-1
 240.400390625 739.799804688 l 5,27,-1
 216.400390625 741.600585938 l 5,28,-1
 198.799804688 733.200195312 l 5,29,-1
 183.600585938 717.600585938 l 5,30,-1
 170.799804688 695.400390625 l 5,31,-1
 158.799804688 673.200195312 l 5,32,33
 158.799804688 673.200195312 158.799804688 673.200195312 149.200195312 661.799804688 c 5,34,-1
 134 660.600585938 l 5,35,36
 134 660.600585938 134 660.600585938 121.200195312 663.600585938 c 5,37,-1
 117.200195312 673.200195312 l 5,38,39
 117.200195312 673.200195312 117.200195312 673.200195312 121.200195312 693 c 5,40,-1
 138 714 l 5,41,-1
 156.400390625 742.200195312 l 5,42,-1
 190.799804688 774 l 5,43,-1
 222.799804688 791.400390625 l 5,0,-1
217 662 m 1,44,-1
 271 664 l 1,45,46
 271 664 271 664 349 662 c 1,47,-1
 393 645 l 1,48,-1
 452 613 l 1,49,-1
 481 573 l 1,50,-1
 500 528 l 1,51,-1
 505 454 l 1,52,53
 505 454 505 454 508 355 c 1,54,55
 508 355 508 355 505 255 c 1,56,57
 505 255 505 255 500 210 c 1,58,-1
 481 154 l 1,59,-1
 454 119 l 1,60,-1
 430 96 l 1,61,-1
 409 73 l 1,62,-1
 380 54 l 1,63,-1
 344 34 l 1,64,-1
 276 28 l 1,65,66
 276 28 276 28 219 30 c 1,67,-1
 169 38 l 1,68,-1
 140 59 l 1,69,-1
 111 84 l 1,70,-1
 82 113 l 1,71,-1
 56 156 l 1,72,-1
 45 210 l 1,73,-1
 40 256 l 1,74,75
 40 256 40 256 38 343 c 1,76,77
 38 343 38 343 40 420 c 1,78,79
 40 420 40 420 45 482 c 1,80,-1
 62 529 l 1,81,-1
 90 573 l 1,82,-1
 113 600 l 1,83,-1
 136 619 l 1,84,-1
 168 639 l 1,85,-1
 217 662 l 1,44,-1
206 617 m 1,86,-1
 171 598 l 1,87,-1
 136 573 l 1,88,-1
 120 482 l 1,89,90
 120 482 120 482 120 367 c 1,91,92
 120 367 120 367 121 249 c 1,93,94
 121 249 121 249 136 164 c 1,95,-1
 152 140 l 1,96,-1
 171 115 l 1,97,-1
 204 85 l 1,98,-1
 253 74 l 1,99,-1
 289 73 l 1,100,101
 289 73 289 73 348 80 c 1,102,-1
 381 101 l 1,103,-1
 409 137 l 1,104,-1
 415 208 l 1,105,106
 415 208 415 208 417 323 c 1,107,108
 417 323 417 323 415 444 c 1,109,110
 415 444 415 444 408 516 c 1,111,-1
 388 551 l 1,112,-1
 362 582 l 1,113,-1
 338 604 l 1,114,-1
 309 615 l 1,115,-1
 247 619 l 1,116,117
 247 619 247 619 206 617 c 1,86,-1
EndSplineSet
EndChar

StartChar: Odieresis
Encoding: 214 214 182
Width: 545
GlyphClass: 1
Flags: W
LayerCount: 2
Fore
SplineSet
217 662 m 5,0,-1
 271 664 l 5,1,2
 271 664 271 664 349 662 c 5,3,-1
 393 645 l 5,4,-1
 452 613 l 5,5,-1
 481 573 l 5,6,-1
 500 528 l 5,7,-1
 505 454 l 5,8,9
 505 454 505 454 508 355 c 5,10,11
 508 355 508 355 505 255 c 5,12,13
 505 255 505 255 500 210 c 5,14,-1
 481 154 l 5,15,-1
 454 119 l 5,16,-1
 430 96 l 5,17,-1
 409 73 l 5,18,-1
 380 54 l 5,19,-1
 344 34 l 5,20,-1
 276 28 l 5,21,22
 276 28 276 28 219 30 c 5,23,-1
 169 38 l 5,24,-1
 140 59 l 5,25,-1
 111 84 l 5,26,-1
 82 113 l 5,27,-1
 56 156 l 5,28,-1
 45 210 l 5,29,-1
 40 256 l 5,30,31
 40 256 40 256 38 343 c 5,32,33
 38 343 38 343 40 420 c 5,34,35
 40 420 40 420 45 482 c 5,36,-1
 62 529 l 5,37,-1
 90 573 l 5,38,-1
 113 600 l 5,39,-1
 136 619 l 5,40,-1
 168 639 l 5,41,-1
 217 662 l 5,0,-1
206 617 m 5,42,-1
 171 598 l 5,43,-1
 136 573 l 5,44,-1
 120 482 l 5,45,46
 120 482 120 482 120 367 c 5,47,48
 120 367 120 367 121 249 c 5,49,50
 121 249 121 249 136 164 c 5,51,-1
 152 140 l 5,52,-1
 171 115 l 5,53,-1
 204 85 l 5,54,-1
 253 74 l 5,55,-1
 289 73 l 5,56,57
 289 73 289 73 348 80 c 5,58,-1
 381 101 l 5,59,-1
 409 137 l 5,60,-1
 415 208 l 5,61,62
 415 208 415 208 417 323 c 5,63,64
 417 323 417 323 415 444 c 5,65,66
 415 444 415 444 408 516 c 5,67,-1
 388 551 l 5,68,-1
 362 582 l 5,69,-1
 338 604 l 5,70,-1
 309 615 l 5,71,-1
 247 619 l 5,72,73
 247 619 247 619 206 617 c 5,42,-1
136 800 m 1,74,-1
 227 800 l 1,75,-1
 227 710 l 1,76,-1
 136 710 l 1,77,-1
 136 800 l 1,74,-1
318 800 m 1,78,-1
 409 800 l 1,79,-1
 409 710 l 1,80,-1
 318 710 l 1,81,-1
 318 800 l 1,78,-1
EndSplineSet
EndChar

StartChar: multiply
Encoding: 215 215 183
Width: 545
GlyphClass: 1
Flags: W
LayerCount: 2
Fore
SplineSet
244 346 m 13,0,-1
 298 344 l 1,17,-1
 440 480 l 1,16,-1
 499 480 l 1,15,-1
 500 446 l 1,14,-1
 328 282 l 1,13,-1
 499 117 l 1,12,-1
 499 71 l 1,11,-1
 432 72 l 1,10,-1
 296 208 l 1,9,-1
 248 210 l 17,8,-1
 112 74 l 1,7,-1
 45 73 l 1,6,-1
 45 119 l 1,5,-1
 216 284 l 1,4,-1
 44 448 l 1,3,-1
 45 482 l 1,2,-1
 104 482 l 1,1,-1
 244 346 l 13,0,-1
EndSplineSet
EndChar

StartChar: Oslash
Encoding: 216 216 184
Width: 545
GlyphClass: 1
Flags: W
LayerCount: 2
Fore
SplineSet
406 649 m 1,0,-1
 458 739 l 1,1,-1
 502 707 l 1,2,-1
 446 611 l 1,3,-1
 472 563 l 1,4,-1
 502 453 l 1,5,-1
 500 210 l 1,6,-1
 480 167 l 1,7,-1
 454 119 l 1,8,-1
 430 95 l 1,9,-1
 409 73 l 1,10,-1
 378 51 l 1,11,-1
 338 27 l 1,12,-1
 274 27 l 1,13,-1
 192 33 l 1,14,-1
 164 45 l 1,15,-1
 148 59 l 1,16,-1
 112 0 l 1,17,-1
 56 23 l 1,18,-1
 100 91 l 1,19,-1
 68 131 l 1,20,-1
 45 210 l 1,21,-1
 46 393 l 1,22,-1
 66 485 l 1,23,-1
 90 573 l 1,24,-1
 120 629 l 1,25,-1
 174 669 l 1,26,-1
 248 683 l 1,27,-1
 320 683 l 1,28,-1
 376 677 l 1,29,-1
 406 649 l 1,0,-1
368 585 m 1,30,-1
 318 619 l 1,31,-1
 250 627 l 1,32,33
 250 627 250 627 188 613 c 1,34,-1
 160 579 l 5,35,36
 160 579 160 579 140 505 c 1,37,-1
 134 409 l 1,38,-1
 137.898305085 317 l 1,39,40
 137.898305085 317 137.898305085 317 144 173 c 1,41,-1
 368 585 l 1,30,-1
181 119 m 1,42,-1
 212 93 l 1,43,-1
 250 77 l 1,44,-1
 318 79 l 1,45,-1
 366 101 l 1,46,-1
 410 173 l 1,47,-1
 416 439 l 1,48,-1
 398 527 l 1,49,-1
 181 119 l 1,42,-1
EndSplineSet
EndChar

StartChar: Ugrave
Encoding: 217 217 185
Width: 545
GlyphClass: 1
Flags: W
LayerCount: 2
Fore
SplineSet
409 619 m 5,0,-1
 454 619 l 5,1,-1
 454 221 l 5,2,3
 454 221 454 221 444 174 c 5,4,-1
 421 150 l 5,5,-1
 396 126 l 5,6,-1
 360 121 l 5,7,8
 303 115 303 115 303 115 c 5,9,10
 221 118 221 118 221 118 c 133,-1,11
 221 118 221 118 186 130 c 5,12,-1
 159 148 l 5,13,-1
 136 183 l 5,14,-1
 136 222 l 5,15,16
 136 222 136 222 136 619 c 5,17,-1
 181 619 l 5,18,-1
 181 664 l 5,19,-1
 0 664 l 5,20,-1
 0 619 l 5,21,-1
 45 619 l 5,22,-1
 45 156 l 5,23,-1
 65 109 l 5,24,-1
 87 88 l 5,25,-1
 116 58 l 5,26,-1
 146 38 l 5,27,-1
 208 29 l 5,28,29
 358 28 358 28 358 28 c 133,-1,30
 358 28 358 28 403 31 c 5,31,-1
 443 55 l 5,32,-1
 471 89 l 5,33,-1
 493 133 l 5,34,-1
 500 164 l 5,35,-1
 500 619 l 5,36,-1
 545 619 l 5,37,-1
 545 664 l 5,38,-1
 430 666 l 5,39,40
 430 666 430 666 136 800 c 5,41,-1
 134 722 l 5,42,-1
 406 644 l 5,43,-1
 409 619 l 5,0,-1
545 664 m 1029,44,-1
EndSplineSet
EndChar

StartChar: Uacute
Encoding: 218 218 186
Width: 545
GlyphClass: 1
Flags: W
LayerCount: 2
Fore
SplineSet
156 664 m 5,0,-1
 0 664 l 5,1,-1
 0 619 l 5,2,-1
 45 619 l 5,3,-1
 45 156 l 5,4,-1
 65 109 l 5,5,-1
 87 88 l 5,6,-1
 116 58 l 5,7,-1
 146 38 l 5,8,-1
 208 29 l 5,9,10
 358 28 358 28 358 28 c 133,-1,11
 358 28 358 28 403 31 c 5,12,-1
 443 55 l 5,13,-1
 471 89 l 5,14,-1
 493 133 l 5,15,-1
 500 164 l 5,16,-1
 500 619 l 5,17,-1
 545 619 l 5,18,-1
 545 664 l 5,19,-1
 408 664 l 5,20,-1
 409 619 l 5,21,-1
 454 619 l 5,22,-1
 454 221 l 5,23,24
 454 221 454 221 444 174 c 5,25,-1
 421 150 l 5,26,-1
 396 126 l 5,27,-1
 360 121 l 5,28,29
 303 115 303 115 303 115 c 5,30,31
 221 118 221 118 221 118 c 133,-1,32
 221 118 221 118 186 130 c 5,33,-1
 159 148 l 5,34,-1
 136 183 l 5,35,-1
 136 222 l 5,36,37
 136 222 136 222 136 619 c 5,38,-1
 181 619 l 5,39,-1
 180 652 l 5,40,41
 180 652 180 652 420 722 c 5,42,-1
 418 802 l 5,43,-1
 156 664 l 5,0,-1
545 664 m 1029,44,-1
EndSplineSet
EndChar

StartChar: Ucircumflex
Encoding: 219 219 187
Width: 545
GlyphClass: 1
Flags: W
LayerCount: 2
Fore
SplineSet
302 687.583007812 m 1,0,-1
 180 652 l 1,1,2
 180 652 180 652 181 619 c 1,3,-1
 136 619 l 1,4,-1
 136 222 l 1,5,6
 136 222 136 222 136 183 c 1,7,-1
 159 148 l 1,8,-1
 186 130 l 1,9,-1
 221 118 l 1,10,11
 221 118 221 118 303 115 c 1,12,13
 303 115 303 115 360 121 c 1,14,15
 360 121 360 121 396 126 c 1,16,-1
 421 150 l 1,17,-1
 444 174 l 1,18,-1
 454 221 l 1,19,20
 454 221 454 221 454 619 c 1,21,-1
 409 619 l 1,22,-1
 408.311523438 650 l 1,23,24
 408.311523438 650 408.311523438 650 302 687.583007812 c 1,0,-1
428 664 m 1,25,-1
 545 664 l 1,26,-1
 545 619 l 1,27,-1
 500 619 l 1,28,-1
 500 164 l 1,29,-1
 493 133 l 1,30,-1
 471 89 l 1,31,-1
 443 55 l 1,32,-1
 403 31 l 1,33,-1
 358 28 l 1,34,35
 358 28 358 28 208 29 c 1,36,37
 208 29 208 29 146 38 c 1,38,-1
 116 58 l 1,39,-1
 87 88 l 1,40,-1
 65 109 l 1,41,-1
 45 156 l 1,42,-1
 45 619 l 1,43,-1
 0 619 l 1,44,-1
 0 664 l 1,45,-1
 156 664 l 1,46,-1
 292 798 l 1,47,48
 360 731 360 731 428 664 c 1,25,-1
545 664 m 1025,49,-1
EndSplineSet
EndChar

StartChar: Udieresis
Encoding: 220 220 188
Width: 545
GlyphClass: 1
Flags: W
LayerCount: 2
Fore
SplineSet
0 664 m 5,0,-1
 181 664 l 5,1,-1
 181 619 l 5,2,-1
 136 619 l 5,3,-1
 136 222 l 5,4,5
 136 222 136 222 136 183 c 5,6,-1
 159 148 l 5,7,-1
 186 130 l 5,8,-1
 221 118 l 5,9,10
 221 118 221 118 303 115 c 5,11,12
 303 115 303 115 360 121 c 5,13,14
 360 121 360 121 396 126 c 5,15,-1
 421 150 l 5,16,-1
 444 174 l 5,17,-1
 454 221 l 5,18,19
 454 221 454 221 454 619 c 5,20,-1
 409 619 l 5,21,-1
 409 664 l 5,22,-1
 545 664 l 5,23,-1
 545 619 l 5,24,-1
 500 619 l 5,25,-1
 500 164 l 5,26,-1
 493 133 l 5,27,-1
 471 89 l 5,28,-1
 443 55 l 5,29,-1
 403 31 l 5,30,-1
 358 28 l 5,31,32
 358 28 358 28 208 29 c 5,33,34
 208 29 208 29 146 38 c 5,35,-1
 116 58 l 5,36,-1
 87 88 l 5,37,-1
 65 109 l 5,38,-1
 45 156 l 5,39,-1
 45 619 l 5,40,-1
 0 619 l 5,41,-1
 0 664 l 5,0,-1
136 800 m 1,42,-1
 227 800 l 1,43,-1
 227 710 l 1,44,-1
 136 710 l 1,45,-1
 136 800 l 1,42,-1
318 800 m 1,46,-1
 409 800 l 1,47,-1
 409 710 l 1,48,-1
 318 710 l 1,49,-1
 318 800 l 1,46,-1
EndSplineSet
EndChar

StartChar: Yacute
Encoding: 221 221 189
Width: 545
GlyphClass: 1
Flags: W
LayerCount: 2
Fore
SplineSet
309 799 m 5,0,-1
 309 799 l 1,1,-1
 446 799 l 1,2,-1
 446 754 l 1,3,-1
 181 644 l 1,4,-1
 181 619 l 1,5,-1
 136 619 l 1,6,-1
 272 391 l 1,7,-1
 302 405 l 1,8,-1
 454 619 l 1,9,-1
 409 619 l 1,10,-1
 409 664 l 1,11,-1
 545 664 l 1,12,-1
 545 619 l 1,13,-1
 500 619 l 1,14,-1
 318 359 l 1,15,-1
 318 73 l 1,16,-1
 363 73 l 1,17,-1
 363 28 l 1,18,-1
 181 28 l 1,19,-1
 181 73 l 1,20,-1
 227 73 l 1,21,-1
 227 322 l 1,22,-1
 45 619 l 1,23,-1
 0 619 l 1,24,-1
 0 664 l 1,25,-1
 134 664 l 1,26,-1
 309 799 l 5,0,-1
EndSplineSet
EndChar

StartChar: Thorn
Encoding: 222 222 190
Width: 545
GlyphClass: 1
Flags: W
LayerCount: 2
Fore
SplineSet
45 664 m 1,0,-1
 227 664 l 1,1,-1
 227 619 l 1,2,-1
 181 619 l 1,3,-1
 181 528 l 1,4,-1
 322 529 l 1,5,-1
 386 513 l 1,6,-1
 434 491 l 1,7,-1
 470 463 l 1,8,-1
 496 407 l 1,9,-1
 508 329 l 1,10,11
 508 329 508 329 500 255 c 1,12,-1
 478 229 l 1,13,-1
 446 199 l 1,14,-1
 402 175 l 1,15,-1
 332 163 l 1,16,-1
 181 164 l 1,17,-1
 181 73 l 1,18,-1
 227 73 l 1,19,-1
 227 28 l 1,20,-1
 45 28 l 1,21,-1
 45 73 l 1,22,-1
 90 73 l 1,23,-1
 90 619 l 1,24,-1
 45 619 l 1,25,-1
 45 664 l 1,0,-1
181 482 m 1,26,-1
 181 210 l 1,27,-1
 363 210 l 1,28,-1
 408 249 l 1,29,-1
 426 321 l 1,30,-1
 416 391 l 1,31,-1
 372 451 l 1,32,-1
 312 483 l 1,33,-1
 181 482 l 1,26,-1
EndSplineSet
EndChar

StartChar: germandbls
Encoding: 223 223 191
Width: 545
GlyphClass: 1
Flags: W
LayerCount: 2
Fore
SplineSet
206 710 m 1,0,-1
 266 710 l 1,1,2
 266 710 266 710 328 708 c 1,3,-1
 372 686 l 1,4,-1
 396 650 l 1,5,-1
 409 598 l 1,6,7
 409 598 409 598 409 506 c 1,8,9
 409 506 409 506 384 458 c 1,10,-1
 328 420 l 1,11,-1
 318 372 l 1,12,13
 318 372 318 372 338 330 c 1,14,-1
 382 298 l 1,15,-1
 412 278 l 1,16,-1
 442 244 l 1,17,-1
 470 218 l 1,18,-1
 488 184 l 1,19,-1
 502 130 l 1,20,21
 502 130 502 130 494 86 c 1,22,-1
 466 50 l 1,23,-1
 426 32 l 1,24,-1
 360 28 l 1,25,26
 360 28 360 28 268 28 c 1,27,28
 268 28 268 28 227 28 c 1,29,-1
 227 164 l 1,30,-1
 272 164 l 1,31,-1
 272 119 l 1,32,-1
 292 94 l 1,33,-1
 324 78 l 1,34,-1
 366 73 l 1,35,36
 366 73 366 73 398 84 c 1,37,-1
 409 120 l 1,38,39
 409 120 409 120 396 158 c 1,40,-1
 380 174 l 1,41,-1
 358 198 l 1,42,-1
 330 220 l 1,43,-1
 302 242 l 1,44,-1
 274 268 l 1,45,-1
 256 286 l 1,46,-1
 232 314 l 1,47,-1
 227 370 l 1,48,49
 227 370 227 370 228 422 c 1,50,-1
 248 460 l 1,51,-1
 290 488 l 1,52,-1
 314 526 l 1,53,-1
 318 586 l 1,54,55
 318 586 318 586 312 650 c 1,56,-1
 270 664 l 1,57,58
 270 664 270 664 228 644 c 1,59,-1
 192 588 l 1,60,-1
 184 530 l 1,61,-1
 181 28 l 1,62,-1
 45 28 l 1,63,-1
 45 73 l 1,64,-1
 76 82 l 1,65,-1
 90 112 l 1,66,67
 90 112 90 112 90 530 c 1,68,-1
 100 594 l 5,69,-1
 128 648 l 1,70,-1
 160 684 l 1,71,-1
 206 710 l 1,0,-1
EndSplineSet
EndChar

StartChar: agrave
Encoding: 224 224 192
Width: 545
GlyphClass: 1
Flags: W
LayerCount: 2
Fore
SplineSet
272 664 m 5,0,-1
 136 664 l 5,1,-1
 136 619 l 5,2,-1
 346 527 l 5,3,-1
 409 528 l 5,4,-1
 409 573 l 5,5,-1
 272 664 l 5,0,-1
192 474 m 1,6,-1
 295 482 l 1,7,8
 295 482 295 482 368 481 c 1,9,10
 368 481 368 481 413 464 c 1,11,-1
 435 432 l 1,12,-1
 450 374 l 1,13,-1
 454 320 l 1,14,15
 454 320 454 320 454 73 c 1,16,-1
 500 73 l 1,17,-1
 500 28 l 1,18,-1
 363 28 l 1,19,-1
 363 73 l 1,20,-1
 343 45 l 1,21,-1
 318 28 l 1,22,-1
 144 28 l 1,23,-1
 103 59 l 1,24,-1
 90 93 l 1,25,-1
 90 192 l 1,26,-1
 108 264 l 1,27,-1
 140 290 l 1,28,-1
 220 324 l 1,29,-1
 277 342 l 1,30,-1
 363 346 l 1,31,-1
 362 404 l 1,32,-1
 352 422 l 1,33,34
 352 422 352 422 326 437 c 1,35,36
 326 437 326 437 294 437 c 1,37,38
 294 437 294 437 253 434 c 1,39,40
 253 434 253 434 222 430 c 1,41,-1
 198 420 l 1,42,-1
 184 391 l 1,43,-1
 181 362 l 1,44,45
 181 362 181 362 172 346 c 1,46,-1
 146 346 l 1,47,-1
 136 361 l 1,48,49
 136 361 136 361 136 390 c 1,50,51
 136 390 136 390 144 424 c 1,52,-1
 164 452 l 1,53,-1
 192 474 l 1,6,-1
272 296 m 1,54,-1
 249 288 l 1,55,-1
 220 274 l 1,56,57
 220 274 220 274 190 248 c 1,58,-1
 181 210 l 1,59,60
 181 210 181 210 181 140 c 1,61,62
 181 140 181 140 192 112 c 1,63,-1
 209 84 l 1,64,-1
 227 73 l 1,65,-1
 318 73 l 1,66,-1
 356 98 l 1,67,-1
 364 140 l 1,68,-1
 363 272 l 1,69,70
 363 272 363 272 350 300 c 1,71,-1
 302 300 l 1,72,73
 329 300 329 300 294 300 c 1,74,75
 294 300 294 300 272 296 c 1,54,-1
EndSplineSet
EndChar

StartChar: aacute
Encoding: 225 225 193
Width: 545
GlyphClass: 1
Flags: W
LayerCount: 2
Fore
SplineSet
344 663 m 5,0,-1
 409 664 l 5,1,-1
 409 619 l 5,2,-1
 272 528 l 5,3,-1
 136 528 l 5,4,-1
 132 597 l 5,5,-1
 344 663 l 5,0,-1
192 474 m 1,6,-1
 295 482 l 1,7,8
 295 482 295 482 368 481 c 1,9,10
 368 481 368 481 413 464 c 1,11,-1
 435 432 l 1,12,-1
 450 374 l 1,13,-1
 454 320 l 1,14,15
 454 320 454 320 454 73 c 1,16,-1
 500 73 l 1,17,-1
 500 28 l 1,18,-1
 363 28 l 1,19,-1
 363 73 l 1,20,-1
 343 45 l 1,21,-1
 318 28 l 1,22,-1
 144 28 l 1,23,-1
 103 59 l 1,24,-1
 90 93 l 1,25,-1
 90 192 l 1,26,-1
 108 264 l 1,27,-1
 140 290 l 1,28,-1
 220 324 l 1,29,-1
 277 342 l 1,30,-1
 363 346 l 1,31,-1
 362 404 l 1,32,-1
 352 422 l 1,33,34
 352 422 352 422 326 437 c 1,35,36
 326 437 326 437 294 437 c 1,37,38
 294 437 294 437 253 434 c 1,39,40
 253 434 253 434 222 430 c 1,41,-1
 198 420 l 1,42,-1
 184 391 l 1,43,-1
 181 362 l 1,44,45
 181 362 181 362 172 346 c 1,46,-1
 146 346 l 1,47,-1
 136 361 l 1,48,49
 136 361 136 361 136 390 c 1,50,51
 136 390 136 390 144 424 c 1,52,-1
 164 452 l 1,53,-1
 192 474 l 1,6,-1
272 296 m 1,54,-1
 249 288 l 1,55,-1
 220 274 l 1,56,57
 220 274 220 274 190 248 c 1,58,-1
 181 210 l 1,59,60
 181 210 181 210 181 140 c 1,61,62
 181 140 181 140 192 112 c 1,63,-1
 209 84 l 1,64,-1
 227 73 l 1,65,-1
 318 73 l 1,66,-1
 356 98 l 1,67,-1
 364 140 l 1,68,-1
 363 272 l 1,69,70
 363 272 363 272 350 300 c 1,71,-1
 302 300 l 1,72,73
 329 300 329 300 294 300 c 1,74,75
 294 300 294 300 272 296 c 1,54,-1
EndSplineSet
EndChar

StartChar: acircumflex
Encoding: 226 226 194
Width: 545
GlyphClass: 1
Flags: W
LayerCount: 2
Fore
SplineSet
192 474 m 1,0,-1
 295 482 l 1,1,2
 295 482 295 482 368 481 c 1,3,4
 368 481 368 481 413 464 c 1,5,-1
 435 432 l 1,6,-1
 450 374 l 1,7,-1
 454 320 l 1,8,9
 454 320 454 320 454 73 c 1,10,-1
 500 73 l 1,11,-1
 500 28 l 1,12,-1
 363 28 l 1,13,-1
 363 73 l 1,14,-1
 343 45 l 1,15,-1
 318 28 l 1,16,-1
 144 28 l 1,17,-1
 103 59 l 1,18,-1
 90 93 l 1,19,-1
 90 192 l 1,20,-1
 108 264 l 1,21,-1
 140 290 l 1,22,-1
 220 324 l 1,23,-1
 277 342 l 1,24,-1
 363 346 l 1,25,-1
 362 404 l 1,26,-1
 352 422 l 1,27,28
 352 422 352 422 326 437 c 1,29,30
 326 437 326 437 294 437 c 1,31,32
 294 437 294 437 253 434 c 1,33,34
 253 434 253 434 222 430 c 1,35,-1
 198 420 l 1,36,-1
 184 391 l 1,37,-1
 181 362 l 1,38,39
 181 362 181 362 172 346 c 1,40,-1
 146 346 l 1,41,-1
 136 361 l 1,42,43
 136 361 136 361 136 390 c 1,44,45
 136 390 136 390 144 424 c 1,46,-1
 164 452 l 1,47,-1
 192 474 l 1,0,-1
272 296 m 1,48,-1
 249 288 l 1,49,-1
 220 274 l 1,50,51
 220 274 220 274 190 248 c 1,52,-1
 181 210 l 1,53,54
 181 210 181 210 181 140 c 1,55,56
 181 140 181 140 192 112 c 1,57,-1
 209 84 l 1,58,-1
 227 73 l 1,59,-1
 318 73 l 1,60,-1
 356 98 l 1,61,-1
 364 140 l 1,62,-1
 363 272 l 1,63,64
 363 272 363 272 350 300 c 1,65,-1
 302 300 l 1,66,67
 329 300 329 300 294 300 c 1,68,69
 294 300 294 300 272 296 c 1,48,-1
272 577 m 5,74,-1
 136 528 l 1,71,-1
 272 665 l 1,72,-1
 409 528 l 1,73,-1
 272 577 l 5,74,-1
EndSplineSet
EndChar

StartChar: atilde
Encoding: 227 227 195
Width: 545
GlyphClass: 1
Flags: W
LayerCount: 2
Fore
SplineSet
221.19921875 648.600585938 m 5,0,-1
 262.799804688 651.600585938 l 5,1,-1
 290.799804688 634.200195312 l 5,2,-1
 306.799804688 618 l 5,3,-1
 328.399414062 588 l 5,4,-1
 351.599609375 568.200195312 l 5,5,-1
 375.599609375 567 l 5,6,-1
 396.399414062 583.80078125 l 5,7,-1
 415.599609375 602.400390625 l 5,8,-1
 434 625.80078125 l 5,9,-1
 442.799804688 640.80078125 l 5,10,11
 442.799804688 640.80078125 442.799804688 640.80078125 447.599609375 651.600585938 c 5,12,-1
 462 654 l 5,13,14
 462 654 462 654 474.799804688 651 c 5,15,-1
 479.599609375 639.600585938 l 5,16,17
 479.599609375 639.600585938 479.599609375 639.600585938 472.399414062 620.400390625 c 5,18,-1
 454.799804688 592.80078125 l 5,19,-1
 433.19921875 567.600585938 l 5,20,-1
 406.799804688 544.80078125 l 5,21,-1
 368.399414062 529.200195312 l 5,22,-1
 318 528 l 5,23,-1
 291.599609375 539.400390625 l 5,24,-1
 269.19921875 565.200195312 l 5,25,-1
 251.599609375 587.400390625 l 5,26,-1
 238.799804688 597 l 5,27,-1
 214.799804688 598.80078125 l 5,28,-1
 197.19921875 590.400390625 l 5,29,-1
 182 574.80078125 l 5,30,-1
 169.19921875 552.600585938 l 5,31,-1
 157.19921875 530.400390625 l 5,32,33
 157.19921875 530.400390625 157.19921875 530.400390625 147.599609375 519 c 5,34,-1
 132.399414062 517.80078125 l 5,35,36
 132.399414062 517.80078125 132.399414062 517.80078125 119.599609375 520.80078125 c 5,37,-1
 115.599609375 530.400390625 l 5,38,39
 115.599609375 530.400390625 115.599609375 530.400390625 119.599609375 550.200195312 c 5,40,-1
 136.399414062 571.200195312 l 5,41,-1
 154.799804688 599.400390625 l 5,42,-1
 189.19921875 631.200195312 l 5,43,-1
 221.19921875 648.600585938 l 5,0,-1
192 474 m 1,44,-1
 295 482 l 1,45,46
 295 482 295 482 368 481 c 1,47,48
 368 481 368 481 413 464 c 1,49,-1
 435 432 l 1,50,-1
 450 374 l 1,51,-1
 454 320 l 1,52,53
 454 320 454 320 454 73 c 1,54,-1
 500 73 l 1,55,-1
 500 28 l 1,56,-1
 363 28 l 1,57,-1
 363 73 l 1,58,-1
 343 45 l 1,59,-1
 318 28 l 1,60,-1
 144 28 l 1,61,-1
 103 59 l 1,62,-1
 90 93 l 1,63,-1
 90 192 l 1,64,-1
 108 264 l 1,65,-1
 140 290 l 1,66,-1
 220 324 l 1,67,-1
 277 342 l 1,68,-1
 363 346 l 1,69,-1
 362 404 l 1,70,-1
 352 422 l 1,71,72
 352 422 352 422 326 437 c 1,73,74
 326 437 326 437 294 437 c 1,75,76
 294 437 294 437 253 434 c 1,77,78
 253 434 253 434 222 430 c 1,79,-1
 198 420 l 1,80,-1
 184 391 l 1,81,-1
 181 362 l 1,82,83
 181 362 181 362 172 346 c 1,84,-1
 146 346 l 1,85,-1
 136 361 l 1,86,87
 136 361 136 361 136 390 c 1,88,89
 136 390 136 390 144 424 c 1,90,-1
 164 452 l 1,91,-1
 192 474 l 1,44,-1
272 296 m 1,92,-1
 249 288 l 1,93,-1
 220 274 l 1,94,95
 220 274 220 274 190 248 c 1,96,-1
 181 210 l 1,97,98
 181 210 181 210 181 140 c 1,99,100
 181 140 181 140 192 112 c 1,101,-1
 209 84 l 1,102,-1
 227 73 l 1,103,-1
 318 73 l 1,104,-1
 356 98 l 1,105,-1
 364 140 l 1,106,-1
 363 272 l 1,107,108
 363 272 363 272 350 300 c 1,109,-1
 302 300 l 1,110,111
 329 300 329 300 294 300 c 1,112,113
 294 300 294 300 272 296 c 1,92,-1
EndSplineSet
EndChar

StartChar: adieresis
Encoding: 228 228 196
Width: 545
GlyphClass: 1
Flags: W
LayerCount: 2
Fore
SplineSet
192 474 m 5,0,-1
 295 482 l 5,1,2
 295 482 295 482 368 481 c 5,3,4
 368 481 368 481 413 464 c 5,5,-1
 435 432 l 5,6,-1
 450 374 l 5,7,-1
 454 320 l 5,8,9
 454 320 454 320 454 73 c 5,10,-1
 500 73 l 5,11,-1
 500 28 l 5,12,-1
 363 28 l 5,13,-1
 363 73 l 5,14,-1
 343 45 l 5,15,-1
 318 28 l 5,16,-1
 144 28 l 5,17,-1
 103 59 l 5,18,-1
 90 93 l 5,19,-1
 90 192 l 5,20,-1
 108 264 l 5,21,-1
 140 290 l 5,22,-1
 220 324 l 5,23,-1
 277 342 l 5,24,-1
 363 346 l 5,25,-1
 362 404 l 5,26,-1
 352 422 l 5,27,28
 352 422 352 422 326 437 c 5,29,30
 326 437 326 437 294 437 c 5,31,32
 294 437 294 437 253 434 c 5,33,34
 253 434 253 434 222 430 c 5,35,-1
 198 420 l 5,36,-1
 184 391 l 5,37,-1
 181 362 l 5,38,39
 181 362 181 362 172 346 c 5,40,-1
 146 346 l 5,41,-1
 136 361 l 5,42,43
 136 361 136 361 136 390 c 5,44,45
 136 390 136 390 144 424 c 5,46,-1
 164 452 l 5,47,-1
 192 474 l 5,0,-1
272 296 m 5,48,-1
 249 288 l 5,49,-1
 220 274 l 5,50,51
 220 274 220 274 190 248 c 5,52,-1
 181 210 l 5,53,54
 181 210 181 210 181 140 c 5,55,56
 181 140 181 140 192 112 c 5,57,-1
 209 84 l 5,58,-1
 227 73 l 5,59,-1
 318 73 l 5,60,-1
 356 98 l 5,61,-1
 364 140 l 5,62,-1
 363 272 l 5,63,64
 363 272 363 272 350 300 c 5,65,-1
 302 300 l 5,66,67
 329 300 329 300 294 300 c 5,68,69
 294 300 294 300 272 296 c 5,48,-1
136 664 m 1,70,-1
 227 664 l 1,71,-1
 227 573 l 1,72,-1
 136 573 l 1,73,-1
 136 664 l 1,70,-1
318 664 m 1,74,-1
 409 664 l 1,75,-1
 409 573 l 1,76,-1
 318 573 l 1,77,-1
 318 664 l 1,74,-1
EndSplineSet
EndChar

StartChar: aring
Encoding: 229 229 197
Width: 545
GlyphClass: 1
Flags: W
LayerCount: 2
Fore
SplineSet
198 681 m 1,0,-1
 232 709 l 5,1,2
 232 709 232 709 276 721 c 5,3,-1
 322 707 l 5,4,5
 322 707 322 707 350 675 c 5,6,7
 350 675 350 675 362 641 c 5,8,-1
 344 603 l 5,9,10
 344 603 344 603 314 575 c 5,11,-1
 276 567 l 5,12,13
 276 567 276 567 244 575 c 5,14,-1
 214 599 l 5,15,-1
 192 635 l 5,16,-1
 198 681 l 1,0,-1
192 474 m 1,17,-1
 295 482 l 1,18,19
 295 482 295 482 368 481 c 1,20,21
 368 481 368 481 413 464 c 1,22,-1
 435 432 l 1,23,-1
 450 374 l 1,24,-1
 454 320 l 1,25,26
 454 320 454 320 454 73 c 1,27,-1
 500 73 l 1,28,-1
 500 28 l 1,29,-1
 363 28 l 1,30,-1
 363 73 l 1,31,-1
 343 45 l 1,32,-1
 318 28 l 1,33,-1
 144 28 l 1,34,-1
 103 59 l 1,35,-1
 90 93 l 1,36,-1
 90 192 l 1,37,-1
 108 264 l 1,38,-1
 140 290 l 1,39,-1
 220 324 l 1,40,-1
 277 342 l 1,41,-1
 363 346 l 1,42,-1
 362 404 l 1,43,-1
 352 422 l 1,44,45
 352 422 352 422 326 437 c 1,46,47
 326 437 326 437 294 437 c 1,48,49
 294 437 294 437 253 434 c 1,50,51
 253 434 253 434 222 430 c 1,52,-1
 198 420 l 1,53,-1
 184 391 l 1,54,-1
 181 362 l 1,55,56
 181 362 181 362 172 346 c 1,57,-1
 146 346 l 1,58,-1
 136 361 l 1,59,60
 136 361 136 361 136 390 c 1,61,62
 136 390 136 390 144 424 c 1,63,-1
 164 452 l 1,64,-1
 192 474 l 1,17,-1
272 296 m 1,65,-1
 249 288 l 1,66,-1
 220 274 l 1,67,68
 220 274 220 274 190 248 c 1,69,-1
 181 210 l 1,70,71
 181 210 181 210 181 140 c 1,72,73
 181 140 181 140 192 112 c 1,74,-1
 209 84 l 1,75,-1
 227 73 l 1,76,-1
 318 73 l 1,77,-1
 356 98 l 1,78,-1
 364 140 l 1,79,-1
 363 272 l 1,80,81
 363 272 363 272 350 300 c 1,82,-1
 302 300 l 1,83,84
 329 300 329 300 294 300 c 1,85,86
 294 300 294 300 272 296 c 1,65,-1
227 755 m 1,87,-1
 196 745 l 1,88,-1
 164 721 l 1,89,-1
 144 685 l 1,90,-1
 136 645 l 1,91,-1
 136 619 l 1,92,-1
 144 589 l 1,93,-1
 172 561 l 1,94,-1
 198 541 l 1,95,-1
 227 528 l 1,96,-1
 318 528 l 1,97,-1
 346 537 l 1,98,-1
 372 555 l 1,99,-1
 396 585 l 1,100,-1
 409 619 l 1,101,-1
 409 664 l 1,102,-1
 394 699 l 1,103,-1
 380 725 l 1,104,-1
 350 741 l 1,105,-1
 314 755 l 1,106,-1
 227 755 l 1,87,-1
EndSplineSet
EndChar

StartChar: ae
Encoding: 230 230 198
Width: 545
GlyphClass: 1
Flags: W
LayerCount: 2
Fore
SplineSet
176 481 m 1,0,-1
 358 481 l 1,1,-1
 402 473 l 1,2,-1
 448 451 l 1,3,-1
 476 423 l 1,4,-1
 502 365 l 1,5,-1
 500 255 l 1,6,-1
 318 255 l 1,7,-1
 318 213 l 1,8,9
 318 213 318 213 318 163 c 1,10,11
 318 163 318 163 318 119 c 1,12,-1
 332 93 l 1,13,-1
 363 73 l 1,14,-1
 396 85 l 1,15,-1
 409 119 l 1,16,-1
 500 119 l 1,17,-1
 496 89 l 1,18,-1
 480 51 l 1,19,-1
 424 29 l 1,20,-1
 376 28 l 1,21,22
 376 28 376 28 284 28 c 1,23,24
 284 28 284 28 192 28 c 1,25,26
 192 28 192 28 122 29 c 1,27,-1
 78 43 l 1,28,-1
 48 93 l 1,29,-1
 45 131 l 1,30,31
 45 131 45 131 45 203 c 1,32,33
 45 203 45 203 52 239 c 1,34,-1
 74 279 l 1,35,-1
 108 301 l 1,36,-1
 150 313 l 1,37,-1
 182 321 l 1,38,-1
 228 325 l 1,39,-1
 227 437 l 1,40,-1
 181 437 l 1,41,-1
 148 411 l 1,42,-1
 136 373 l 1,43,-1
 136 346 l 1,44,-1
 90 346 l 1,45,-1
 90 395 l 1,46,-1
 114 455 l 1,47,-1
 176 481 l 1,0,-1
318 437 m 1,48,-1
 318 300 l 1,49,-1
 409 300 l 1,50,-1
 409 355 l 1,51,52
 409 355 409 355 409 399 c 1,53,54
 409 399 409 399 392 431 c 1,55,-1
 360 437 l 1,56,57
 360 437 360 437 318 437 c 1,48,-1
152 241 m 1,58,-1
 138 185 l 1,59,60
 138 185 138 185 136 133 c 1,61,62
 136 133 136 133 144 91 c 1,63,-1
 176 73 l 1,64,65
 176 73 176 73 227 73 c 1,66,-1
 227 255 l 1,67,-1
 184 255 l 1,68,69
 184 255 184 255 152 241 c 1,58,-1
EndSplineSet
EndChar

StartChar: ccedilla
Encoding: 231 231 199
Width: 545
GlyphClass: 1
Flags: W
LayerCount: 2
Fore
SplineSet
192 483 m 1,0,-1
 328 483 l 1,1,-1
 408 465 l 1,2,-1
 442 440 l 1,3,-1
 454 379 l 1,4,5
 454 379 454 379 442 354 c 1,6,-1
 422 346 l 1,7,8
 422 346 422 346 378 354 c 1,9,-1
 363 391 l 1,10,-1
 342 410 l 1,11,-1
 306 428 l 1,12,-1
 246 437 l 1,13,14
 246 437 246 437 194 430 c 1,15,-1
 158 412 l 1,16,-1
 140 370 l 1,17,-1
 136 327 l 1,18,19
 136 327 136 327 136 245 c 1,20,21
 136 245 136 245 140 172 c 1,22,-1
 156 136 l 1,23,-1
 172 106 l 1,24,25
 172 106 172 106 218 80 c 1,26,-1
 282 73 l 1,27,28
 282 73 282 73 358 86 c 1,29,-1
 392 96 l 1,30,-1
 409 119 l 1,31,-1
 409 164 l 1,32,-1
 454 164 l 1,33,-1
 454 73 l 1,34,-1
 432 48 l 1,35,-1
 392 28 l 1,36,-1
 318 28 l 1,37,-1
 318 -18 l 1,38,-1
 338 -34 l 1,39,-1
 370 -50 l 1,40,-1
 394 -72 l 1,41,-1
 409 -104 l 1,42,43
 409 -104 409 -104 409 -154 c 1,44,-1
 388 -178 l 1,45,-1
 360 -194 l 1,46,-1
 298 -200 l 1,47,48
 298 -200 298 -200 246 -198 c 1,49,-1
 200 -176 l 1,50,-1
 181 -154 l 1,51,-1
 181 -109 l 1,52,-1
 214 -106 l 1,53,-1
 232 -140 l 1,54,-1
 272 -154 l 1,55,56
 272 -154 272 -154 318 -154 c 1,57,-1
 340 -116 l 1,58,59
 340 -116 340 -116 318 -63 c 1,60,-1
 272 -63 l 1,61,-1
 272 28 l 1,62,-1
 162 28 l 1,63,-1
 120 38 l 1,64,-1
 82 62 l 1,65,-1
 56 102 l 1,66,-1
 44 146 l 1,67,-1
 44.4634146341 207 l 1,68,69
 44.4634146341 207 44.4634146341 207 44 283 c 1,70,-1
 48 353 l 1,71,-1
 76 419 l 1,72,-1
 106 459 l 1,73,-1
 192 483 l 1,0,-1
EndSplineSet
EndChar

StartChar: egrave
Encoding: 232 232 200
Width: 545
GlyphClass: 1
Flags: W
LayerCount: 2
Fore
SplineSet
181 482 m 1,0,-1
 324 484 l 1,1,-1
 410 464 l 1,2,-1
 454 437 l 1,3,-1
 484 402 l 1,4,-1
 500 340 l 1,5,-1
 500 255 l 1,6,-1
 136 255 l 1,7,-1
 138 188 l 1,8,-1
 144 144 l 1,9,-1
 168 104 l 1,10,-1
 198 78 l 1,11,-1
 258 70 l 1,12,-1
 310 70 l 1,13,14
 310 70 310 70 378 78 c 1,15,16
 378 78 378 78 400 94 c 1,17,-1
 409 119 l 1,18,-1
 500 119 l 1,19,-1
 500 73 l 1,20,-1
 450 48 l 1,21,-1
 409 28 l 1,22,-1
 268 26 l 1,23,-1
 224 28 l 1,24,-1
 172 44 l 1,25,-1
 134 56 l 1,26,-1
 92 86 l 1,27,-1
 58 124 l 1,28,-1
 45 164 l 1,29,-1
 44 320 l 1,30,-1
 70 404 l 1,31,-1
 90 437 l 1,32,-1
 134 468 l 1,33,-1
 181 482 l 1,0,-1
204 430 m 1,34,-1
 172 416 l 1,35,36
 172 416 172 416 144 388 c 1,37,-1
 138 352 l 1,38,-1
 136 300 l 1,39,-1
 409 300 l 1,40,-1
 408 348 l 1,41,-1
 386 402 l 1,42,-1
 342 432 l 1,43,-1
 294 433.846153846 l 1,44,45
 294 433.846153846 294 433.846153846 204 430 c 1,34,-1
272 664 m 5,46,-1
 136 664 l 5,47,-1
 136 619 l 5,48,-1
 346 527 l 5,49,-1
 409 528 l 5,50,-1
 409 573 l 5,51,-1
 272 664 l 5,46,-1
EndSplineSet
EndChar

StartChar: eacute
Encoding: 233 233 201
Width: 545
GlyphClass: 1
Flags: W
LayerCount: 2
Fore
SplineSet
181 482 m 5,0,-1
 324 484 l 5,1,-1
 410 464 l 5,2,-1
 454 437 l 5,3,-1
 484 402 l 5,4,-1
 500 340 l 5,5,-1
 500 255 l 5,6,-1
 136 255 l 5,7,-1
 138 188 l 5,8,-1
 144 144 l 5,9,-1
 168 104 l 5,10,-1
 198 78 l 5,11,-1
 258 70 l 5,12,-1
 310 70 l 5,13,14
 310 70 310 70 378 78 c 5,15,16
 378 78 378 78 400 94 c 5,17,-1
 409 119 l 5,18,-1
 500 119 l 5,19,-1
 500 73 l 5,20,-1
 450 48 l 5,21,-1
 409 28 l 5,22,-1
 268 26 l 5,23,-1
 224 28 l 5,24,-1
 172 44 l 5,25,-1
 134 56 l 5,26,-1
 92 86 l 5,27,-1
 58 124 l 5,28,-1
 45 164 l 5,29,-1
 44 320 l 5,30,-1
 70 404 l 5,31,-1
 90 437 l 5,32,-1
 134 468 l 5,33,-1
 181 482 l 5,0,-1
204 430 m 5,34,-1
 172 416 l 5,35,36
 172 416 172 416 144 388 c 5,37,-1
 138 352 l 5,38,-1
 136 300 l 5,39,-1
 409 300 l 5,40,-1
 408 348 l 5,41,-1
 386 402 l 5,42,-1
 342 432 l 5,43,-1
 294 433.846153846 l 5,44,45
 294 433.846153846 294 433.846153846 204 430 c 5,34,-1
344 663 m 1,46,-1
 409 664 l 1,47,-1
 409 619 l 1,48,-1
 272 528 l 1,49,-1
 136 528 l 1,50,-1
 132 597 l 1,51,-1
 344 663 l 1,46,-1
EndSplineSet
EndChar

StartChar: ecircumflex
Encoding: 234 234 202
Width: 545
GlyphClass: 1
Flags: W
LayerCount: 2
Fore
SplineSet
181 482 m 1,0,-1
 324 484 l 1,1,-1
 410 464 l 1,2,-1
 454 437 l 1,3,-1
 484 402 l 1,4,-1
 500 340 l 1,5,-1
 500 255 l 1,6,-1
 136 255 l 1,7,-1
 138 188 l 1,8,-1
 144 144 l 1,9,-1
 168 104 l 1,10,-1
 198 78 l 1,11,-1
 258 70 l 1,12,-1
 310 70 l 1,13,14
 310 70 310 70 378 78 c 1,15,16
 378 78 378 78 400 94 c 1,17,-1
 409 119 l 1,18,-1
 500 119 l 1,19,-1
 500 73 l 1,20,-1
 450 48 l 1,21,-1
 409 28 l 1,22,-1
 268 26 l 1,23,-1
 224 28 l 1,24,-1
 172 44 l 1,25,-1
 134 56 l 1,26,-1
 92 86 l 1,27,-1
 58 124 l 1,28,-1
 45 164 l 1,29,-1
 44 320 l 1,30,-1
 70 404 l 1,31,-1
 90 437 l 1,32,-1
 134 468 l 1,33,-1
 181 482 l 1,0,-1
204 430 m 1,34,-1
 172 416 l 1,35,36
 172 416 172 416 144 388 c 1,37,-1
 138 352 l 1,38,-1
 136 300 l 1,39,-1
 409 300 l 1,40,-1
 408 348 l 1,41,-1
 386 402 l 1,42,-1
 342 432 l 1,43,-1
 294 433.846153846 l 1,44,45
 294 433.846153846 294 433.846153846 204 430 c 1,34,-1
409 528 m 5,46,-1
 270 577 l 5,49,-1
 136 528 l 5,48,-1
 268 663 l 5,47,-1
 409 528 l 5,46,-1
EndSplineSet
EndChar

StartChar: edieresis
Encoding: 235 235 203
Width: 545
GlyphClass: 1
Flags: W
LayerCount: 2
Fore
SplineSet
181 482 m 5,0,-1
 324 484 l 5,1,-1
 410 464 l 5,2,-1
 454 437 l 5,3,-1
 484 402 l 5,4,-1
 500 340 l 5,5,-1
 500 255 l 5,6,-1
 136 255 l 5,7,-1
 138 188 l 5,8,-1
 144 144 l 5,9,-1
 168 104 l 5,10,-1
 198 78 l 5,11,-1
 258 70 l 5,12,-1
 310 70 l 5,13,14
 310 70 310 70 378 78 c 5,15,16
 378 78 378 78 400 94 c 5,17,-1
 409 119 l 5,18,-1
 500 119 l 5,19,-1
 500 73 l 5,20,-1
 450 48 l 5,21,-1
 409 28 l 5,22,-1
 268 26 l 5,23,-1
 224 28 l 5,24,-1
 172 44 l 5,25,-1
 134 56 l 5,26,-1
 92 86 l 5,27,-1
 58 124 l 5,28,-1
 45 164 l 5,29,-1
 44 320 l 5,30,-1
 70 404 l 5,31,-1
 90 437 l 5,32,-1
 134 468 l 5,33,-1
 181 482 l 5,0,-1
204 430 m 5,34,-1
 172 416 l 5,35,36
 172 416 172 416 144 388 c 5,37,-1
 138 352 l 5,38,-1
 136 300 l 5,39,-1
 409 300 l 5,40,-1
 408 348 l 5,41,-1
 386 402 l 5,42,-1
 342 432 l 5,43,-1
 294 433.846153846 l 5,44,45
 294 433.846153846 294 433.846153846 204 430 c 5,34,-1
136 664 m 1,46,-1
 227 664 l 1,47,-1
 227 573 l 1,48,-1
 136 573 l 1,49,-1
 136 664 l 1,46,-1
318 664 m 1,50,-1
 409 664 l 1,51,-1
 409 573 l 1,52,-1
 318 573 l 1,53,-1
 318 664 l 1,50,-1
EndSplineSet
EndChar

StartChar: igrave
Encoding: 236 236 204
Width: 545
GlyphClass: 1
Flags: W
LayerCount: 2
Fore
SplineSet
272 664 m 5,0,-1
 136 664 l 5,1,-1
 136 619 l 5,2,-1
 346 527 l 5,3,-1
 409 528 l 5,4,-1
 409 573 l 5,5,-1
 272 664 l 5,0,-1
136 482 m 1,6,-1
 318 482 l 1,7,-1
 318 73 l 1,8,-1
 409 73 l 1,9,-1
 409 28 l 1,10,-1
 136 28 l 1,11,-1
 136 73 l 1,12,-1
 227 73 l 1,13,-1
 227 437 l 1,14,-1
 136 437 l 1,15,-1
 136 482 l 1,6,-1
EndSplineSet
EndChar

StartChar: iacute
Encoding: 237 237 205
Width: 545
GlyphClass: 1
Flags: W
LayerCount: 2
Fore
SplineSet
136 573 m 5,0,-1
 136 528 l 1,1,-1
 409 619 l 1,2,-1
 409 664 l 1,3,-1
 272 664 l 1,4,-1
 136 573 l 5,0,-1
136 482 m 1,5,-1
 318 482 l 1,6,-1
 318 73 l 1,7,-1
 409 73 l 1,8,-1
 409 28 l 1,9,-1
 136 28 l 1,10,-1
 136 73 l 1,11,-1
 227 73 l 1,12,-1
 227 437 l 1,13,-1
 136 437 l 1,14,-1
 136 482 l 1,5,-1
EndSplineSet
EndChar

StartChar: icircumflex
Encoding: 238 238 206
Width: 545
GlyphClass: 1
Flags: W
LayerCount: 2
Fore
SplineSet
409 528 m 5,0,-1
 268 577 l 1,3,-1
 136 528 l 1,2,-1
 270 665 l 1,1,-1
 409 528 l 5,0,-1
136 482 m 1,5,-1
 318 482 l 1,6,-1
 318 73 l 1,7,-1
 409 73 l 1,8,-1
 409 28 l 1,9,-1
 136 28 l 1,10,-1
 136 73 l 1,11,-1
 227 73 l 1,12,-1
 227 437 l 1,13,-1
 136 437 l 1,14,-1
 136 482 l 1,5,-1
EndSplineSet
EndChar

StartChar: idieresis
Encoding: 239 239 207
Width: 545
GlyphClass: 1
Flags: W
LayerCount: 2
Fore
SplineSet
136 664 m 1,0,-1
 227 664 l 1,1,-1
 227 573 l 1,2,-1
 136 573 l 1,3,-1
 136 664 l 1,0,-1
318 664 m 1,4,-1
 409 664 l 1,5,-1
 409 573 l 1,6,-1
 318 573 l 1,7,-1
 318 664 l 1,4,-1
136 482 m 1,8,-1
 318 482 l 1,9,-1
 318 73 l 1,10,-1
 409 73 l 1,11,-1
 409 28 l 1,12,-1
 136 28 l 1,13,-1
 136 73 l 1,14,-1
 227 73 l 1,15,-1
 227 437 l 1,16,-1
 136 437 l 1,17,-1
 136 482 l 1,8,-1
EndSplineSet
Validated: 1
EndChar

StartChar: eth
Encoding: 240 240 208
Width: 545
GlyphClass: 1
Flags: W
LayerCount: 2
Fore
SplineSet
232 597 m 1,0,-1
 204 621 l 1,1,-1
 172 647 l 1,2,-1
 136 664 l 1,3,-1
 90 664 l 1,4,-1
 90 710 l 1,5,-1
 140 710 l 1,6,7
 140 710 140 710 192 693 c 1,8,-1
 228 663 l 1,9,10
 228 663 228 663 262 635 c 1,11,12
 262 635 262 635 280 619 c 1,13,-1
 454 710 l 1,14,-1
 454 664 l 1,15,-1
 320 593 l 1,16,-1
 344 573 l 1,17,-1
 384 535 l 1,18,-1
 420 497 l 1,19,-1
 450 455 l 1,20,-1
 470 413 l 1,21,-1
 492 351 l 1,22,-1
 498 277 l 1,23,-1
 496 217 l 1,24,-1
 474 155 l 1,25,-1
 454 119 l 1,26,-1
 434 89 l 1,27,-1
 400 59 l 1,28,-1
 374 45 l 1,29,-1
 330 29 l 1,30,-1
 194 29 l 1,31,-1
 120 57 l 1,32,-1
 90 73 l 1,33,-1
 64 115 l 1,34,-1
 44 155 l 1,35,-1
 42 245 l 1,36,-1
 50 293 l 1,37,-1
 72 343 l 1,38,-1
 92 379 l 1,39,-1
 138 413 l 1,40,-1
 188 437 l 1,41,-1
 252 449 l 1,42,-1
 318 437 l 1,43,-1
 368 419 l 1,44,45
 368 419 368 419 324 505 c 1,46,47
 324 505 324 505 286 543 c 1,48,49
 286 543 286 543 266 563 c 1,50,-1
 90 482 l 5,51,-1
 90 482 l 1,52,-1
 90 482 l 1,53,-1
 90 528 l 1,54,-1
 232 597 l 1,0,-1
212 391 m 1,55,-1
 150 351 l 1,56,-1
 134 315 l 1,57,-1
 128 245 l 1,58,-1
 140 165 l 1,59,-1
 166 121 l 1,60,-1
 194 93 l 1,61,-1
 227 73 l 1,62,-1
 306 71 l 1,63,-1
 358 91 l 1,64,-1
 414 167 l 1,65,-1
 408 281 l 1,66,-1
 382 335 l 1,67,-1
 310 391 l 1,68,-1
 212 391 l 1,55,-1
EndSplineSet
EndChar

StartChar: ntilde
Encoding: 241 241 209
Width: 545
GlyphClass: 1
Flags: W
LayerCount: 2
Fore
SplineSet
197.19921875 660.600585938 m 5,0,-1
 238.799804688 663.600585938 l 5,1,-1
 266.799804688 646.200195312 l 5,2,-1
 282.799804688 630 l 5,3,-1
 304.399414062 600 l 5,4,-1
 327.599609375 580.200195312 l 5,5,-1
 351.599609375 579 l 5,6,-1
 372.399414062 595.80078125 l 5,7,-1
 391.599609375 614.400390625 l 5,8,-1
 410 637.80078125 l 5,9,-1
 418.799804688 652.80078125 l 5,10,11
 418.799804688 652.80078125 418.799804688 652.80078125 423.599609375 663.600585938 c 5,12,-1
 438 666 l 5,13,14
 438 666 438 666 450.799804688 663 c 5,15,-1
 455.599609375 651.600585938 l 5,16,17
 455.599609375 651.600585938 455.599609375 651.600585938 448.399414062 632.400390625 c 5,18,-1
 430.799804688 604.80078125 l 5,19,-1
 409.19921875 579.600585938 l 5,20,-1
 382.799804688 556.80078125 l 5,21,-1
 344.399414062 541.200195312 l 5,22,-1
 294 540 l 5,23,-1
 267.599609375 551.400390625 l 5,24,-1
 245.19921875 577.200195312 l 5,25,-1
 227.599609375 599.400390625 l 5,26,-1
 214.799804688 609 l 5,27,-1
 190.799804688 610.80078125 l 5,28,-1
 173.19921875 602.400390625 l 5,29,-1
 158 586.80078125 l 5,30,-1
 145.19921875 564.600585938 l 5,31,-1
 133.19921875 542.400390625 l 5,32,33
 133.19921875 542.400390625 133.19921875 542.400390625 123.599609375 531 c 5,34,-1
 108.399414062 529.80078125 l 5,35,36
 108.399414062 529.80078125 108.399414062 529.80078125 95.599609375 532.80078125 c 5,37,-1
 91.599609375 542.400390625 l 5,38,39
 91.599609375 542.400390625 91.599609375 542.400390625 95.599609375 562.200195312 c 5,40,-1
 112.399414062 583.200195312 l 5,41,-1
 130.799804688 611.400390625 l 5,42,-1
 165.19921875 643.200195312 l 5,43,-1
 197.19921875 660.600585938 l 5,0,-1
137 507 m 1,44,-1
 136 402 l 1,45,-1
 178 470 l 1,46,-1
 270 488 l 1,47,-1
 409 482 l 1,48,-1
 438 464 l 1,49,-1
 454 437 l 1,50,-1
 454 73 l 1,51,-1
 500 73 l 1,52,-1
 500 28 l 1,53,-1
 318 28 l 1,54,-1
 318 73 l 1,55,-1
 363 73 l 1,56,-1
 363 391 l 1,57,-1
 350 422 l 1,58,-1
 318 437 l 1,59,-1
 250 434 l 1,60,-1
 212 418 l 1,61,-1
 181 391 l 1,62,-1
 181 73 l 1,63,-1
 227 73 l 1,64,-1
 227 28 l 1,65,-1
 45 28 l 1,66,-1
 45 73 l 1,67,-1
 90 73 l 1,68,-1
 91 416 l 1,69,-1
 46 416 l 1,70,-1
 137 507 l 1,44,-1
EndSplineSet
EndChar

StartChar: ograve
Encoding: 242 242 210
Width: 545
GlyphClass: 1
Flags: W
LayerCount: 2
Fore
SplineSet
500 164 m 1,0,-1
 500 234 l 1,1,2
 500 314 500 314 500 314 c 129,-1,3
 500 314 500 314 492 366 c 1,4,-1
 474 412 l 1,5,-1
 454 437 l 1,6,-1
 432 452 l 1,7,-1
 392 482 l 1,8,-1
 272 490 l 1,9,-1
 188 482 l 1,10,-1
 146 462 l 1,11,-1
 114 436 l 1,12,-1
 84 406 l 1,13,-1
 46 332 l 1,14,-1
 42 264 l 1,15,-1
 46 156 l 1,16,-1
 62 102 l 1,17,-1
 90 73 l 1,18,-1
 130 44 l 1,19,-1
 190 24 l 1,20,-1
 363 28 l 1,21,-1
 398 48 l 1,22,-1
 428 72 l 1,23,-1
 470 108 l 1,24,-1
 500 164 l 1,0,-1
194 434 m 1,25,-1
 248 437 l 1,26,27
 248 437 248 437 304 436 c 1,28,-1
 338 424 l 1,29,-1
 366 402 l 1,30,-1
 380 384 l 1,31,-1
 398 342 l 1,32,-1
 409 294 l 1,33,34
 409 192 409 192 409 192 c 129,-1,35
 409 192 409 192 406 138 c 1,36,-1
 378 96 l 1,37,-1
 340 78 l 1,38,-1
 294 73 l 1,39,40
 294 73 294 73 254 78 c 1,41,-1
 222 86 l 1,42,-1
 182 100 l 1,43,-1
 150 132 l 1,44,-1
 132 158 l 1,45,-1
 118 210 l 1,46,47
 120 290 120 290 120 290 c 129,-1,48
 120 290 120 290 132 368 c 1,49,-1
 152 412 l 1,50,-1
 194 434 l 1,25,-1
272 664 m 5,51,-1
 136 664 l 5,56,-1
 136 619 l 5,55,-1
 346 527 l 5,54,-1
 409 528 l 5,53,-1
 409 573 l 5,52,-1
 272 664 l 5,51,-1
EndSplineSet
EndChar

